<?xml version="1.0" standalone="no"?>
<!DOCTYPE svg PUBLIC "-//W3C//DTD SVG 1.1//EN" "http://www.w3.org/Graphics/SVG/1.1/DTD/svg11.dtd" >
<svg xmlns="http://www.w3.org/2000/svg" xmlns:xlink="http://www.w3.org/1999/xlink" version="1.1">
<metadata>
Created by FontForge 20170910 at Thu Dec 22 05:22:53 2016
 By Jimmy Wärting
(c) 2015 Apple Inc. All rights reserved.
</metadata>
<defs>
<font id="SFUIText-LightItalic" horiz-adv-x="0" >
  <font-face 
    font-family="SF UI Text"
    font-weight="300"
    font-style="italic"
    font-stretch="normal"
    units-per-em="2048"
    panose-1="0 0 4 0 0 0 0 0 0 0"
    ascent="1638"
    descent="-410"
    x-height="1077"
    cap-height="1443"
    bbox="-500 -549 2898 2188"
    underline-thickness="95"
    underline-position="-369"
    slope="-12"
    stemh="120"
    stemv="134"
    unicode-range="U+0020-FB02"
  />
<missing-glyph horiz-adv-x="2048" 
d="M-62 -494l65 308h1849l-66 -308h-1848zM29 -67l65 308h1848l-65 -308h-1848zM120 361l65 307h1848l-65 -307h-1848zM211 788l65 307h1848l-65 -307h-1848zM301 1215l66 308h1848l-65 -308h-1849zM392 1642l66 308h1848l-66 -308h-1848z" />
    <glyph glyph-name=".notdef" horiz-adv-x="2048" 
d="M-62 -494l65 308h1849l-66 -308h-1848zM29 -67l65 308h1848l-65 -308h-1848zM120 361l65 307h1848l-65 -307h-1848zM211 788l65 307h1848l-65 -307h-1848zM301 1215l66 308h1848l-65 -308h-1849zM392 1642l66 308h1848l-66 -308h-1848z" />
    <glyph glyph-name=".null" 
 />
    <glyph glyph-name="nonmarkingreturn" 
 />
    <glyph glyph-name="space" unicode=" " horiz-adv-x="554" 
 />
    <glyph glyph-name="A" unicode="A" horiz-adv-x="1363" 
d="M1097 0l-67 443h-609l-254 -443h-148l850 1443h129l233 -1443h-134zM892 1262l-404 -702h526l-110 702h-12z" />
    <glyph glyph-name="Agrave" unicode="&#xc0;" horiz-adv-x="1363" 
d="M1097 0l-67 443h-609l-254 -443h-148l850 1443h129l233 -1443h-134zM892 1262l-404 -702h526l-110 702h-12zM837 1874l184 -297h-141l-200 297h157z" />
    <glyph glyph-name="Aacute" unicode="&#xc1;" horiz-adv-x="1363" 
d="M1097 0l-67 443h-609l-254 -443h-148l850 1443h129l233 -1443h-134zM892 1262l-404 -702h526l-110 702h-12zM885 1577l373 297h175l-389 -297h-159z" />
    <glyph glyph-name="Adieresis" unicode="&#xc4;" horiz-adv-x="1363" 
d="M1097 0l-67 443h-609l-254 -443h-148l850 1443h129l233 -1443h-134zM892 1262l-404 -702h526l-110 702h-12zM799 1568c-57 0 -102 45 -102 102s45 102 102 102c56 0 102 -45 102 -102s-46 -102 -102 -102zM1162 1568c-56 0 -102 45 -102 102s46 102 102 102
c57 0 102 -45 102 -102s-45 -102 -102 -102z" />
    <glyph glyph-name="Adieresismacron" unicode="&#x1de;" horiz-adv-x="1363" 
d="M1097 0l-67 443h-609l-254 -443h-148l850 1443h129l233 -1443h-134zM892 1262l-404 -702h526l-110 702h-12zM711 1915l21 101h645l-22 -101h-644zM804 1580c-55 0 -99 44 -99 99s44 99 99 99s99 -44 99 -99s-44 -99 -99 -99zM1168 1580c-55 0 -99 44 -99 99s44 99 99 99
s99 -44 99 -99s-44 -99 -99 -99z" />
    <glyph glyph-name="Aring" unicode="&#xc5;" horiz-adv-x="1363" 
d="M1097 0l-67 443h-609l-254 -443h-148l850 1443h129l233 -1443h-134zM892 1262l-404 -702h526l-110 702h-12zM1000 1563c-101 0 -183 80 -183 182c0 101 82 181 183 181c102 0 183 -80 183 -181c0 -102 -81 -182 -183 -182zM1000 1635c63 0 110 48 110 110
s-47 109 -110 109c-62 0 -109 -47 -109 -109s47 -110 109 -110z" />
    <glyph glyph-name="Aringacute" unicode="&#x1fa;" horiz-adv-x="1363" 
d="M1097 0l-67 443h-609l-254 -443h-148l850 1443h129l233 -1443h-134zM892 1262l-404 -702h526l-110 702h-12zM887 1723c0 -60 45 -107 105 -107c59 0 105 47 105 107s-45 106 -105 106s-105 -46 -105 -106zM992 1538c-104 0 -188 82 -188 185c0 104 85 185 188 185
s188 -81 188 -185c0 -103 -85 -185 -188 -185zM1095 2138h146l-175 -169h-126z" />
    <glyph glyph-name="Atilde" unicode="&#xc3;" horiz-adv-x="1363" 
d="M1097 0l-67 443h-609l-254 -443h-148l850 1443h129l233 -1443h-134zM892 1262l-404 -702h526l-110 702h-12zM1132 1578c-155 0 -192 162 -285 162c-61 0 -106 -46 -123 -127h-110c25 145 122 231 236 231c153 0 192 -161 284 -161c62 0 105 44 123 126h110
c-27 -147 -122 -231 -235 -231z" />
    <glyph glyph-name="Abrevegrave" unicode="&#x1eb0;" horiz-adv-x="1363" 
d="M1097 0l-67 443h-609l-254 -443h-148l850 1443h129l233 -1443h-134zM892 1262l-404 -702h526l-110 702h-12zM661 1848h116v-15c0 -91 84 -156 198 -156s199 67 220 171h118c-26 -166 -165 -271 -342 -271c-184 0 -310 104 -310 257v14zM1087 1839h-149l-196 217h168z" />
    <glyph glyph-name="Adotmacron" unicode="&#x1e0;" horiz-adv-x="1363" 
d="M1097 0l-67 443h-609l-254 -443h-148l850 1443h129l233 -1443h-134zM892 1262l-404 -702h526l-110 702h-12zM1355 1915h-645l22 101h644zM983 1578c-58 0 -103 47 -103 104s45 104 103 104s104 -47 104 -104s-46 -104 -104 -104z" />
    <glyph glyph-name="Aringbelow" unicode="&#x1e00;" horiz-adv-x="1363" 
d="M1097 0l-67 443h-609l-254 -443h-148l850 1443h129l233 -1443h-134zM892 1262l-404 -702h526l-110 702h-12zM558 -549c-118 0 -213 92 -213 211c0 118 95 210 213 210s213 -92 213 -210c0 -119 -95 -211 -213 -211zM558 -464c71 0 125 55 125 126s-54 125 -125 125
s-125 -54 -125 -125s54 -126 125 -126z" />
    <glyph glyph-name="Acircumflex" unicode="&#xc2;" horiz-adv-x="1363" 
d="M1097 0l-67 443h-609l-254 -443h-148l850 1443h129l233 -1443h-134zM892 1262l-404 -702h526l-110 702h-12zM1092 1874l189 -297h-143l-126 208h-12l-214 -208h-160l315 297h151z" />
    <glyph glyph-name="Acircumflexdotbelow" unicode="&#x1eac;" horiz-adv-x="1363" 
d="M1097 0l-67 443h-609l-254 -443h-148l850 1443h129l233 -1443h-134zM892 1262l-404 -702h526l-110 702h-12zM575 -364c-58 0 -105 47 -105 105c0 57 47 104 105 104c57 0 104 -47 104 -104c0 -58 -47 -105 -104 -105zM1092 1874l189 -297h-143l-126 208h-12l-214 -208
h-160l315 297h151z" />
    <glyph glyph-name="Acircumflexacute" unicode="&#x1ea4;" horiz-adv-x="1363" 
d="M1097 0l-67 443h-609l-254 -443h-148l850 1443h129l233 -1443h-134zM892 1262l-404 -702h526l-110 702h-12zM1075 1801l237 -224h-164l-150 146h-12l-212 -146h-181l331 224h151zM1126 1825l268 231h167l-286 -231h-149z" />
    <glyph glyph-name="Acircumflextilde" unicode="&#x1eaa;" horiz-adv-x="1363" 
d="M1097 0l-67 443h-609l-254 -443h-148l850 1443h129l233 -1443h-134zM892 1262l-404 -702h526l-110 702h-12zM1075 1801l237 -224h-164l-150 146h-12l-212 -146h-181l331 224h151zM1124 1845c-121 0 -166 122 -244 122c-58 0 -95 -36 -114 -101h-110
c23 133 121 205 224 205c121 0 166 -121 244 -121c58 0 95 35 113 100h110c-23 -133 -120 -205 -223 -205z" />
    <glyph glyph-name="Acircumflexgrave" unicode="&#x1ea6;" horiz-adv-x="1363" 
d="M1097 0l-67 443h-609l-254 -443h-148l850 1443h129l233 -1443h-134zM892 1262l-404 -702h526l-110 702h-12zM1075 1801l237 -224h-164l-150 146h-12l-212 -146h-181l331 224h151zM1364 1825h-146l-194 231h165z" />
    <glyph glyph-name="Acircumflexhookabove" unicode="&#x1ea8;" horiz-adv-x="1363" 
d="M1097 0l-67 443h-609l-254 -443h-148l850 1443h129l233 -1443h-134zM892 1262l-404 -702h526l-110 702h-12zM1075 1801l237 -224h-164l-150 146h-12l-212 -146h-181l331 224h151zM1138 1937l19 93c21 9 61 16 99 16c120 0 199 -60 199 -149c0 -78 -63 -157 -151 -194
l-60 71c60 24 94 62 94 105c0 44 -36 72 -103 72c-37 0 -75 -5 -97 -14z" />
    <glyph glyph-name="Abreve" unicode="&#x102;" horiz-adv-x="1363" 
d="M1097 0l-67 443h-609l-254 -443h-148l850 1443h129l233 -1443h-134zM892 1262l-404 -702h526l-110 702h-12zM661 1837v14h116v-15c0 -92 83 -159 198 -159s199 68 220 174h118c-26 -167 -164 -274 -342 -274c-185 0 -310 106 -310 260z" />
    <glyph glyph-name="Abreveacute" unicode="&#x1eae;" horiz-adv-x="1363" 
d="M1097 0l-67 443h-609l-254 -443h-148l850 1443h129l233 -1443h-134zM892 1262l-404 -702h526l-110 702h-12zM661 1848h116v-15c0 -91 84 -156 198 -156s199 67 220 171h118c-26 -166 -165 -271 -342 -271c-184 0 -310 104 -310 257v14zM885 1839l265 217h169l-283 -217
h-151z" />
    <glyph glyph-name="Abrevetilde" unicode="&#x1eb4;" horiz-adv-x="1363" 
d="M1097 0l-67 443h-609l-254 -443h-148l850 1443h129l233 -1443h-134zM892 1262l-404 -702h526l-110 702h-12zM632 1797h117c6 -63 78 -122 194 -122c118 0 197 49 215 122h119c-24 -126 -159 -220 -338 -220c-186 0 -305 116 -307 220zM1117 1845
c-122 0 -169 122 -247 122c-58 0 -93 -37 -111 -94h-110c23 126 123 198 223 198c121 0 169 -121 247 -121c58 0 92 35 111 100h110c-23 -133 -121 -205 -223 -205z" />
    <glyph glyph-name="Abrevehookabove" unicode="&#x1eb2;" horiz-adv-x="1363" 
d="M1097 0l-67 443h-609l-254 -443h-148l850 1443h129l233 -1443h-134zM892 1262l-404 -702h526l-110 702h-12zM649 1797h117c6 -70 88 -122 194 -122c115 0 196 47 215 122h119c-25 -129 -164 -220 -338 -220c-165 0 -306 102 -307 220zM841 2021l20 88c23 9 61 17 95 17
c117 0 192 -59 192 -146c0 -88 -71 -166 -179 -197l-41 78c67 17 108 55 108 103c0 44 -35 71 -100 71c-32 0 -68 -6 -95 -14z" />
    <glyph glyph-name="Abrevedotbelow" unicode="&#x1eb6;" horiz-adv-x="1363" 
d="M1097 0l-67 443h-609l-254 -443h-148l850 1443h129l233 -1443h-134zM892 1262l-404 -702h526l-110 702h-12zM575 -364c-58 0 -105 47 -105 105c0 57 47 104 105 104c57 0 104 -47 104 -104c0 -58 -47 -105 -104 -105zM661 1837v14h116v-15c0 -92 83 -159 198 -159
s199 68 220 174h118c-26 -167 -164 -274 -342 -274c-185 0 -310 106 -310 260z" />
    <glyph glyph-name="Ainvertedbreve" unicode="&#x202;" horiz-adv-x="1363" 
d="M1097 0l-67 443h-609l-254 -443h-148l850 1443h129l233 -1443h-134zM892 1262l-404 -702h526l-110 702h-12zM1320 1590c0 -5 -1 -10 -1 -13h-116c0 4 1 10 1 14c0 93 -84 159 -199 159s-199 -68 -220 -173h-118c26 166 164 274 342 274c186 0 311 -107 311 -261z" />
    <glyph glyph-name="Acaron" unicode="&#x1cd;" horiz-adv-x="1363" 
d="M1097 0l-67 443h-609l-254 -443h-148l850 1443h129l233 -1443h-134zM892 1262l-404 -702h526l-110 702h-12zM894 1577l-189 297h143l126 -208h12l214 208h160l-315 -297h-151z" />
    <glyph glyph-name="Adotaccent" unicode="&#x226;" horiz-adv-x="1363" 
d="M1097 0l-67 443h-609l-254 -443h-148l850 1443h129l233 -1443h-134zM892 1262l-404 -702h526l-110 702h-12zM984 1577c-58 0 -105 46 -105 104s47 105 105 105s105 -47 105 -105s-47 -104 -105 -104z" />
    <glyph glyph-name="Adotbelow" unicode="&#x1ea0;" horiz-adv-x="1363" 
d="M1097 0l-67 443h-609l-254 -443h-148l850 1443h129l233 -1443h-134zM892 1262l-404 -702h526l-110 702h-12zM575 -364c-58 0 -105 47 -105 105c0 57 47 104 105 104c57 0 104 -47 104 -104c0 -58 -47 -105 -104 -105z" />
    <glyph glyph-name="Ahookabove" unicode="&#x1ea2;" horiz-adv-x="1363" 
d="M1097 0l-67 443h-609l-254 -443h-148l850 1443h129l233 -1443h-134zM892 1262l-404 -702h526l-110 702h-12zM855 1788l19 92c21 9 62 17 99 17c120 0 199 -59 199 -149c0 -94 -79 -178 -195 -209l-42 83c76 19 120 60 120 112c0 43 -36 68 -103 68c-37 0 -74 -6 -97 -14z
" />
    <glyph glyph-name="Adblgrave" unicode="&#x200;" horiz-adv-x="1363" 
d="M1097 0l-67 443h-609l-254 -443h-148l850 1443h129l233 -1443h-134zM892 1262l-404 -702h526l-110 702h-12zM862 1577h-155l-200 297h171zM1225 1577h-155l-200 297h171z" />
    <glyph glyph-name="Amacron" unicode="&#x100;" horiz-adv-x="1363" 
d="M1097 0l-67 443h-609l-254 -443h-148l850 1443h129l233 -1443h-134zM892 1262l-404 -702h526l-110 702h-12zM1293 1619h-644l22 105h645z" />
    <glyph glyph-name="Aogonek" unicode="&#x104;" horiz-adv-x="1363" 
d="M892 1262l-404 -702h526l-110 702h-12zM1093 26l-63 417h-609l-254 -443h-148l850 1443h129l233 -1443l-27 -8c-145 -42 -234 -114 -234 -201c0 -60 52 -98 135 -98c17 0 30 1 39 3l-22 -103c-17 -5 -41 -9 -65 -9c-130 0 -222 74 -222 179c0 109 89 210 258 263z" />
    <glyph glyph-name="Aogonek.mini" horiz-adv-x="1363" 
d="M892 1262l-404 -702h526l-110 702h-12zM1093 26l-63 417h-609l-254 -443h-148l850 1443h129l233 -1443l-27 -8c-145 -42 -234 -114 -234 -201c0 -60 52 -98 135 -98c17 0 30 1 39 3l-22 -103c-17 -5 -41 -9 -65 -9c-130 0 -222 74 -222 179c0 109 89 210 258 263z" />
    <glyph glyph-name="Aringbelow.mini" horiz-adv-x="1363" 
d="M1097 0l-67 443h-609l-254 -443h-148l850 1443h129l233 -1443h-134zM892 1262l-404 -702h526l-110 702h-12zM469 -285c0 -57 44 -102 102 -102c57 0 101 45 101 102c0 58 -44 103 -101 103c-58 0 -102 -45 -102 -103zM571 -451c-94 0 -169 72 -169 166s75 167 169 167
c93 0 168 -73 168 -167s-75 -166 -168 -166z" />
    <glyph glyph-name="A.mini" horiz-adv-x="1363" 
d="M879 1181l-377 -624h494l-112 624h-5zM1095 0l-78 439h-585l-266 -439h-149l823 1335h136l256 -1335h-137z" />
    <glyph glyph-name="Adieresismacron.mini" horiz-adv-x="1363" 
d="M686 1807l21 101h645l-22 -101h-644zM776 1469c-57 0 -102 45 -102 102c0 56 45 102 102 102c56 0 102 -46 102 -102c0 -57 -46 -102 -102 -102zM1140 1469c-57 0 -103 45 -103 102c0 56 46 102 103 102c56 0 102 -46 102 -102c0 -57 -46 -102 -102 -102zM879 1181
l-377 -624h494l-112 624h-5zM1095 0l-78 439h-585l-266 -439h-149l823 1335h136l256 -1335h-137z" />
    <glyph glyph-name="Aringacute.mini" horiz-adv-x="1363" 
d="M840 1587c0 -56 43 -101 100 -101c56 0 100 45 100 101c0 57 -43 101 -100 101s-100 -44 -100 -101zM940 1412c-99 0 -179 77 -179 176s80 176 179 176c98 0 178 -77 178 -176s-80 -176 -178 -176zM1019 1953h139l-136 -128h-111zM879 1181l-377 -624h494l-112 624h-5z
M1095 0l-78 439h-585l-266 -439h-149l823 1335h136l256 -1335h-137z" />
    <glyph glyph-name="Abrevegrave.mini" horiz-adv-x="1363" 
d="M635 1740h117c3 -106 82 -171 197 -171c114 0 198 67 219 171h119c-27 -166 -160 -271 -342 -271c-186 0 -310 104 -310 271zM1065 1731h-149l-196 207h168zM879 1181l-377 -624h494l-112 624h-5zM1095 0l-78 439h-585l-266 -439h-149l823 1335h136l256 -1335h-137z" />
    <glyph glyph-name="Adotmacron.mini" horiz-adv-x="1363" 
d="M879 1181l-377 -624h494l-112 624h-5zM1095 0l-78 439h-585l-266 -439h-149l823 1335h136l256 -1335h-137zM958 1470c-58 0 -103 47 -103 104s45 104 103 104s104 -47 104 -104s-46 -104 -104 -104zM1330 1807h-644l21 101h645z" />
    <glyph glyph-name="Acircumflexacute.mini" horiz-adv-x="1363" 
d="M1050 1693l237 -224h-164l-150 146h-12l-212 -146h-181l331 224h151zM1101 1717l267 221h168l-286 -221h-149zM879 1181l-377 -624h494l-112 624h-5zM1095 0l-78 439h-585l-266 -439h-149l823 1335h136l256 -1335h-137z" />
    <glyph glyph-name="Acircumflextilde.mini" horiz-adv-x="1363" 
d="M879 1181l-377 -624h494l-112 624h-5zM1095 0l-78 439h-585l-266 -439h-149l823 1335h136l256 -1335h-137zM1050 1693l237 -224h-164l-150 146h-12l-212 -146h-181l331 224h151zM1133 1737c-107 0 -157 102 -236 102c-51 0 -82 -32 -101 -90h-110c23 126 111 192 211 192
c108 0 158 -102 236 -102c51 0 83 31 101 89h110c-23 -126 -111 -191 -211 -191z" />
    <glyph glyph-name="Acircumflexgrave.mini" horiz-adv-x="1363" 
d="M879 1181l-377 -624h494l-112 624h-5zM1095 0l-78 439h-585l-266 -439h-149l823 1335h136l256 -1335h-137zM1050 1693l237 -224h-164l-150 146h-12l-212 -146h-181l331 224h151zM1340 1717h-147l-194 221h166z" />
    <glyph glyph-name="Acircumflexhookabove.mini" horiz-adv-x="1363" 
d="M1050 1693l237 -224h-164l-150 146h-12l-212 -146h-181l331 224h151zM1095 1832l17 87c25 11 64 19 97 19c119 0 196 -59 196 -150c0 -82 -57 -155 -151 -188l-65 67c60 17 103 59 103 107c0 46 -37 73 -102 73c-33 0 -70 -6 -95 -15zM879 1181l-377 -624h494l-112 624
h-5zM1095 0l-78 439h-585l-266 -439h-149l823 1335h136l256 -1335h-137z" />
    <glyph glyph-name="Abreveacute.mini" horiz-adv-x="1363" 
d="M635 1740h117c3 -106 82 -171 197 -171c114 0 198 67 219 171h118c-26 -166 -159 -271 -341 -271c-186 0 -310 104 -310 271zM860 1731l265 207h170l-285 -207h-150zM879 1181l-377 -624h494l-112 624h-5zM1095 0l-78 439h-585l-266 -439h-149l823 1335h136l256 -1335
h-137z" />
    <glyph glyph-name="Abrevehookabove.mini" horiz-adv-x="1363" 
d="M635 1740h117c3 -106 82 -171 197 -171c113 0 198 66 219 171h119c-27 -166 -160 -271 -342 -271c-187 0 -310 105 -310 271zM814 1908l18 88c25 11 65 18 97 18c119 0 195 -58 195 -148c0 -87 -70 -162 -177 -190l-41 77c66 13 106 51 106 99c0 46 -38 72 -103 72
c-31 0 -68 -7 -95 -16zM879 1181l-377 -624h494l-112 624h-5zM1095 0l-78 439h-585l-266 -439h-149l823 1335h136l256 -1335h-137z" />
    <glyph glyph-name="Abrevetilde.mini" horiz-adv-x="1363" 
d="M610 1689h118c5 -63 78 -122 194 -122c117 0 197 49 215 122h118c-23 -126 -159 -220 -337 -220c-187 0 -306 116 -308 220zM1071 1737c-108 0 -158 102 -236 102c-51 0 -83 -32 -101 -90h-110c23 126 110 192 210 192c108 0 158 -102 237 -102c50 0 82 31 100 89h111
c-23 -126 -111 -191 -211 -191zM879 1181l-377 -624h494l-112 624h-5zM1095 0l-78 439h-585l-266 -439h-149l823 1335h136l256 -1335h-137z" />
    <glyph glyph-name="B" unicode="B" horiz-adv-x="1323" 
d="M700 0h-572l307 1443h480c244 0 399 -127 399 -311c0 -193 -133 -341 -332 -376l-3 -13c164 -26 267 -137 267 -292c0 -257 -222 -451 -546 -451zM547 1322l-109 -515h347c225 0 388 121 388 297c0 137 -104 218 -306 218h-320zM292 121h405c236 0 404 141 404 319
c0 157 -114 248 -331 248h-357z" />
    <glyph glyph-name="Blinebelow" unicode="&#x1e06;" horiz-adv-x="1323" 
d="M700 0h-572l307 1443h480c244 0 399 -127 399 -311c0 -193 -133 -341 -332 -376l-3 -13c164 -26 267 -137 267 -292c0 -257 -222 -451 -546 -451zM547 1322l-109 -515h347c225 0 388 121 388 297c0 137 -104 218 -306 218h-320zM292 121h405c236 0 404 141 404 319
c0 157 -114 248 -331 248h-357zM840 -307h-644l22 105h645z" />
    <glyph glyph-name="Bdotbelow" unicode="&#x1e04;" horiz-adv-x="1323" 
d="M528 -362c-58 0 -105 47 -105 105c0 57 47 104 105 104c57 0 104 -47 104 -104c0 -58 -47 -105 -104 -105zM700 0h-572l307 1443h480c244 0 399 -127 399 -311c0 -193 -133 -341 -332 -376l-3 -13c164 -26 267 -137 267 -292c0 -257 -222 -451 -546 -451zM547 1322
l-109 -515h347c225 0 388 121 388 297c0 137 -104 218 -306 218h-320zM292 121h405c236 0 404 141 404 319c0 157 -114 248 -331 248h-357z" />
    <glyph glyph-name="Bdotaccent" unicode="&#x1e02;" horiz-adv-x="1323" 
d="M894 1579c-58 0 -105 46 -105 104s47 105 105 105s105 -47 105 -105s-47 -104 -105 -104zM700 0h-572l307 1443h480c244 0 399 -127 399 -311c0 -193 -133 -341 -332 -376l-3 -13c164 -26 267 -137 267 -292c0 -257 -222 -451 -546 -451zM547 1322l-109 -515h347
c225 0 388 121 388 297c0 137 -104 218 -306 218h-320zM292 121h405c236 0 404 141 404 319c0 157 -114 248 -331 248h-357z" />
    <glyph glyph-name="C" unicode="C" horiz-adv-x="1461" 
d="M1362 990c1 4 1 9 1 15c-10 198 -173 341 -413 341c-336 0 -600 -335 -600 -764c0 -302 164 -485 432 -485c213 0 391 113 449 282h144c-73 -252 -305 -409 -608 -409c-339 0 -558 233 -558 597c0 519 322 906 751 906c314 0 541 -203 541 -465c0 -7 0 -13 -1 -18h-138z
" />
    <glyph glyph-name="Cacute" unicode="&#x106;" horiz-adv-x="1464" 
d="M914 1578l373 297h175l-389 -297h-159zM1362 990c1 4 1 9 1 15c-10 198 -173 341 -413 341c-336 0 -600 -335 -600 -764c0 -302 164 -485 432 -485c213 0 391 113 449 282h144c-73 -252 -305 -409 -608 -409c-339 0 -558 233 -558 597c0 519 322 906 751 906
c314 0 541 -203 541 -465c0 -7 0 -13 -1 -18h-138z" />
    <glyph glyph-name="Ccaron" unicode="&#x10c;" horiz-adv-x="1464" 
d="M1362 990c1 4 1 9 1 15c-10 198 -173 341 -413 341c-336 0 -600 -335 -600 -764c0 -302 164 -485 432 -485c213 0 391 113 449 282h144c-73 -252 -305 -409 -608 -409c-339 0 -558 233 -558 597c0 519 322 906 751 906c314 0 541 -203 541 -465c0 -7 0 -13 -1 -18h-138z
M923 1578l-189 297h143l126 -208h12l214 208h160l-315 -297h-151z" />
    <glyph glyph-name="Ccircumflex" unicode="&#x108;" horiz-adv-x="1464" 
d="M1362 990c1 4 1 9 1 15c-10 198 -173 341 -413 341c-336 0 -600 -335 -600 -764c0 -302 164 -485 432 -485c213 0 391 113 449 282h144c-73 -252 -305 -409 -608 -409c-339 0 -558 233 -558 597c0 519 322 906 751 906c314 0 541 -203 541 -465c0 -7 0 -13 -1 -18h-138z
M1130 1875l189 -297h-143l-126 208h-12l-214 -208h-160l315 297h151z" />
    <glyph glyph-name="Cdotaccent" unicode="&#x10a;" horiz-adv-x="1464" 
d="M1013 1578c-58 0 -105 46 -105 104s47 105 105 105s105 -47 105 -105s-47 -104 -105 -104zM1362 990c1 4 1 9 1 15c-10 198 -173 341 -413 341c-336 0 -600 -335 -600 -764c0 -302 164 -485 432 -485c213 0 391 113 449 282h144c-73 -252 -305 -409 -608 -409
c-339 0 -558 233 -558 597c0 519 322 906 751 906c314 0 541 -203 541 -465c0 -7 0 -13 -1 -18h-138z" />
    <glyph glyph-name="Ccedilla" unicode="&#xc7;" horiz-adv-x="1464" 
d="M1500 990h-138c1 4 1 9 1 15c-10 198 -173 341 -413 341c-336 0 -600 -335 -600 -764c0 -302 164 -485 432 -485c213 0 391 113 449 282h144c-69 -240 -282 -393 -564 -408l-70 -110c117 -12 180 -66 180 -155c0 -109 -97 -186 -233 -186c-56 0 -125 14 -171 37l18 87
c36 -18 103 -32 151 -32c72 0 120 34 120 87c0 52 -49 84 -136 87l-52 1l11 72l74 114c-302 28 -494 254 -494 594c0 519 322 906 751 906c314 0 541 -203 541 -465c0 -7 0 -13 -1 -18z" />
    <glyph glyph-name="Ccedillaacute" unicode="&#x1e08;" horiz-adv-x="1464" 
d="M1462 1875l-389 -297h-159l373 297h175zM1500 990h-138c1 4 1 9 1 15c-10 198 -173 341 -413 341c-336 0 -600 -335 -600 -764c0 -302 164 -485 432 -485c213 0 391 113 449 282h144c-69 -240 -282 -393 -564 -408l-70 -110c117 -12 180 -66 180 -155
c0 -109 -97 -186 -233 -186c-56 0 -125 14 -171 37l18 87c36 -18 103 -32 151 -32c72 0 120 34 120 87c0 52 -49 84 -136 87l-52 1l11 72l74 114c-302 28 -494 254 -494 594c0 519 322 906 751 906c314 0 541 -203 541 -465c0 -7 0 -13 -1 -18z" />
    <glyph glyph-name="Ccedilla.mini" horiz-adv-x="1464" 
d="M1500 990h-138c1 4 1 9 1 15c-10 198 -173 341 -413 341c-336 0 -600 -335 -600 -764c0 -302 164 -485 432 -485c213 0 391 113 449 282h144c-70 -243 -289 -398 -576 -408l-59 -92c119 -7 180 -59 180 -150c0 -99 -90 -161 -225 -161c-38 0 -104 12 -138 28l17 80
c32 -14 78 -23 117 -23c72 0 118 26 118 73s-42 75 -129 78l-61 2l10 56l69 111c-299 30 -489 255 -489 594c0 519 322 906 751 906c314 0 541 -203 541 -465c0 -7 0 -13 -1 -18z" />
    <glyph glyph-name="Ccedillaacute.mini" horiz-adv-x="1464" 
d="M1462 1875l-389 -297h-159l373 297h175zM1500 990h-138c1 4 1 9 1 15c-10 198 -173 341 -413 341c-336 0 -600 -335 -600 -764c0 -302 164 -485 432 -485c213 0 391 113 449 282h144c-70 -243 -289 -398 -576 -408l-59 -92c119 -7 180 -59 180 -150
c0 -99 -90 -161 -225 -161c-38 0 -104 12 -138 28l17 80c32 -14 78 -23 117 -23c72 0 118 26 118 73s-42 75 -129 78l-61 2l10 56l69 111c-299 30 -489 255 -489 594c0 519 322 906 751 906c314 0 541 -203 541 -465c0 -7 0 -13 -1 -18z" />
    <glyph glyph-name="D" unicode="D" horiz-adv-x="1476" 
d="M435 1443h413c383 0 608 -232 608 -607c0 -480 -336 -836 -778 -836h-549zM549 1321l-255 -1199h389c363 0 632 301 632 707c0 307 -179 492 -478 492h-288z" />
    <glyph glyph-name="Ddotaccent" unicode="&#x1e0a;" horiz-adv-x="1476" 
d="M847 1577c-58 0 -105 46 -105 104s47 105 105 105s105 -47 105 -105s-47 -104 -105 -104zM435 1443h413c383 0 608 -232 608 -607c0 -480 -336 -836 -778 -836h-549zM549 1321l-255 -1199h389c363 0 632 301 632 707c0 307 -179 492 -478 492h-288z" />
    <glyph glyph-name="Dcircumflexbelow" unicode="&#x1e12;" horiz-adv-x="1476" 
d="M435 1443h413c383 0 608 -232 608 -607c0 -480 -336 -836 -778 -836h-549zM549 1321l-255 -1199h389c363 0 632 301 632 707c0 307 -179 492 -478 492h-288zM584 -143l227 -289h-154l-148 197h-11l-232 -197h-157l351 289h124z" />
    <glyph glyph-name="Dcommaaccent" unicode="&#x1e10;" horiz-adv-x="1476" 
d="M426 -506h-128l180 364h141zM435 1443h413c383 0 608 -232 608 -607c0 -480 -336 -836 -778 -836h-549zM549 1321l-255 -1199h389c363 0 632 301 632 707c0 307 -179 492 -478 492h-288z" />
    <glyph glyph-name="Dlinebelow" unicode="&#x1e0e;" horiz-adv-x="1476" 
d="M809 -309h-644l22 105h645zM435 1443h413c383 0 608 -232 608 -607c0 -480 -336 -836 -778 -836h-549zM549 1321l-255 -1199h389c363 0 632 301 632 707c0 307 -179 492 -478 492h-288z" />
    <glyph glyph-name="Dcaron" unicode="&#x10e;" horiz-adv-x="1476" 
d="M757 1577l-189 297h143l126 -208h12l214 208h160l-315 -297h-151zM435 1443h413c383 0 608 -232 608 -607c0 -480 -336 -836 -778 -836h-549zM549 1321l-255 -1199h389c363 0 632 301 632 707c0 307 -179 492 -478 492h-288z" />
    <glyph glyph-name="Ddotbelow" unicode="&#x1e0c;" horiz-adv-x="1476" 
d="M497 -364c-58 0 -105 47 -105 105c0 57 47 104 105 104c57 0 104 -47 104 -104c0 -58 -47 -105 -104 -105zM435 1443h413c383 0 608 -232 608 -607c0 -480 -336 -836 -778 -836h-549zM549 1321l-255 -1199h389c363 0 632 301 632 707c0 307 -179 492 -478 492h-288z" />
    <glyph glyph-name="Dcroat" unicode="&#x110;" horiz-adv-x="1476" 
d="M294 122h389c363 0 632 301 632 707c0 307 -179 492 -478 492h-288l-110 -516h251l-27 -124h-250zM435 1443h413c383 0 608 -232 608 -607c0 -480 -336 -836 -778 -836h-549l144 681h-181l26 124h182z" />
    <glyph glyph-name="Dcommaaccent.mini" horiz-adv-x="1476" 
d="M440 -432h-110l144 289h136zM435 1443h413c383 0 608 -232 608 -607c0 -480 -336 -836 -778 -836h-549zM549 1321l-255 -1199h389c363 0 632 301 632 707c0 307 -179 492 -478 492h-288z" />
    <glyph glyph-name="E" unicode="E" horiz-adv-x="1196" 
d="M1026 124l-26 -124h-872l307 1443h872l-26 -124h-733l-111 -519h696l-26 -122h-696l-118 -554h733z" />
    <glyph glyph-name="Egrave" unicode="&#xc8;" horiz-adv-x="1196" 
d="M775 1874l184 -297h-141l-200 297h157zM1026 124l-26 -124h-872l307 1443h872l-26 -124h-733l-111 -519h696l-26 -122h-696l-118 -554h733z" />
    <glyph glyph-name="Edblgrave" unicode="&#x204;" horiz-adv-x="1196" 
d="M799 1577h-155l-200 297h171zM1162 1577h-155l-200 297h171zM1026 124l-26 -124h-872l307 1443h872l-26 -124h-733l-111 -519h696l-26 -122h-696l-118 -554h733z" />
    <glyph glyph-name="Eacute" unicode="&#xc9;" horiz-adv-x="1196" 
d="M823 1577l373 297h175l-389 -297h-159zM1026 124l-26 -124h-872l307 1443h872l-26 -124h-733l-111 -519h696l-26 -122h-696l-118 -554h733z" />
    <glyph glyph-name="Ecircumflex" unicode="&#xca;" horiz-adv-x="1196" 
d="M1039 1874l189 -297h-143l-126 208h-12l-214 -208h-160l315 297h151zM1026 124l-26 -124h-872l307 1443h872l-26 -124h-733l-111 -519h696l-26 -122h-696l-118 -554h733z" />
    <glyph glyph-name="Ecircumflexhookabove" unicode="&#x1ec2;" horiz-adv-x="1196" 
d="M1026 124l-26 -124h-872l307 1443h872l-26 -124h-733l-111 -519h696l-26 -122h-696l-118 -554h733zM1013 1801l237 -224h-164l-150 146h-12l-212 -146h-181l331 224h151zM1076 1937l19 93c21 9 61 16 99 16c120 0 199 -60 199 -149c0 -78 -63 -157 -151 -194l-60 71
c60 24 94 62 94 105c0 44 -36 72 -103 72c-37 0 -75 -5 -97 -14z" />
    <glyph glyph-name="Ecircumflexgrave" unicode="&#x1ec0;" horiz-adv-x="1196" 
d="M1026 124l-26 -124h-872l307 1443h872l-26 -124h-733l-111 -519h696l-26 -122h-696l-118 -554h733zM1013 1801l237 -224h-164l-150 146h-12l-212 -146h-181l331 224h151zM1302 1825h-146l-194 231h165z" />
    <glyph glyph-name="Ecircumflextilde" unicode="&#x1ec4;" horiz-adv-x="1196" 
d="M1013 1801l237 -224h-164l-150 146h-12l-212 -146h-181l331 224h151zM1062 1845c-121 0 -166 122 -244 122c-58 0 -95 -36 -114 -101h-110c23 133 121 205 224 205c121 0 166 -121 244 -121c58 0 95 35 113 100h110c-23 -133 -120 -205 -223 -205zM1026 124l-26 -124
h-872l307 1443h872l-26 -124h-733l-111 -519h696l-26 -122h-696l-118 -554h733z" />
    <glyph glyph-name="Ecircumflexdotbelow" unicode="&#x1ec6;" horiz-adv-x="1196" 
d="M509 -364c-58 0 -105 47 -105 105c0 57 47 104 105 104c57 0 104 -47 104 -104c0 -58 -47 -105 -104 -105zM1039 1874l189 -297h-143l-126 208h-12l-214 -208h-160l315 297h151zM1026 124l-26 -124h-872l307 1443h872l-26 -124h-733l-111 -519h696l-26 -122h-696
l-118 -554h733z" />
    <glyph glyph-name="Ecircumflexacute" unicode="&#x1ebe;" horiz-adv-x="1196" 
d="M1026 124l-26 -124h-872l307 1443h872l-26 -124h-733l-111 -519h696l-26 -122h-696l-118 -554h733zM1013 1801l237 -224h-164l-150 146h-12l-212 -146h-181l331 224h151zM1064 1825l268 231h167l-286 -231h-149z" />
    <glyph glyph-name="Edieresis" unicode="&#xcb;" horiz-adv-x="1196" 
d="M737 1568c-57 0 -102 45 -102 102s45 102 102 102c56 0 102 -45 102 -102s-46 -102 -102 -102zM1100 1568c-56 0 -102 45 -102 102s46 102 102 102c57 0 102 -45 102 -102s-45 -102 -102 -102zM1026 124l-26 -124h-872l307 1443h872l-26 -124h-733l-111 -519h696
l-26 -122h-696l-118 -554h733z" />
    <glyph glyph-name="Edotbelow" unicode="&#x1eb8;" horiz-adv-x="1196" 
d="M509 -364c-58 0 -105 47 -105 105c0 57 47 104 105 104c57 0 104 -47 104 -104c0 -58 -47 -105 -104 -105zM1026 124l-26 -124h-872l307 1443h872l-26 -124h-733l-111 -519h696l-26 -122h-696l-118 -554h733z" />
    <glyph glyph-name="Einvertedbreve" unicode="&#x206;" horiz-adv-x="1196" 
d="M1026 124l-26 -124h-872l307 1443h872l-26 -124h-733l-111 -519h696l-26 -122h-696l-118 -554h733zM1258 1590c0 -5 -1 -10 -1 -13h-116c0 4 1 10 1 14c0 93 -84 159 -199 159s-199 -68 -220 -173h-118c26 166 164 274 342 274c186 0 311 -107 311 -261z" />
    <glyph glyph-name="Ehookabove" unicode="&#x1eba;" horiz-adv-x="1196" 
d="M1026 124l-26 -124h-872l307 1443h872l-26 -124h-733l-111 -519h696l-26 -122h-696l-118 -554h733zM793 1788l19 92c21 9 62 17 99 17c120 0 199 -59 199 -149c0 -94 -79 -178 -195 -209l-42 83c76 19 120 60 120 112c0 43 -36 68 -103 68c-37 0 -74 -6 -97 -14z" />
    <glyph glyph-name="Ecaron" unicode="&#x11a;" horiz-adv-x="1196" 
d="M832 1577l-189 297h143l126 -208h12l214 208h160l-315 -297h-151zM1026 124l-26 -124h-872l307 1443h872l-26 -124h-733l-111 -519h696l-26 -122h-696l-118 -554h733z" />
    <glyph glyph-name="Emacron" unicode="&#x112;" horiz-adv-x="1196" 
d="M1026 124l-26 -124h-872l307 1443h872l-26 -124h-733l-111 -519h696l-26 -122h-696l-118 -554h733zM1230 1619h-644l22 105h645z" />
    <glyph glyph-name="Emacrongrave" unicode="&#x1e14;" horiz-adv-x="1196" 
d="M1230 1619h-644l22 101h644zM1041 1839h-147l-197 217h167zM1026 124l-26 -124h-872l307 1443h872l-26 -124h-733l-111 -519h696l-26 -122h-696l-118 -554h733z" />
    <glyph glyph-name="Emacronacute" unicode="&#x1e16;" horiz-adv-x="1196" 
d="M1230 1619h-644l22 101h644zM871 1839l265 217h169l-284 -217h-150zM1026 124l-26 -124h-872l307 1443h872l-26 -124h-733l-111 -519h696l-26 -122h-696l-118 -554h733z" />
    <glyph glyph-name="Etilde" unicode="&#x1ebc;" horiz-adv-x="1196" 
d="M1026 124l-26 -124h-872l307 1443h872l-26 -124h-733l-111 -519h696l-26 -122h-696l-118 -554h733zM1070 1578c-155 0 -192 162 -285 162c-61 0 -106 -46 -123 -127h-110c25 145 122 231 236 231c153 0 192 -161 284 -161c62 0 105 44 123 126h110
c-27 -147 -122 -231 -235 -231z" />
    <glyph glyph-name="Ecircumflexbelow" unicode="&#x1e18;" horiz-adv-x="1196" 
d="M1026 124l-26 -124h-872l307 1443h872l-26 -124h-733l-111 -519h696l-26 -122h-696l-118 -554h733zM596 -143l227 -289h-154l-148 197h-11l-232 -197h-157l351 289h124z" />
    <glyph glyph-name="Ebreve" unicode="&#x114;" horiz-adv-x="1196" 
d="M1026 124l-26 -124h-872l307 1443h872l-26 -124h-733l-111 -519h696l-26 -122h-696l-118 -554h733zM599 1837v14h116v-15c0 -92 83 -159 198 -159s199 68 220 174h118c-26 -167 -164 -274 -342 -274c-185 0 -310 106 -310 260z" />
    <glyph glyph-name="Etildebelow" unicode="&#x1e1a;" horiz-adv-x="1196" 
d="M652 -403c-161 0 -187 167 -290 167c-55 0 -103 -42 -115 -136h-111c20 157 114 241 228 241c160 0 187 -167 290 -167c55 0 103 42 115 136h111c-20 -158 -114 -241 -228 -241zM1026 124l-26 -124h-872l307 1443h872l-26 -124h-733l-111 -519h696l-26 -122h-696
l-118 -554h733z" />
    <glyph glyph-name="Edotaccent" unicode="&#x116;" horiz-adv-x="1196" 
d="M922 1577c-58 0 -105 46 -105 104s47 105 105 105s105 -47 105 -105s-47 -104 -105 -104zM1026 124l-26 -124h-872l307 1443h872l-26 -124h-733l-111 -519h696l-26 -122h-696l-118 -554h733z" />
    <glyph glyph-name="Ecedilla" unicode="&#x228;" horiz-adv-x="1196" 
d="M1281 1319h-733l-111 -519h696l-26 -122h-696l-118 -554h733l-26 -124h-379l-89 -139c117 -12 180 -66 180 -155c0 -109 -97 -186 -233 -186c-56 0 -125 14 -171 37l18 87c36 -18 103 -32 151 -32c72 0 120 34 120 87c0 52 -49 84 -136 87l-52 1l11 72l91 141h-383
l307 1443h872z" />
    <glyph glyph-name="Ecedillabreve" unicode="&#x1e1c;" horiz-adv-x="1196" 
d="M1133 1851h118c-26 -167 -164 -274 -342 -274c-185 0 -310 106 -310 260v14h116v-15c0 -92 83 -159 198 -159s199 68 220 174zM1281 1319h-733l-111 -519h696l-26 -122h-696l-118 -554h733l-26 -124h-379l-89 -139c117 -12 180 -66 180 -155c0 -109 -97 -186 -233 -186
c-56 0 -125 14 -171 37l18 87c36 -18 103 -32 151 -32c72 0 120 34 120 87c0 52 -49 84 -136 87l-52 1l11 72l91 141h-383l307 1443h872z" />
    <glyph glyph-name="Eogonek" unicode="&#x118;" horiz-adv-x="1196" 
d="M788 -12l2 12h-662l307 1443h872l-26 -124h-733l-111 -519h696l-26 -122h-696l-118 -554h733l-26 -124l-35 -10c-145 -42 -237 -113 -237 -199c0 -60 52 -98 135 -98c17 0 30 1 39 3l-22 -103c-17 -5 -41 -9 -65 -9c-130 0 -222 74 -222 179c0 99 76 181 195 225z" />
    <glyph glyph-name="Eogonek.mini" horiz-adv-x="1196" 
d="M790 0h-662l307 1443h872l-26 -124h-733l-111 -519h696l-26 -122h-696l-118 -554h733l-26 -124l-35 -10c-146 -39 -237 -113 -237 -199c0 -60 52 -98 135 -98c17 0 30 1 39 3l-22 -103c-17 -5 -41 -9 -65 -9c-130 0 -222 74 -222 179c0 99 76 181 195 225z" />
    <glyph glyph-name="Ecedillabreve.mini" horiz-adv-x="1196" 
d="M1133 1851h118c-26 -167 -164 -274 -342 -274c-185 0 -310 106 -310 260v14h116v-15c0 -92 83 -159 198 -159s199 68 220 174zM1281 1319h-733l-111 -519h696l-26 -122h-696l-118 -554h733l-26 -124h-391l-78 -121c119 -7 180 -59 180 -150c0 -99 -90 -161 -225 -161
c-38 0 -104 12 -138 28l17 80c32 -14 78 -23 117 -23c72 0 118 26 118 73s-42 75 -129 78l-61 2l10 56l86 138h-378l307 1443h872z" />
    <glyph glyph-name="Ecedilla.mini" horiz-adv-x="1196" 
d="M1281 1319h-733l-111 -519h696l-26 -122h-696l-118 -554h733l-26 -124h-391l-78 -121c119 -7 180 -59 180 -150c0 -99 -90 -161 -225 -161c-38 0 -104 12 -138 28l17 80c32 -14 78 -23 117 -23c72 0 118 26 118 73s-42 75 -129 78l-61 2l10 56l86 138h-378l307 1443h872z
" />
    <glyph glyph-name="E.mini" horiz-adv-x="1197" 
d="M1026 124l-26 -124h-872l284 1335h871l-26 -124h-734l-100 -465h698l-25 -122h-699l-106 -500h735z" />
    <glyph glyph-name="Emacronacute.mini" horiz-adv-x="1197" 
d="M1026 124l-26 -124h-872l284 1335h871l-26 -124h-734l-100 -465h698l-25 -122h-699l-106 -500h735zM1207 1511h-644l22 101h644zM842 1731l265 207h170l-284 -207h-151z" />
    <glyph glyph-name="Ecircumflexhookabove.mini" horiz-adv-x="1197" 
d="M990 1693l237 -224h-164l-150 146h-12l-212 -146h-181l331 224h151zM1035 1832l17 87c25 11 64 19 97 19c119 0 196 -59 196 -150c0 -82 -57 -155 -151 -188l-65 67c60 17 103 59 103 107c0 46 -37 73 -102 73c-33 0 -70 -6 -95 -15zM1026 124l-26 -124h-872l284 1335
h871l-26 -124h-734l-100 -465h698l-25 -122h-699l-106 -500h735z" />
    <glyph glyph-name="Emacrongrave.mini" horiz-adv-x="1197" 
d="M1026 124l-26 -124h-872l284 1335h871l-26 -124h-734l-100 -465h698l-25 -122h-699l-106 -500h735zM1207 1511h-644l22 101h644zM1019 1731h-148l-197 207h167z" />
    <glyph glyph-name="Ecircumflexacute.mini" horiz-adv-x="1197" 
d="M990 1693l237 -224h-164l-150 146h-12l-212 -146h-181l331 224h151zM1041 1717l267 221h168l-286 -221h-149zM1026 124l-26 -124h-872l284 1335h871l-26 -124h-734l-100 -465h698l-25 -122h-699l-106 -500h735z" />
    <glyph glyph-name="Ecircumflexgrave.mini" horiz-adv-x="1197" 
d="M1026 124l-26 -124h-872l284 1335h871l-26 -124h-734l-100 -465h698l-25 -122h-699l-106 -500h735zM990 1693l237 -224h-164l-150 146h-12l-212 -146h-181l331 224h151zM1280 1717h-147l-194 221h166z" />
    <glyph glyph-name="Ecircumflextilde.mini" horiz-adv-x="1197" 
d="M1026 124l-26 -124h-872l284 1335h871l-26 -124h-734l-100 -465h698l-25 -122h-699l-106 -500h735zM990 1693l237 -224h-164l-150 146h-12l-212 -146h-181l331 224h151zM1073 1737c-107 0 -157 102 -236 102c-51 0 -82 -32 -101 -90h-110c23 126 111 192 211 192
c108 0 158 -102 236 -102c51 0 83 31 101 89h110c-23 -126 -111 -191 -211 -191z" />
    <glyph glyph-name="F" unicode="F" horiz-adv-x="1153" 
d="M268 0h-140l307 1443h857l-26 -124h-718l-116 -542h660l-27 -122h-659z" />
    <glyph glyph-name="Fdotaccent" unicode="&#x1e1e;" horiz-adv-x="1153" 
d="M914 1577c-58 0 -105 46 -105 104s47 105 105 105s105 -47 105 -105s-47 -104 -105 -104zM268 0h-140l307 1443h857l-26 -124h-718l-116 -542h660l-27 -122h-659z" />
    <glyph glyph-name="G" unicode="G" horiz-adv-x="1505" 
d="M1471 721l-40 -192c-74 -360 -308 -559 -652 -559s-569 239 -569 606c0 516 319 897 748 897c300 0 523 -186 536 -438v-28h-138c-10 199 -171 339 -407 339c-337 0 -597 -329 -597 -756c0 -307 169 -493 445 -493c249 0 442 165 493 422l16 81h-435l26 121h574z" />
    <glyph glyph-name="Gacute" unicode="&#x1f4;" horiz-adv-x="1507" 
d="M901 1577l373 297h175l-389 -297h-159zM1471 721l-40 -192c-74 -360 -308 -559 -652 -559s-569 239 -569 606c0 516 319 897 748 897c300 0 523 -186 536 -438v-28h-138c-10 199 -171 339 -407 339c-337 0 -597 -329 -597 -756c0 -307 169 -493 445 -493
c249 0 442 165 493 422l16 81h-435l26 121h574z" />
    <glyph glyph-name="Gcaron" unicode="&#x1e6;" horiz-adv-x="1507" 
d="M910 1577l-189 297h143l126 -208h12l214 208h160l-315 -297h-151zM1471 721l-40 -192c-74 -360 -308 -559 -652 -559s-569 239 -569 606c0 516 319 897 748 897c300 0 523 -186 536 -438v-28h-138c-10 199 -171 339 -407 339c-337 0 -597 -329 -597 -756
c0 -307 169 -493 445 -493c249 0 442 165 493 422l16 81h-435l26 121h574z" />
    <glyph glyph-name="Gcircumflex" unicode="&#x11c;" horiz-adv-x="1507" 
d="M1117 1874l189 -297h-143l-126 208h-12l-214 -208h-160l315 297h151zM1471 721l-40 -192c-74 -360 -308 -559 -652 -559s-569 239 -569 606c0 516 319 897 748 897c300 0 523 -186 536 -438v-28h-138c-10 199 -171 339 -407 339c-337 0 -597 -329 -597 -756
c0 -307 169 -493 445 -493c249 0 442 165 493 422l16 81h-435l26 121h574z" />
    <glyph glyph-name="Gbreve" unicode="&#x11e;" horiz-adv-x="1507" 
d="M1471 721l-40 -192c-74 -360 -308 -559 -652 -559s-569 239 -569 606c0 516 319 897 748 897c300 0 523 -186 536 -438v-28h-138c-10 199 -171 339 -407 339c-337 0 -597 -329 -597 -756c0 -307 169 -493 445 -493c249 0 442 165 493 422l16 81h-435l26 121h574z
M677 1837v14h116v-15c0 -92 83 -159 198 -159s199 68 220 174h118c-26 -167 -164 -274 -342 -274c-185 0 -310 106 -310 260z" />
    <glyph glyph-name="Gmacron" unicode="&#x1e20;" horiz-adv-x="1507" 
d="M1471 721l-40 -192c-74 -360 -308 -559 -652 -559s-569 239 -569 606c0 516 319 897 748 897c300 0 523 -186 536 -438v-28h-138c-10 199 -171 339 -407 339c-337 0 -597 -329 -597 -756c0 -307 169 -493 445 -493c249 0 442 165 493 422l16 81h-435l26 121h574z
M1309 1619h-644l22 105h645z" />
    <glyph glyph-name="Gdotaccent" unicode="&#x120;" horiz-adv-x="1507" 
d="M1000 1577c-58 0 -105 46 -105 104s47 105 105 105s105 -47 105 -105s-47 -104 -105 -104zM1471 721l-40 -192c-74 -360 -308 -559 -652 -559s-569 239 -569 606c0 516 319 897 748 897c300 0 523 -186 536 -438v-28h-138c-10 199 -171 339 -407 339
c-337 0 -597 -329 -597 -756c0 -307 169 -493 445 -493c249 0 442 165 493 422l16 81h-435l26 121h574z" />
    <glyph glyph-name="Gcommaaccent" unicode="&#x122;" horiz-adv-x="1507" 
d="M663 -506h-128l180 364h141zM1471 721l-40 -192c-74 -360 -308 -559 -652 -559s-569 239 -569 606c0 516 319 897 748 897c300 0 523 -186 536 -438v-28h-138c-10 199 -171 339 -407 339c-337 0 -597 -329 -597 -756c0 -307 169 -493 445 -493c249 0 442 165 493 422
l16 81h-435l26 121h574z" />
    <glyph glyph-name="Gcommaaccent.mini" horiz-adv-x="1507" 
d="M677 -432h-110l144 289h136zM1471 721l-40 -192c-74 -360 -308 -559 -652 -559s-569 239 -569 606c0 516 319 897 748 897c300 0 523 -186 536 -438v-28h-138c-10 199 -171 339 -407 339c-337 0 -597 -329 -597 -756c0 -307 169 -493 445 -493c249 0 442 165 493 422
l16 81h-435l26 121h574z" />
    <glyph glyph-name="H" unicode="H" horiz-adv-x="1489" 
d="M1248 0h-140l144 677h-841l-145 -677h-138l307 1443h139l-137 -642h842l136 642h140z" />
    <glyph glyph-name="Hdieresis" unicode="&#x1e26;" horiz-adv-x="1489" 
d="M1248 0h-140l144 677h-841l-145 -677h-138l307 1443h139l-137 -642h842l136 642h140zM861 1568c-57 0 -102 45 -102 102s45 102 102 102c56 0 102 -45 102 -102s-46 -102 -102 -102zM1224 1568c-56 0 -102 45 -102 102s46 102 102 102c57 0 102 -45 102 -102
s-45 -102 -102 -102z" />
    <glyph glyph-name="Hcaron" unicode="&#x21e;" horiz-adv-x="1489" 
d="M1248 0h-140l144 677h-841l-145 -677h-138l307 1443h139l-137 -642h842l136 642h140zM956 1577l-189 297h143l126 -208h12l214 208h160l-315 -297h-151z" />
    <glyph glyph-name="Hcircumflex" unicode="&#x124;" horiz-adv-x="1489" 
d="M1248 0h-140l144 677h-841l-145 -677h-138l307 1443h139l-137 -642h842l136 642h140zM1163 1874l189 -297h-143l-126 208h-12l-214 -208h-160l315 297h151z" />
    <glyph glyph-name="Hdotbelow" unicode="&#x1e24;" horiz-adv-x="1489" 
d="M1248 0h-140l144 677h-841l-145 -677h-138l307 1443h139l-137 -642h842l136 642h140zM632 -364c-58 0 -105 47 -105 105c0 57 47 104 105 104c57 0 104 -47 104 -104c0 -58 -47 -105 -104 -105z" />
    <glyph glyph-name="Hdotaccent" unicode="&#x1e22;" horiz-adv-x="1489" 
d="M1248 0h-140l144 677h-841l-145 -677h-138l307 1443h139l-137 -642h842l136 642h140zM1046 1577c-58 0 -105 46 -105 104s47 105 105 105s105 -47 105 -105s-47 -104 -105 -104z" />
    <glyph glyph-name="Hbrevebelow" unicode="&#x1e2a;" horiz-adv-x="1489" 
d="M826 -131h119c-26 -167 -164 -274 -342 -274c-185 0 -310 106 -310 260v14h117c4 -103 76 -173 197 -173c115 0 199 67 219 173zM1248 0h-140l144 677h-841l-145 -677h-138l307 1443h139l-137 -642h842l136 642h140z" />
    <glyph glyph-name="Hcedilla" unicode="&#x1e28;" horiz-adv-x="1489" 
d="M1415 1443h140l-307 -1443h-140l144 677h-841l-139 -647h1l-1 -1l-6 -29h-12l-89 -139c117 -12 180 -66 180 -155c0 -109 -97 -186 -233 -186c-56 0 -125 14 -171 37l18 87c36 -18 103 -32 151 -32c72 0 120 34 120 87c0 52 -49 84 -136 87l-52 1l11 72l91 141h-16
l307 1443h139l-137 -642h842z" />
    <glyph glyph-name="Hbar" unicode="&#x126;" horiz-adv-x="1489" 
d="M1280 801l62 294h-841l-63 -294h842zM1647 1206l-23 -111h-142l-233 -1095h-140l144 677h-841l-145 -677h-138l233 1095h-145l23 111h146l50 237h139l-51 -237h842l50 237h140l-50 -237h141z" />
    <glyph glyph-name="Hcedilla.mini" horiz-adv-x="1489" 
d="M1415 1443h140l-307 -1443h-140l144 677h-841l-145 -677h-24l-78 -121c119 -7 180 -59 180 -150c0 -99 -90 -161 -225 -161c-38 0 -104 12 -138 28l17 80c32 -14 78 -23 117 -23c72 0 118 26 118 73s-42 75 -129 78l-61 2l10 56l86 138h-11l307 1443h139l-137 -642h842z
" />
    <glyph glyph-name="I" unicode="I" horiz-adv-x="508" 
d="M267 0h-139l307 1443h139z" />
    <glyph glyph-name="Idotaccent" unicode="&#x130;" horiz-adv-x="508" 
d="M267 0h-139l307 1443h139zM555 1577c-58 0 -105 46 -105 104s47 105 105 105s105 -47 105 -105s-47 -104 -105 -104z" />
    <glyph glyph-name="Igrave" unicode="&#xcc;" horiz-adv-x="508" 
d="M267 0h-139l307 1443h139zM409 1874l184 -297h-141l-200 297h157z" />
    <glyph glyph-name="Idblgrave" unicode="&#x208;" horiz-adv-x="508" 
d="M267 0h-139l307 1443h139zM433 1577h-155l-200 297h171zM796 1577h-155l-200 297h171z" />
    <glyph glyph-name="Iacute" unicode="&#xcd;" horiz-adv-x="508" 
d="M267 0h-139l307 1443h139zM457 1577l373 297h175l-389 -297h-159z" />
    <glyph glyph-name="Icircumflex" unicode="&#xce;" horiz-adv-x="508" 
d="M267 0h-139l307 1443h139zM673 1874l189 -297h-143l-126 208h-12l-214 -208h-160l315 297h151z" />
    <glyph glyph-name="Icaron" unicode="&#x1cf;" horiz-adv-x="508" 
d="M267 0h-139l307 1443h139zM466 1577l-189 297h143l126 -208h12l214 208h160l-315 -297h-151z" />
    <glyph glyph-name="Idieresis" unicode="&#xcf;" horiz-adv-x="508" 
d="M267 0h-139l307 1443h139zM371 1568c-57 0 -102 45 -102 102s45 102 102 102c56 0 102 -45 102 -102s-46 -102 -102 -102zM734 1568c-56 0 -102 45 -102 102s46 102 102 102c57 0 102 -45 102 -102s-45 -102 -102 -102z" />
    <glyph glyph-name="Idieresisacute" unicode="&#x1e2e;" horiz-adv-x="508" 
d="M267 0h-139l307 1443h139zM484 1839l272 217h175l-307 -217h-140zM364 1568c-57 0 -102 45 -102 102s45 102 102 102c56 0 102 -45 102 -102s-46 -102 -102 -102zM727 1568c-56 0 -102 45 -102 102s46 102 102 102c57 0 102 -45 102 -102s-45 -102 -102 -102z" />
    <glyph glyph-name="Ibreve" unicode="&#x12c;" horiz-adv-x="508" 
d="M267 0h-139l307 1443h139zM233 1837v14h116v-15c0 -92 83 -159 198 -159s199 68 220 174h118c-26 -167 -164 -274 -342 -274c-185 0 -310 106 -310 260z" />
    <glyph glyph-name="Idotbelow" unicode="&#x1eca;" horiz-adv-x="508" 
d="M267 0h-139l307 1443h139zM142 -364c-58 0 -105 47 -105 105c0 57 47 104 105 104c57 0 104 -47 104 -104c0 -58 -47 -105 -104 -105z" />
    <glyph glyph-name="Iinvertedbreve" unicode="&#x20a;" horiz-adv-x="508" 
d="M267 0h-139l307 1443h139zM892 1590c0 -5 -1 -10 -1 -13h-116c0 4 1 10 1 14c0 93 -84 159 -199 159s-199 -68 -220 -173h-118c26 166 164 274 342 274c186 0 311 -107 311 -261z" />
    <glyph glyph-name="Imacron" unicode="&#x12a;" horiz-adv-x="508" 
d="M267 0h-139l307 1443h139zM864 1619h-644l22 105h645z" />
    <glyph glyph-name="Itildebelow" unicode="&#x1e2c;" horiz-adv-x="508" 
d="M267 0h-139l307 1443h139zM285 -403c-161 0 -187 167 -290 167c-55 0 -103 -42 -115 -136h-111c20 157 114 241 228 241c160 0 187 -167 290 -167c55 0 103 42 115 136h111c-20 -158 -114 -241 -228 -241z" />
    <glyph glyph-name="Ihookabove" unicode="&#x1ec8;" horiz-adv-x="508" 
d="M267 0h-139l307 1443h139zM426 1788l19 92c21 9 62 17 99 17c120 0 199 -59 199 -149c0 -94 -79 -178 -195 -209l-42 83c76 19 120 60 120 112c0 43 -36 68 -103 68c-37 0 -74 -6 -97 -14z" />
    <glyph glyph-name="Itilde" unicode="&#x128;" horiz-adv-x="508" 
d="M267 0h-139l307 1443h139zM704 1578c-155 0 -192 162 -285 162c-61 0 -106 -46 -123 -127h-110c25 145 122 231 236 231c153 0 192 -161 284 -161c62 0 105 44 123 126h110c-27 -147 -122 -231 -235 -231z" />
    <glyph glyph-name="Iogonek" unicode="&#x12e;" horiz-adv-x="508" 
d="M210 -407c-17 -5 -41 -9 -66 -9c-130 0 -221 75 -221 179c0 97 75 198 206 242l306 1438h139l-308 -1449l-8 -2c-139 -50 -200 -122 -200 -201c0 -60 51 -98 135 -98c17 0 30 1 39 3z" />
    <glyph glyph-name="Iogonek.mini" horiz-adv-x="508" 
d="M129 5l306 1438h139l-308 -1449l-8 -2c-139 -50 -200 -122 -200 -201c0 -60 51 -98 135 -98c17 0 30 1 39 3l-22 -103c-17 -5 -41 -9 -66 -9c-130 0 -221 75 -221 179c0 97 75 198 206 242z" />
    <glyph glyph-name="I.mini" horiz-adv-x="506" 
d="M264 0h-136l283 1335h137z" />
    <glyph glyph-name="Idieresisacute.mini" horiz-adv-x="506" 
d="M458 1731l271 217h176l-308 -217h-139zM348 1469c-57 0 -102 45 -102 102c0 56 45 102 102 102c56 0 102 -46 102 -102c0 -57 -46 -102 -102 -102zM712 1469c-57 0 -103 45 -103 102c0 56 46 102 103 102c56 0 102 -46 102 -102c0 -57 -46 -102 -102 -102zM264 0h-136
l283 1335h137z" />
    <glyph glyph-name="I.1" horiz-adv-x="989" 
d="M1075 1325h-286l-257 -1207h287l-26 -118h-286h-139h-286l25 118h286l257 1207h-286l25 118h286h139h286z" />
    <glyph glyph-name="Idotaccent.1" horiz-adv-x="989" 
d="M777 1577c-58 0 -105 46 -105 104s47 105 105 105s105 -47 105 -105s-47 -104 -105 -104zM1075 1325h-286l-257 -1207h287l-26 -118h-286h-139h-286l25 118h286l257 1207h-286l25 118h286h139h286z" />
    <glyph glyph-name="Igrave.1" horiz-adv-x="989" 
d="M844 1577h-141l-200 297h157zM1075 1325h-286l-257 -1207h287l-26 -118h-286h-139h-286l25 118h286l257 1207h-286l25 118h286h139h286z" />
    <glyph glyph-name="Idblgrave.1" horiz-adv-x="989" 
d="M990 1577h-155l-200 297h171zM627 1577h-155l-200 297h171zM1075 1325h-286l-257 -1207h287l-26 -118h-286h-139h-286l25 118h286l257 1207h-286l25 118h286h139h286z" />
    <glyph glyph-name="Iacute.1" horiz-adv-x="989" 
d="M1166 1874l-389 -297h-159l373 297h175zM675 1443h139h286l-25 -118h-286l-257 -1207h287l-26 -118h-286h-139h-286l25 118h286l257 1207h-286l25 118h286z" />
    <glyph glyph-name="Icircumflex.1" horiz-adv-x="989" 
d="M780 1785l-214 -208h-160l315 297h151l189 -297h-143l-126 208h-12zM1075 1325h-286l-257 -1207h287l-26 -118h-286h-139h-286l25 118h286l257 1207h-286l25 118h286h139h286z" />
    <glyph glyph-name="Icaron.1" horiz-adv-x="989" 
d="M826 1577h-151l-189 297h143l126 -208h12l214 208h160zM675 1443h139h286l-25 -118h-286l-257 -1207h287l-26 -118h-286h-139h-286l25 118h286l257 1207h-286l25 118h286z" />
    <glyph glyph-name="Idieresis.1" horiz-adv-x="989" 
d="M943 1568c-56 0 -102 45 -102 102s46 102 102 102c57 0 102 -45 102 -102s-45 -102 -102 -102zM580 1568c-57 0 -102 45 -102 102s45 102 102 102c56 0 102 -45 102 -102s-46 -102 -102 -102zM1075 1325h-286l-257 -1207h287l-26 -118h-286h-139h-286l25 118h286
l257 1207h-286l25 118h286h139h286z" />
    <glyph glyph-name="Idieresisacute.1" horiz-adv-x="989" 
d="M1146 2056l-307 -217h-140l272 217h175zM840 1670c0 57 46 102 102 102c57 0 102 -45 102 -102s-45 -102 -102 -102c-56 0 -102 45 -102 102zM579 1568c-57 0 -102 45 -102 102s45 102 102 102c56 0 102 -45 102 -102s-46 -102 -102 -102zM675 1443h139h286l-25 -118
h-286l-257 -1207h287l-26 -118h-286h-139h-286l25 118h286l257 1207h-286l25 118h286z" />
    <glyph glyph-name="Ibreve.1" horiz-adv-x="989" 
d="M989 1851h118c-26 -167 -164 -274 -342 -274c-185 0 -310 106 -310 260v14h116v-15c0 -92 83 -159 198 -159s199 68 220 174zM675 1443h139h286l-25 -118h-286l-257 -1207h287l-26 -118h-286h-139h-286l25 118h286l257 1207h-286l25 118h286z" />
    <glyph glyph-name="Idotbelow.1" horiz-adv-x="989" 
d="M365 -155c57 0 104 -47 104 -104c0 -58 -47 -105 -104 -105c-58 0 -105 47 -105 105c0 57 47 104 105 104zM1075 1325h-286l-257 -1207h287l-26 -118h-286h-139h-286l25 118h286l257 1207h-286l25 118h286h139h286z" />
    <glyph glyph-name="Iinvertedbreve.1" horiz-adv-x="989" 
d="M1078 1577h-116c0 4 1 10 1 14c0 93 -84 159 -199 159s-199 -68 -220 -173h-118c26 166 164 274 342 274c186 0 311 -107 311 -261c0 -5 -1 -10 -1 -13zM1075 1325h-286l-257 -1207h287l-26 -118h-286h-139h-286l25 118h286l257 1207h-286l25 118h286h139h286z" />
    <glyph glyph-name="Imacron.1" horiz-adv-x="989" 
d="M1095 1724l-23 -105h-644l22 105h645zM1075 1325h-286l-257 -1207h287l-26 -118h-286h-139h-286l25 118h286l257 1207h-286l25 118h286h139h286z" />
    <glyph glyph-name="Itildebelow.1" horiz-adv-x="989" 
d="M95 -372h-111c20 157 114 241 228 241c160 0 187 -167 290 -167c55 0 103 42 115 136h111c-20 -158 -114 -241 -228 -241c-161 0 -187 167 -290 167c-55 0 -103 -42 -115 -136zM1075 1325h-286l-257 -1207h287l-26 -118h-286h-139h-286l25 118h286l257 1207h-286l25 118
h286h139h286z" />
    <glyph glyph-name="Ihookabove.1" horiz-adv-x="989" 
d="M745 1537l-42 83c76 19 120 60 120 112c0 43 -36 68 -103 68c-37 0 -74 -6 -97 -14l19 92c21 9 62 17 99 17c120 0 199 -59 199 -149c0 -94 -79 -178 -195 -209zM1075 1325h-286l-257 -1207h287l-26 -118h-286h-139h-286l25 118h286l257 1207h-286l25 118h286h139h286z
" />
    <glyph glyph-name="Itilde.1" horiz-adv-x="989" 
d="M1053 1809h110c-27 -147 -122 -231 -235 -231c-155 0 -192 162 -285 162c-61 0 -106 -46 -123 -127h-110c25 145 122 231 236 231c153 0 192 -161 284 -161c62 0 105 44 123 126zM675 1443h139h286l-25 -118h-286l-257 -1207h287l-26 -118h-286h-139h-286l25 118h286
l257 1207h-286l25 118h286z" />
    <glyph glyph-name="Iogonek.1" horiz-adv-x="989" 
d="M1075 1325h-286l-257 -1207h287l-26 -118h-26l-35 -10c-145 -41 -237 -113 -237 -199c0 -60 52 -98 136 -98c16 0 29 1 39 3l-23 -103c-16 -5 -41 -9 -65 -9c-129 0 -222 74 -222 179c0 99 77 181 195 225l3 12h-51h-139h-286l25 118h286l257 1207h-286l25 118h286h139
h286z" />
    <glyph glyph-name="Iogonek.mini.1" horiz-adv-x="989" 
d="M1075 1325h-286l-257 -1207h287l-26 -118h-25l-32 -9c-147 -39 -239 -115 -239 -200c0 -60 51 -98 135 -98c17 0 30 1 39 3l-22 -103c-17 -5 -41 -9 -66 -9c-130 0 -221 75 -221 179c0 97 73 180 195 225l2 12h-52h-139h-286l25 118h286l257 1207h-286l25 118h286h139
h286z" />
    <glyph glyph-name="I.mini.1" horiz-adv-x="989" 
d="M1047 1195h-287l-229 -1077h287l-25 -118h-287h-136h-288l25 118h288l229 1077h-288l26 118h710z" />
    <glyph glyph-name="Idieresisacute.mini.1" horiz-adv-x="989" 
d="M1126 1926l-308 -217h-139l271 217h176zM830 1549c0 56 46 102 103 102c56 0 102 -46 102 -102c0 -57 -46 -102 -102 -102c-57 0 -103 45 -103 102zM569 1447c-57 0 -102 45 -102 102c0 56 45 102 102 102c56 0 102 -46 102 -102c0 -57 -46 -102 -102 -102zM336 1195
l26 118h710l-25 -118h-287l-229 -1077h287l-25 -118h-287h-136h-288l25 118h288l229 1077h-288z" />
    <glyph glyph-name="J" unicode="J" horiz-adv-x="1091" 
d="M108 330h138v-6c2 -137 101 -226 252 -226c154 0 257 100 297 290l224 1055h136l-230 -1090c-51 -242 -208 -383 -444 -383c-224 0 -383 150 -373 353v7z" />
    <glyph glyph-name="Jcircumflex" unicode="&#x134;" horiz-adv-x="1091" 
d="M108 330h138v-6c2 -137 101 -226 252 -226c154 0 257 100 297 290l224 1055h136l-230 -1090c-51 -242 -208 -383 -444 -383c-224 0 -383 150 -373 353v7zM1255 1874l189 -297h-143l-126 208h-12l-214 -208h-160l315 297h151z" />
    <glyph glyph-name="K" unicode="K" horiz-adv-x="1311" 
d="M264 0h-136l307 1443h136l-158 -743h12l832 743h180l-706 -631l459 -812h-159l-407 728l-251 -221z" />
    <glyph glyph-name="Kacute" unicode="&#x1e30;" horiz-adv-x="1311" 
d="M820 1577l373 297h175l-389 -297h-159zM264 0h-136l307 1443h136l-158 -743h12l832 743h180l-706 -631l459 -812h-159l-407 728l-251 -221z" />
    <glyph glyph-name="Kcaron" unicode="&#x1e8;" horiz-adv-x="1311" 
d="M264 0h-136l307 1443h136l-158 -743h12l832 743h180l-706 -631l459 -812h-159l-407 728l-251 -221zM829 1577l-189 297h143l126 -208h12l214 208h160l-315 -297h-151z" />
    <glyph glyph-name="Kdotbelow" unicode="&#x1e32;" horiz-adv-x="1311" 
d="M573 -364c-58 0 -105 47 -105 105c0 57 47 104 105 104c57 0 104 -47 104 -104c0 -58 -47 -105 -104 -105zM264 0h-136l307 1443h136l-158 -743h12l832 743h180l-706 -631l459 -812h-159l-407 728l-251 -221z" />
    <glyph glyph-name="Klinebelow" unicode="&#x1e34;" horiz-adv-x="1311" 
d="M264 0h-136l307 1443h136l-158 -743h12l832 743h180l-706 -631l459 -812h-159l-407 728l-251 -221zM885 -309h-644l22 105h645z" />
    <glyph glyph-name="Kcommaaccent" unicode="&#x136;" horiz-adv-x="1311" 
d="M264 0h-136l307 1443h136l-158 -743h12l832 743h180l-706 -631l459 -812h-159l-407 728l-251 -221zM502 -506h-128l180 364h141z" />
    <glyph glyph-name="Kcommaaccent.mini" horiz-adv-x="1311" 
d="M264 0h-136l307 1443h136l-158 -743h12l832 743h180l-706 -631l459 -812h-159l-407 728l-251 -221zM516 -432h-110l144 289h136z" />
    <glyph glyph-name="L" unicode="L" horiz-adv-x="1139" 
d="M1014 124l-26 -124h-860l307 1443h139l-281 -1319h721z" />
    <glyph glyph-name="Lacute" unicode="&#x139;" horiz-adv-x="1139" 
d="M456 1577l373 297h175l-389 -297h-159zM1014 124l-26 -124h-860l307 1443h139l-281 -1319h721z" />
    <glyph glyph-name="Lcircumflexbelow" unicode="&#x1e3c;" horiz-adv-x="1139" 
d="M1014 124l-26 -124h-860l307 1443h139l-281 -1319h721zM590 -143l227 -289h-154l-148 197h-11l-232 -197h-157l351 289h124z" />
    <glyph glyph-name="Ldotbelow" unicode="&#x1e36;" horiz-adv-x="1139" 
d="M503 -364c-58 0 -105 47 -105 105c0 57 47 104 105 104c57 0 104 -47 104 -104c0 -58 -47 -105 -104 -105zM1014 124l-26 -124h-860l307 1443h139l-281 -1319h721z" />
    <glyph glyph-name="Ldotbelowmacron" unicode="&#x1e38;" horiz-adv-x="1139" 
d="M503 -364c-58 0 -105 47 -105 105c0 57 47 104 105 104c57 0 104 -47 104 -104c0 -58 -47 -105 -104 -105zM1014 124l-26 -124h-860l307 1443h139l-281 -1319h721zM864 1619h-644l22 105h645z" />
    <glyph glyph-name="Llinebelow" unicode="&#x1e3a;" horiz-adv-x="1139" 
d="M815 -309h-644l22 105h645zM1014 124l-26 -124h-860l307 1443h139l-281 -1319h721z" />
    <glyph glyph-name="Lcommaaccent" unicode="&#x13b;" horiz-adv-x="1139" 
d="M432 -506h-128l180 364h141zM1014 124l-26 -124h-860l307 1443h139l-281 -1319h721z" />
    <glyph glyph-name="Lcaron" unicode="&#x13d;" horiz-adv-x="1139" 
d="M821 1443h130l-137 -473h-94zM1014 124l-26 -124h-860l307 1443h139l-281 -1319h721z" />
    <glyph glyph-name="Lslash" unicode="&#x141;" horiz-adv-x="1139" 
d="M293 124h721l-26 -124h-860l155 727l-186 -82l24 112l185 82l129 604h139l-114 -537l345 152l-24 -112l-345 -152z" />
    <glyph glyph-name="Lcommaaccent.mini" horiz-adv-x="1139" 
d="M446 -432h-110l144 289h136zM1014 124l-26 -124h-860l307 1443h139l-281 -1319h721z" />
    <glyph glyph-name="M" unicode="M" horiz-adv-x="1762" 
d="M259 0h-131l307 1443h150l266 -1256h13l796 1256h168l-307 -1443h-131l250 1177h-10l-745 -1170h-118l-249 1170h-9z" />
    <glyph glyph-name="Macute" unicode="&#x1e3e;" horiz-adv-x="1762" 
d="M1081 1577l373 297h175l-389 -297h-159zM259 0h-131l307 1443h150l266 -1256h13l796 1256h168l-307 -1443h-131l250 1177h-10l-745 -1170h-118l-249 1170h-9z" />
    <glyph glyph-name="Mdotaccent" unicode="&#x1e40;" horiz-adv-x="1762" 
d="M1180 1577c-58 0 -105 46 -105 104s47 105 105 105s105 -47 105 -105s-47 -104 -105 -104zM259 0h-131l307 1443h150l266 -1256h13l796 1256h168l-307 -1443h-131l250 1177h-10l-745 -1170h-118l-249 1170h-9z" />
    <glyph glyph-name="Mdotbelow" unicode="&#x1e42;" horiz-adv-x="1762" 
d="M769 -364c-58 0 -105 47 -105 105c0 57 47 104 105 104c57 0 104 -47 104 -104c0 -58 -47 -105 -104 -105zM259 0h-131l307 1443h150l266 -1256h13l796 1256h168l-307 -1443h-131l250 1177h-10l-745 -1170h-118l-249 1170h-9z" />
    <glyph glyph-name="N" unicode="N" horiz-adv-x="1492" 
d="M266 0h-138l307 1443h134l579 -1218h13l259 1218h138l-307 -1443h-133l-581 1220h-12z" />
    <glyph glyph-name="Ngrave" unicode="&#x1f8;" horiz-adv-x="1492" 
d="M907 1874l184 -297h-141l-200 297h157zM266 0h-138l307 1443h134l579 -1218h13l259 1218h138l-307 -1443h-133l-581 1220h-12z" />
    <glyph glyph-name="Nacute" unicode="&#x143;" horiz-adv-x="1492" 
d="M955 1577l373 297h175l-389 -297h-159zM266 0h-138l307 1443h134l579 -1218h13l259 1218h138l-307 -1443h-133l-581 1220h-12z" />
    <glyph glyph-name="Ntilde" unicode="&#xd1;" horiz-adv-x="1492" 
d="M1202 1578c-155 0 -192 162 -285 162c-61 0 -106 -46 -123 -127h-110c25 145 122 231 236 231c153 0 192 -161 284 -161c62 0 105 44 123 126h110c-27 -147 -122 -231 -235 -231zM266 0h-138l307 1443h134l579 -1218h13l259 1218h138l-307 -1443h-133l-581 1220h-12z" />
    <glyph glyph-name="Ndotbelow" unicode="&#x1e46;" horiz-adv-x="1492" 
d="M636 -364c-58 0 -105 47 -105 105c0 57 47 104 105 104c57 0 104 -47 104 -104c0 -58 -47 -105 -104 -105zM266 0h-138l307 1443h134l579 -1218h13l259 1218h138l-307 -1443h-133l-581 1220h-12z" />
    <glyph glyph-name="Ndotaccent" unicode="&#x1e44;" horiz-adv-x="1492" 
d="M1054 1577c-58 0 -105 46 -105 104s47 105 105 105s105 -47 105 -105s-47 -104 -105 -104zM266 0h-138l307 1443h134l579 -1218h13l259 1218h138l-307 -1443h-133l-581 1220h-12z" />
    <glyph glyph-name="Ncaron" unicode="&#x147;" horiz-adv-x="1492" 
d="M964 1577l-189 297h143l126 -208h12l214 208h160l-315 -297h-151zM266 0h-138l307 1443h134l579 -1218h13l259 1218h138l-307 -1443h-133l-581 1220h-12z" />
    <glyph glyph-name="Ncircumflexbelow" unicode="&#x1e4a;" horiz-adv-x="1492" 
d="M266 0h-138l307 1443h134l579 -1218h13l259 1218h138l-307 -1443h-133l-581 1220h-12zM723 -143l227 -289h-154l-148 197h-11l-232 -197h-157l351 289h124z" />
    <glyph glyph-name="Nlinebelow" unicode="&#x1e48;" horiz-adv-x="1492" 
d="M948 -309h-644l22 105h645zM266 0h-138l307 1443h134l579 -1218h13l259 1218h138l-307 -1443h-133l-581 1220h-12z" />
    <glyph glyph-name="Ncommaaccent" unicode="&#x145;" horiz-adv-x="1492" 
d="M565 -506h-128l180 364h141zM266 0h-138l307 1443h134l579 -1218h13l259 1218h138l-307 -1443h-133l-581 1220h-12z" />
    <glyph glyph-name="Ncommaaccent.mini" horiz-adv-x="1492" 
d="M579 -432h-110l144 289h136zM266 0h-138l307 1443h134l579 -1218h13l259 1218h138l-307 -1443h-133l-581 1220h-12z" />
    <glyph glyph-name="O" unicode="O" horiz-adv-x="1564" 
d="M784 -30c-337 0 -575 250 -575 604c0 513 328 899 766 899c336 0 572 -249 572 -604c0 -516 -326 -899 -763 -899zM1403 858c0 293 -175 488 -438 488c-347 0 -613 -331 -613 -761c0 -293 176 -488 442 -488c348 0 609 326 609 761z" />
    <glyph glyph-name="Odieresis" unicode="&#xd6;" horiz-adv-x="1564" 
d="M835 1567c-57 0 -102 45 -102 102s45 102 102 102c56 0 102 -45 102 -102s-46 -102 -102 -102zM1198 1567c-56 0 -102 45 -102 102s46 102 102 102c57 0 102 -45 102 -102s-45 -102 -102 -102zM784 -30c-337 0 -575 250 -575 604c0 513 328 899 766 899
c336 0 572 -249 572 -604c0 -516 -326 -899 -763 -899zM1403 858c0 293 -175 488 -438 488c-347 0 -613 -331 -613 -761c0 -293 176 -488 442 -488c348 0 609 326 609 761z" />
    <glyph glyph-name="Oslash" unicode="&#xd8;" horiz-adv-x="1535" 
d="M1307 1177l-813 -971c75 -70 176 -109 296 -109c348 0 609 326 609 761c0 128 -33 237 -92 319zM430 282l813 965c-74 63 -170 99 -282 99c-347 0 -613 -331 -613 -761c0 -120 29 -223 82 -303zM1541 1457l-142 -170c91 -105 144 -250 144 -418
c0 -516 -326 -899 -763 -899c-148 0 -276 48 -374 132l-144 -172l-78 59l154 183c-85 104 -133 242 -133 402c0 513 328 899 766 899c141 0 265 -44 360 -121l135 160z" />
    <glyph glyph-name="Otilde" unicode="&#xd5;" horiz-adv-x="1564" 
d="M784 -30c-337 0 -575 250 -575 604c0 513 328 899 766 899c336 0 572 -249 572 -604c0 -516 -326 -899 -763 -899zM1403 858c0 293 -175 488 -438 488c-347 0 -613 -331 -613 -761c0 -293 176 -488 442 -488c348 0 609 326 609 761zM1168 1577c-155 0 -192 162 -285 162
c-61 0 -106 -46 -123 -127h-110c25 145 122 231 236 231c153 0 192 -161 284 -161c62 0 105 44 123 126h110c-27 -147 -122 -231 -235 -231z" />
    <glyph glyph-name="Oacute" unicode="&#xd3;" horiz-adv-x="1564" 
d="M921 1576l373 297h175l-389 -297h-159zM784 -30c-337 0 -575 250 -575 604c0 513 328 899 766 899c336 0 572 -249 572 -604c0 -516 -326 -899 -763 -899zM1403 858c0 293 -175 488 -438 488c-347 0 -613 -331 -613 -761c0 -293 176 -488 442 -488c348 0 609 326 609 761
z" />
    <glyph glyph-name="Ocircumflex" unicode="&#xd4;" horiz-adv-x="1564" 
d="M1137 1873l189 -297h-143l-126 208h-12l-214 -208h-160l315 297h151zM784 -30c-337 0 -575 250 -575 604c0 513 328 899 766 899c336 0 572 -249 572 -604c0 -516 -326 -899 -763 -899zM1403 858c0 293 -175 488 -438 488c-347 0 -613 -331 -613 -761
c0 -293 176 -488 442 -488c348 0 609 326 609 761z" />
    <glyph glyph-name="Ograve" unicode="&#xd2;" horiz-adv-x="1564" 
d="M873 1873l184 -297h-141l-200 297h157zM784 -30c-337 0 -575 250 -575 604c0 513 328 899 766 899c336 0 572 -249 572 -604c0 -516 -326 -899 -763 -899zM1403 858c0 293 -175 488 -438 488c-347 0 -613 -331 -613 -761c0 -293 176 -488 442 -488c348 0 609 326 609 761
z" />
    <glyph glyph-name="Ocircumflexhookabove" unicode="&#x1ed4;" horiz-adv-x="1564" 
d="M1111 1800l237 -224h-164l-150 146h-12l-212 -146h-181l331 224h151zM1174 1936l19 93c21 9 61 16 99 16c120 0 199 -60 199 -149c0 -78 -63 -157 -151 -194l-60 71c60 24 94 62 94 105c0 44 -36 72 -103 72c-37 0 -75 -5 -97 -14zM784 -30c-337 0 -575 250 -575 604
c0 513 328 899 766 899c336 0 572 -249 572 -604c0 -516 -326 -899 -763 -899zM1403 858c0 293 -175 488 -438 488c-347 0 -613 -331 -613 -761c0 -293 176 -488 442 -488c348 0 609 326 609 761z" />
    <glyph glyph-name="Ocircumflexgrave" unicode="&#x1ed2;" horiz-adv-x="1564" 
d="M1111 1800l237 -224h-164l-150 146h-12l-212 -146h-181l331 224h151zM1400 1824h-146l-194 231h165zM784 -30c-337 0 -575 250 -575 604c0 513 328 899 766 899c336 0 572 -249 572 -604c0 -516 -326 -899 -763 -899zM1403 858c0 293 -175 488 -438 488
c-347 0 -613 -331 -613 -761c0 -293 176 -488 442 -488c348 0 609 326 609 761z" />
    <glyph glyph-name="Odotbelow" unicode="&#x1ecc;" horiz-adv-x="1564" 
d="M728 -364c-58 0 -105 47 -105 105c0 57 47 104 105 104c57 0 104 -47 104 -104c0 -58 -47 -105 -104 -105zM784 -30c-337 0 -575 250 -575 604c0 513 328 899 766 899c336 0 572 -249 572 -604c0 -516 -326 -899 -763 -899zM1403 858c0 293 -175 488 -438 488
c-347 0 -613 -331 -613 -761c0 -293 176 -488 442 -488c348 0 609 326 609 761z" />
    <glyph glyph-name="Odblgrave" unicode="&#x20c;" horiz-adv-x="1564" 
d="M897 1576h-155l-200 297h171zM1260 1576h-155l-200 297h171zM784 -30c-337 0 -575 250 -575 604c0 513 328 899 766 899c336 0 572 -249 572 -604c0 -516 -326 -899 -763 -899zM1403 858c0 293 -175 488 -438 488c-347 0 -613 -331 -613 -761c0 -293 176 -488 442 -488
c348 0 609 326 609 761z" />
    <glyph glyph-name="Otildeacute" unicode="&#x1e4c;" horiz-adv-x="1564" 
d="M784 -30c-337 0 -575 250 -575 604c0 513 328 899 766 899c336 0 572 -249 572 -604c0 -516 -326 -899 -763 -899zM1403 858c0 293 -175 488 -438 488c-347 0 -613 -331 -613 -761c0 -293 176 -488 442 -488c348 0 609 326 609 761zM983 1844l256 211h169l-276 -211h-149
zM1151 1576c-130 0 -171 128 -256 128c-61 0 -102 -41 -120 -106h-110c23 133 124 211 230 211c129 0 170 -128 255 -128c61 0 102 42 121 106h110c-24 -133 -125 -211 -230 -211z" />
    <glyph glyph-name="Omacronacute" unicode="&#x1e52;" horiz-adv-x="1564" 
d="M1328 1618h-644l22 101h644zM969 1838l265 217h169l-284 -217h-150zM784 -30c-337 0 -575 250 -575 604c0 513 328 899 766 899c336 0 572 -249 572 -604c0 -516 -326 -899 -763 -899zM1403 858c0 293 -175 488 -438 488c-347 0 -613 -331 -613 -761
c0 -293 176 -488 442 -488c348 0 609 326 609 761z" />
    <glyph glyph-name="Ocircumflextilde" unicode="&#x1ed6;" horiz-adv-x="1564" 
d="M1111 1800l237 -224h-164l-150 146h-12l-212 -146h-181l331 224h151zM1160 1844c-121 0 -166 122 -244 122c-58 0 -95 -36 -114 -101h-110c23 133 121 205 224 205c121 0 166 -121 244 -121c58 0 95 35 113 100h110c-23 -133 -120 -205 -223 -205zM784 -30
c-337 0 -575 250 -575 604c0 513 328 899 766 899c336 0 572 -249 572 -604c0 -516 -326 -899 -763 -899zM1403 858c0 293 -175 488 -438 488c-347 0 -613 -331 -613 -761c0 -293 176 -488 442 -488c348 0 609 326 609 761z" />
    <glyph glyph-name="Odotaccentmacron" unicode="&#x230;" horiz-adv-x="1564" 
d="M1391 1914h-645l22 101h644zM1019 1577c-58 0 -103 47 -103 104s45 104 103 104s104 -47 104 -104s-46 -104 -104 -104zM784 -30c-337 0 -575 250 -575 604c0 513 328 899 766 899c336 0 572 -249 572 -604c0 -516 -326 -899 -763 -899zM1403 858
c0 293 -175 488 -438 488c-347 0 -613 -331 -613 -761c0 -293 176 -488 442 -488c348 0 609 326 609 761z" />
    <glyph glyph-name="Omacrongrave" unicode="&#x1e50;" horiz-adv-x="1564" 
d="M1329 1618h-644l22 101h644zM1140 1838h-147l-197 217h167zM784 -30c-337 0 -575 250 -575 604c0 513 328 899 766 899c336 0 572 -249 572 -604c0 -516 -326 -899 -763 -899zM1403 858c0 293 -175 488 -438 488c-347 0 -613 -331 -613 -761c0 -293 176 -488 442 -488
c348 0 609 326 609 761z" />
    <glyph glyph-name="Ocaron" unicode="&#x1d1;" horiz-adv-x="1564" 
d="M930 1576l-189 297h143l126 -208h12l214 208h160l-315 -297h-151zM784 -30c-337 0 -575 250 -575 604c0 513 328 899 766 899c336 0 572 -249 572 -604c0 -516 -326 -899 -763 -899zM1403 858c0 293 -175 488 -438 488c-347 0 -613 -331 -613 -761
c0 -293 176 -488 442 -488c348 0 609 326 609 761z" />
    <glyph glyph-name="Oslashacute" unicode="&#x1fe;" horiz-adv-x="1530" 
d="M1469 1873l-389 -297h-159l373 297h175zM1307 1177l-813 -971c75 -70 176 -109 296 -109c348 0 609 326 609 761c0 128 -33 237 -92 319zM430 282l813 965c-74 63 -170 99 -282 99c-347 0 -613 -331 -613 -761c0 -120 29 -223 82 -303zM1541 1457l-142 -170
c91 -105 144 -250 144 -418c0 -516 -326 -899 -763 -899c-148 0 -276 48 -374 132l-144 -172l-78 59l154 183c-85 104 -133 242 -133 402c0 513 328 899 766 899c141 0 265 -44 360 -121l135 160z" />
    <glyph glyph-name="Ohungarumlaut" unicode="&#x150;" horiz-adv-x="1564" 
d="M1090 1576l373 297h175l-389 -297h-159zM727 1576l373 297h175l-389 -297h-159zM784 -30c-337 0 -575 250 -575 604c0 513 328 899 766 899c336 0 572 -249 572 -604c0 -516 -326 -899 -763 -899zM1403 858c0 293 -175 488 -438 488c-347 0 -613 -331 -613 -761
c0 -293 176 -488 442 -488c348 0 609 326 609 761z" />
    <glyph glyph-name="Obreve" unicode="&#x14e;" horiz-adv-x="1564" 
d="M784 -30c-337 0 -575 250 -575 604c0 513 328 899 766 899c336 0 572 -249 572 -604c0 -516 -326 -899 -763 -899zM1403 858c0 293 -175 488 -438 488c-347 0 -613 -331 -613 -761c0 -293 176 -488 442 -488c348 0 609 326 609 761zM697 1836v14h116v-15
c0 -92 83 -159 198 -159s199 68 220 174h118c-26 -167 -164 -274 -342 -274c-185 0 -310 106 -310 260z" />
    <glyph glyph-name="Oinvertedbreve" unicode="&#x20e;" horiz-adv-x="1564" 
d="M1356 1589c0 -5 -1 -10 -1 -13h-116c0 4 1 10 1 14c0 93 -84 159 -199 159s-199 -68 -220 -173h-118c26 166 164 274 342 274c186 0 311 -107 311 -261zM784 -30c-337 0 -575 250 -575 604c0 513 328 899 766 899c336 0 572 -249 572 -604c0 -516 -326 -899 -763 -899z
M1403 858c0 293 -175 488 -438 488c-347 0 -613 -331 -613 -761c0 -293 176 -488 442 -488c348 0 609 326 609 761z" />
    <glyph glyph-name="Ohookabove" unicode="&#x1ece;" horiz-adv-x="1564" 
d="M891 1787l19 92c21 9 62 17 99 17c120 0 199 -59 199 -149c0 -94 -79 -178 -195 -209l-42 83c76 19 120 60 120 112c0 43 -36 68 -103 68c-37 0 -74 -6 -97 -14zM784 -30c-337 0 -575 250 -575 604c0 513 328 899 766 899c336 0 572 -249 572 -604
c0 -516 -326 -899 -763 -899zM1403 858c0 293 -175 488 -438 488c-347 0 -613 -331 -613 -761c0 -293 176 -488 442 -488c348 0 609 326 609 761z" />
    <glyph glyph-name="Odieresismacron" unicode="&#x22a;" horiz-adv-x="1564" 
d="M784 -30c-337 0 -575 250 -575 604c0 513 328 899 766 899c336 0 572 -249 572 -604c0 -516 -326 -899 -763 -899zM1403 858c0 293 -175 488 -438 488c-347 0 -613 -331 -613 -761c0 -293 176 -488 442 -488c348 0 609 326 609 761zM747 1914l21 101h645l-22 -101h-644z
M840 1579c-55 0 -99 44 -99 99s44 99 99 99s99 -44 99 -99s-44 -99 -99 -99zM1204 1579c-55 0 -99 44 -99 99s44 99 99 99s99 -44 99 -99s-44 -99 -99 -99z" />
    <glyph glyph-name="Otildemacron" unicode="&#x22c;" horiz-adv-x="1564" 
d="M1391 1914h-644l21 101h645zM1151 1576c-130 0 -171 128 -256 128c-61 0 -102 -41 -120 -106h-110c23 133 124 211 230 211c129 0 170 -128 255 -128c61 0 102 42 121 106h110c-24 -133 -125 -211 -230 -211zM784 -30c-337 0 -575 250 -575 604c0 513 328 899 766 899
c336 0 572 -249 572 -604c0 -516 -326 -899 -763 -899zM1403 858c0 293 -175 488 -438 488c-347 0 -613 -331 -613 -761c0 -293 176 -488 442 -488c348 0 609 326 609 761z" />
    <glyph glyph-name="Odotaccent" unicode="&#x22e;" horiz-adv-x="1564" 
d="M1020 1576c-58 0 -105 46 -105 104s47 105 105 105s105 -47 105 -105s-47 -104 -105 -104zM784 -30c-337 0 -575 250 -575 604c0 513 328 899 766 899c336 0 572 -249 572 -604c0 -516 -326 -899 -763 -899zM1403 858c0 293 -175 488 -438 488
c-347 0 -613 -331 -613 -761c0 -293 176 -488 442 -488c348 0 609 326 609 761z" />
    <glyph glyph-name="Ocircumflexdotbelow" unicode="&#x1ed8;" horiz-adv-x="1564" 
d="M728 -364c-58 0 -105 47 -105 105c0 57 47 104 105 104c57 0 104 -47 104 -104c0 -58 -47 -105 -104 -105zM1137 1873l189 -297h-143l-126 208h-12l-214 -208h-160l315 297h151zM784 -30c-337 0 -575 250 -575 604c0 513 328 899 766 899c336 0 572 -249 572 -604
c0 -516 -326 -899 -763 -899zM1403 858c0 293 -175 488 -438 488c-347 0 -613 -331 -613 -761c0 -293 176 -488 442 -488c348 0 609 326 609 761z" />
    <glyph glyph-name="Ocircumflexacute" unicode="&#x1ed0;" horiz-adv-x="1564" 
d="M1111 1800l237 -224h-164l-150 146h-12l-212 -146h-181l331 224h151zM1162 1824l268 231h167l-286 -231h-149zM784 -30c-337 0 -575 250 -575 604c0 513 328 899 766 899c336 0 572 -249 572 -604c0 -516 -326 -899 -763 -899zM1403 858c0 293 -175 488 -438 488
c-347 0 -613 -331 -613 -761c0 -293 176 -488 442 -488c348 0 609 326 609 761z" />
    <glyph glyph-name="Otildedieresis" unicode="&#x1e4e;" horiz-adv-x="1564" 
d="M899 1878c-58 0 -99 38 -99 89c0 52 41 90 99 90s100 -38 100 -90c0 -51 -42 -89 -100 -89zM1263 1878c-58 0 -99 38 -99 89c0 52 41 90 99 90s99 -38 99 -90c0 -51 -41 -89 -99 -89zM1151 1576c-130 0 -171 128 -256 128c-61 0 -102 -41 -120 -106h-110
c23 133 124 211 230 211c129 0 170 -128 255 -128c61 0 102 42 121 106h110c-24 -133 -125 -211 -230 -211zM784 -30c-337 0 -575 250 -575 604c0 513 328 899 766 899c336 0 572 -249 572 -604c0 -516 -326 -899 -763 -899zM1403 858c0 293 -175 488 -438 488
c-347 0 -613 -331 -613 -761c0 -293 176 -488 442 -488c348 0 609 326 609 761z" />
    <glyph glyph-name="Omacron" unicode="&#x14c;" horiz-adv-x="1564" 
d="M784 -30c-337 0 -575 250 -575 604c0 513 328 899 766 899c336 0 572 -249 572 -604c0 -516 -326 -899 -763 -899zM1403 858c0 293 -175 488 -438 488c-347 0 -613 -331 -613 -761c0 -293 176 -488 442 -488c348 0 609 326 609 761zM1329 1618h-644l22 105h645z" />
    <glyph glyph-name="Oogonek" unicode="&#x1ea;" horiz-adv-x="1564" 
d="M928 -416c-130 0 -221 74 -221 179c0 82 65 162 168 207l2 16c-28 -10 -64 -16 -93 -16c-337 0 -575 250 -575 604c0 513 328 899 766 899c336 0 572 -249 572 -604c0 -356 -177 -678 -462 -837c-171 -94 -244 -165 -244 -241c0 -60 52 -98 136 -98c17 0 30 1 39 3
l-22 -103c-19 -5 -44 -9 -66 -9zM1403 858c0 293 -175 488 -438 488c-347 0 -613 -331 -613 -761c0 -293 176 -488 442 -488c348 0 609 326 609 761z" />
    <glyph glyph-name="Oogonekmacron" unicode="&#x1ec;" horiz-adv-x="1561" 
d="M928 -416c-130 0 -221 74 -221 179c0 82 65 162 168 207l2 16c-28 -10 -64 -16 -93 -16c-337 0 -575 250 -575 604c0 513 328 899 766 899c336 0 572 -249 572 -604c0 -356 -177 -678 -462 -837c-171 -94 -244 -165 -244 -241c0 -60 52 -98 136 -98c17 0 30 1 39 3
l-22 -103c-19 -5 -44 -9 -66 -9zM1403 858c0 293 -175 488 -438 488c-347 0 -613 -331 -613 -761c0 -293 176 -488 442 -488c348 0 609 326 609 761zM1329 1618h-644l22 105h645z" />
    <glyph glyph-name="Ohorn" unicode="&#x1a0;" horiz-adv-x="1574" 
d="M1547 869c0 -516 -326 -899 -763 -899c-337 0 -575 250 -575 604c0 513 328 899 766 899c129 0 201 -33 404 -33c113 0 161 36 176 111l26 122h123l-31 -147c-25 -117 -108 -179 -243 -179c-26 0 -68 3 -103 7l-4 -7c142 -95 224 -272 224 -478zM1403 858
c0 293 -175 488 -438 488c-347 0 -613 -331 -613 -761c0 -293 176 -488 442 -488c348 0 609 326 609 761z" />
    <glyph glyph-name="Ohorndotbelow" unicode="&#x1ee2;" horiz-adv-x="1574" 
d="M728 -364c-58 0 -105 47 -105 105c0 57 47 104 105 104c57 0 104 -47 104 -104c0 -58 -47 -105 -104 -105zM1547 869c0 -516 -326 -899 -763 -899c-337 0 -575 250 -575 604c0 513 328 899 766 899c129 0 201 -33 404 -33c113 0 161 36 176 111l26 122h123l-31 -147
c-25 -117 -108 -179 -243 -179c-26 0 -68 3 -103 7l-4 -7c142 -95 224 -272 224 -478zM1403 858c0 293 -175 488 -438 488c-347 0 -613 -331 -613 -761c0 -293 176 -488 442 -488c348 0 609 326 609 761z" />
    <glyph glyph-name="Ohornhookabove" unicode="&#x1ede;" horiz-adv-x="1574" 
d="M891 1787l19 92c21 9 62 17 99 17c120 0 199 -59 199 -149c0 -94 -79 -178 -195 -209l-42 83c76 19 120 60 120 112c0 43 -36 68 -103 68c-37 0 -74 -6 -97 -14zM1547 869c0 -516 -326 -899 -763 -899c-337 0 -575 250 -575 604c0 513 328 899 766 899
c129 0 201 -33 404 -33c113 0 161 36 176 111l26 122h123l-31 -147c-25 -117 -108 -179 -243 -179c-26 0 -68 3 -103 7l-4 -7c142 -95 224 -272 224 -478zM1403 858c0 293 -175 488 -438 488c-347 0 -613 -331 -613 -761c0 -293 176 -488 442 -488c348 0 609 326 609 761z
" />
    <glyph glyph-name="Ohorntilde" unicode="&#x1ee0;" horiz-adv-x="1574" 
d="M1547 869c0 -516 -326 -899 -763 -899c-337 0 -575 250 -575 604c0 513 328 899 766 899c129 0 201 -33 404 -33c113 0 161 36 176 111l26 122h123l-31 -147c-25 -117 -108 -179 -243 -179c-26 0 -68 3 -103 7l-4 -7c142 -95 224 -272 224 -478zM1403 858
c0 293 -175 488 -438 488c-347 0 -613 -331 -613 -761c0 -293 176 -488 442 -488c348 0 609 326 609 761zM1168 1577c-155 0 -192 162 -285 162c-61 0 -106 -46 -123 -127h-110c25 145 122 231 236 231c153 0 192 -161 284 -161c62 0 105 44 123 126h110
c-27 -147 -122 -231 -235 -231z" />
    <glyph glyph-name="Ohorngrave" unicode="&#x1edc;" horiz-adv-x="1574" 
d="M873 1873l184 -297h-141l-200 297h157zM1547 869c0 -516 -326 -899 -763 -899c-337 0 -575 250 -575 604c0 513 328 899 766 899c129 0 201 -33 404 -33c113 0 161 36 176 111l26 122h123l-31 -147c-25 -117 -108 -179 -243 -179c-26 0 -68 3 -103 7l-4 -7
c142 -95 224 -272 224 -478zM1403 858c0 293 -175 488 -438 488c-347 0 -613 -331 -613 -761c0 -293 176 -488 442 -488c348 0 609 326 609 761z" />
    <glyph glyph-name="Ohornacute" unicode="&#x1eda;" horiz-adv-x="1574" 
d="M921 1576l373 297h175l-389 -297h-159zM1547 869c0 -516 -326 -899 -763 -899c-337 0 -575 250 -575 604c0 513 328 899 766 899c129 0 201 -33 404 -33c113 0 161 36 176 111l26 122h123l-31 -147c-25 -117 -108 -179 -243 -179c-26 0 -68 3 -103 7l-4 -7
c142 -95 224 -272 224 -478zM1403 858c0 293 -175 488 -438 488c-347 0 -613 -331 -613 -761c0 -293 176 -488 442 -488c348 0 609 326 609 761z" />
    <glyph glyph-name="Oogonek.mini" horiz-adv-x="1564" 
d="M928 -416c-130 0 -221 74 -221 179c0 82 65 162 168 207l2 16c-28 -10 -64 -16 -93 -16c-337 0 -575 250 -575 604c0 513 328 899 766 899c336 0 572 -249 572 -604c0 -356 -177 -678 -462 -837c-171 -94 -244 -165 -244 -241c0 -60 52 -98 136 -98c17 0 30 1 39 3
l-22 -103c-19 -5 -44 -9 -66 -9zM1403 858c0 293 -175 488 -438 488c-347 0 -613 -331 -613 -761c0 -293 176 -488 442 -488c348 0 609 326 609 761z" />
    <glyph glyph-name="Ocircumflexacute.mini" horiz-adv-x="1561" 
d="M1052 1693l237 -224h-164l-150 146h-12l-212 -146h-181l331 224h151zM1103 1717l267 221h168l-286 -221h-149zM917 1369c356 0 586 -242 586 -616c0 -449 -313 -785 -729 -785c-359 0 -586 235 -586 608c0 452 314 793 729 793zM1360 752c0 300 -174 489 -450 489
c-327 0 -580 -287 -580 -657c0 -301 175 -489 452 -489c328 0 578 285 578 657z" />
    <glyph glyph-name="O.mini" horiz-adv-x="1561" 
d="M917 1369c356 0 586 -242 586 -616c0 -449 -313 -785 -729 -785c-359 0 -586 235 -586 608c0 452 314 793 729 793zM1360 752c0 300 -174 489 -450 489c-327 0 -580 -287 -580 -657c0 -301 175 -489 452 -489c328 0 578 285 578 657z" />
    <glyph glyph-name="Ocircumflexgrave.mini" horiz-adv-x="1561" 
d="M917 1369c356 0 586 -242 586 -616c0 -449 -313 -785 -729 -785c-359 0 -586 235 -586 608c0 452 314 793 729 793zM1360 752c0 300 -174 489 -450 489c-327 0 -580 -287 -580 -657c0 -301 175 -489 452 -489c328 0 578 285 578 657zM1052 1693l237 -224h-164l-150 146
h-12l-212 -146h-181l331 224h151zM1342 1717h-147l-194 221h166z" />
    <glyph glyph-name="Otildemacron.mini" horiz-adv-x="1561" 
d="M917 1369c356 0 586 -242 586 -616c0 -449 -313 -785 -729 -785c-359 0 -586 235 -586 608c0 452 314 793 729 793zM1360 752c0 300 -174 489 -450 489c-327 0 -580 -287 -580 -657c0 -301 175 -489 452 -489c328 0 578 285 578 657zM1332 1807h-644l21 101h645z
M1092 1469c-130 0 -171 128 -256 128c-61 0 -102 -41 -120 -106h-110c23 133 124 211 230 211c129 0 170 -128 255 -128c61 0 102 42 121 106h110c-24 -133 -125 -211 -230 -211z" />
    <glyph glyph-name="Omacronacute.mini" horiz-adv-x="1561" 
d="M917 1369c356 0 586 -242 586 -616c0 -449 -313 -785 -729 -785c-359 0 -586 235 -586 608c0 452 314 793 729 793zM1360 752c0 300 -174 489 -450 489c-327 0 -580 -287 -580 -657c0 -301 175 -489 452 -489c328 0 578 285 578 657zM1269 1511h-644l22 101h644z
M904 1731l265 207h170l-284 -207h-151z" />
    <glyph glyph-name="Omacrongrave.mini" horiz-adv-x="1561" 
d="M1269 1511h-644l22 101h644zM1081 1731h-148l-197 207h167zM917 1369c356 0 586 -242 586 -616c0 -449 -313 -785 -729 -785c-359 0 -586 235 -586 608c0 452 314 793 729 793zM1360 752c0 300 -174 489 -450 489c-327 0 -580 -287 -580 -657c0 -301 175 -489 452 -489
c328 0 578 285 578 657z" />
    <glyph glyph-name="Otildedieresis.mini" horiz-adv-x="1561" 
d="M838 1760c-59 0 -100 38 -100 90s41 90 100 90c57 0 99 -38 99 -90s-42 -90 -99 -90zM1201 1760c-58 0 -99 38 -99 90s41 90 99 90s100 -38 100 -90s-42 -90 -100 -90zM1092 1469c-130 0 -171 128 -256 128c-61 0 -102 -41 -120 -106h-110c23 133 124 211 230 211
c129 0 170 -128 255 -128c61 0 102 42 121 106h110c-24 -133 -125 -211 -230 -211zM917 1369c356 0 586 -242 586 -616c0 -449 -313 -785 -729 -785c-359 0 -586 235 -586 608c0 452 314 793 729 793zM1360 752c0 300 -174 489 -450 489c-327 0 -580 -287 -580 -657
c0 -301 175 -489 452 -489c328 0 578 285 578 657z" />
    <glyph glyph-name="Otildeacute.mini" horiz-adv-x="1561" 
d="M917 1369c356 0 586 -242 586 -616c0 -449 -313 -785 -729 -785c-359 0 -586 235 -586 608c0 452 314 793 729 793zM1360 752c0 300 -174 489 -450 489c-327 0 -580 -287 -580 -657c0 -301 175 -489 452 -489c328 0 578 285 578 657zM926 1737l250 201h169l-271 -201
h-148zM1092 1469c-130 0 -171 128 -256 128c-61 0 -102 -41 -120 -106h-110c23 133 124 211 230 211c129 0 170 -128 255 -128c61 0 102 42 121 106h110c-24 -133 -125 -211 -230 -211z" />
    <glyph glyph-name="Odieresismacron.mini" horiz-adv-x="1561" 
d="M917 1369c356 0 586 -242 586 -616c0 -449 -313 -785 -729 -785c-359 0 -586 235 -586 608c0 452 314 793 729 793zM1360 752c0 300 -174 489 -450 489c-327 0 -580 -287 -580 -657c0 -301 175 -489 452 -489c328 0 578 285 578 657zM688 1807l21 101h645l-22 -101h-644z
M778 1469c-57 0 -102 45 -102 102c0 56 45 102 102 102c56 0 102 -46 102 -102c0 -57 -46 -102 -102 -102zM1142 1469c-57 0 -103 45 -103 102c0 56 46 102 103 102c56 0 102 -46 102 -102c0 -57 -46 -102 -102 -102z" />
    <glyph glyph-name="Odotaccentmacron.mini" horiz-adv-x="1561" 
d="M917 1369c356 0 586 -242 586 -616c0 -449 -313 -785 -729 -785c-359 0 -586 235 -586 608c0 452 314 793 729 793zM1360 752c0 300 -174 489 -450 489c-327 0 -580 -287 -580 -657c0 -301 175 -489 452 -489c328 0 578 285 578 657zM960 1470c-58 0 -103 47 -103 104
s45 104 103 104s104 -47 104 -104s-46 -104 -104 -104zM1332 1807h-644l21 101h645z" />
    <glyph glyph-name="Ocircumflexhookabove.mini" horiz-adv-x="1561" 
d="M1052 1693l237 -224h-164l-150 146h-12l-212 -146h-181l331 224h151zM1097 1832l17 87c25 11 64 19 97 19c119 0 196 -59 196 -150c0 -82 -57 -155 -151 -188l-65 67c60 17 103 59 103 107c0 46 -37 73 -102 73c-33 0 -70 -6 -95 -15zM917 1369c356 0 586 -242 586 -616
c0 -449 -313 -785 -729 -785c-359 0 -586 235 -586 608c0 452 314 793 729 793zM1360 752c0 300 -174 489 -450 489c-327 0 -580 -287 -580 -657c0 -301 175 -489 452 -489c328 0 578 285 578 657z" />
    <glyph glyph-name="Ocircumflextilde.mini" horiz-adv-x="1561" 
d="M917 1369c356 0 586 -242 586 -616c0 -449 -313 -785 -729 -785c-359 0 -586 235 -586 608c0 452 314 793 729 793zM1360 752c0 300 -174 489 -450 489c-327 0 -580 -287 -580 -657c0 -301 175 -489 452 -489c328 0 578 285 578 657zM1052 1693l237 -224h-164l-150 146
h-12l-212 -146h-181l331 224h151zM1135 1737c-107 0 -157 102 -236 102c-51 0 -82 -32 -101 -90h-110c23 126 111 192 211 192c108 0 158 -102 236 -102c51 0 83 31 101 89h110c-23 -126 -111 -191 -211 -191z" />
    <glyph glyph-name="P" unicode="P" horiz-adv-x="1279" 
d="M437 1443h477c240 0 414 -151 414 -377c0 -321 -240 -522 -563 -522h-383l-115 -544h-139zM550 1321l-142 -655h349c256 0 429 146 429 388c0 163 -120 267 -317 267h-319z" />
    <glyph glyph-name="Pdotaccent" unicode="&#x1e56;" horiz-adv-x="1277" 
d="M437 1443h477c240 0 414 -151 414 -377c0 -321 -240 -522 -563 -522h-383l-115 -544h-139zM550 1321l-142 -655h349c256 0 429 146 429 388c0 163 -120 267 -317 267h-319zM864 1577c-58 0 -105 46 -105 104s47 105 105 105s105 -47 105 -105s-47 -104 -105 -104z" />
    <glyph glyph-name="Pacute" unicode="&#x1e54;" horiz-adv-x="1277" 
d="M765 1577l373 297h175l-389 -297h-159zM437 1443h477c240 0 414 -151 414 -377c0 -321 -240 -522 -563 -522h-383l-115 -544h-139zM550 1321l-142 -655h349c256 0 429 146 429 388c0 163 -120 267 -317 267h-319z" />
    <glyph glyph-name="Q" unicode="Q" horiz-adv-x="1570" 
d="M1278 -169h-147l-95 184c-80 -31 -164 -45 -252 -45c-339 0 -577 249 -577 594c0 515 328 909 773 909c339 0 575 -249 575 -595c0 -356 -154 -656 -401 -806zM794 97c63 0 124 11 182 32l-138 266h149l107 -207c195 128 318 379 318 678c0 287 -177 480 -442 480
c-353 0 -620 -337 -620 -769c0 -288 178 -480 444 -480z" />
    <glyph glyph-name="R" unicode="R" horiz-adv-x="1311" 
d="M128 0l308 1443h474c260 0 422 -144 422 -374c0 -231 -159 -412 -403 -457l219 -612h-149l-206 591h-12h-387l-127 -591h-139zM549 1321l-129 -607h375c233 0 393 139 393 342c0 165 -106 265 -282 265h-357z" />
    <glyph glyph-name="Rcaron" unicode="&#x158;" horiz-adv-x="1311" 
d="M128 0l308 1443h474c260 0 422 -144 422 -374c0 -231 -159 -412 -403 -457l219 -612h-149l-206 591h-12h-387l-127 -591h-139zM549 1321l-129 -607h375c233 0 393 139 393 342c0 165 -106 265 -282 265h-357zM781 1577l-189 297h143l126 -208h12l214 208h160l-315 -297
h-151z" />
    <glyph glyph-name="Rlinebelow" unicode="&#x1e5e;" horiz-adv-x="1311" 
d="M128 0l308 1443h474c260 0 422 -144 422 -374c0 -231 -159 -412 -403 -457l219 -612h-149l-206 591h-12h-387l-127 -591h-139zM549 1321l-129 -607h375c233 0 393 139 393 342c0 165 -106 265 -282 265h-357zM881 -309h-644l22 105h645z" />
    <glyph glyph-name="Rdotbelowmacron" unicode="&#x1e5c;" horiz-adv-x="1311" 
d="M569 -364c-58 0 -105 47 -105 105c0 57 47 104 105 104c57 0 104 -47 104 -104c0 -58 -47 -105 -104 -105zM128 0l308 1443h474c260 0 422 -144 422 -374c0 -231 -159 -412 -403 -457l219 -612h-149l-206 591h-12h-387l-127 -591h-139zM549 1321l-129 -607h375
c233 0 393 139 393 342c0 165 -106 265 -282 265h-357zM1179 1619h-644l22 105h645z" />
    <glyph glyph-name="Rdblgrave" unicode="&#x210;" horiz-adv-x="1311" 
d="M748 1577h-155l-200 297h171zM1111 1577h-155l-200 297h171zM128 0l308 1443h474c260 0 422 -144 422 -374c0 -231 -159 -412 -403 -457l219 -612h-149l-206 591h-12h-387l-127 -591h-139zM549 1321l-129 -607h375c233 0 393 139 393 342c0 165 -106 265 -282 265h-357z
" />
    <glyph glyph-name="Rinvertedbreve" unicode="&#x212;" horiz-adv-x="1311" 
d="M128 0l308 1443h474c260 0 422 -144 422 -374c0 -231 -159 -412 -403 -457l219 -612h-149l-206 591h-12h-387l-127 -591h-139zM549 1321l-129 -607h375c233 0 393 139 393 342c0 165 -106 265 -282 265h-357zM1207 1590c0 -5 -1 -10 -1 -13h-116c0 4 1 10 1 14
c0 93 -84 159 -199 159s-199 -68 -220 -173h-118c26 166 164 274 342 274c186 0 311 -107 311 -261z" />
    <glyph glyph-name="Racute" unicode="&#x154;" horiz-adv-x="1311" 
d="M772 1577l373 297h175l-389 -297h-159zM128 0l308 1443h474c260 0 422 -144 422 -374c0 -231 -159 -412 -403 -457l219 -612h-149l-206 591h-12h-387l-127 -591h-139zM549 1321l-129 -607h375c233 0 393 139 393 342c0 165 -106 265 -282 265h-357z" />
    <glyph glyph-name="Rdotbelow" unicode="&#x1e5a;" horiz-adv-x="1311" 
d="M569 -364c-58 0 -105 47 -105 105c0 57 47 104 105 104c57 0 104 -47 104 -104c0 -58 -47 -105 -104 -105zM128 0l308 1443h474c260 0 422 -144 422 -374c0 -231 -159 -412 -403 -457l219 -612h-149l-206 591h-12h-387l-127 -591h-139zM549 1321l-129 -607h375
c233 0 393 139 393 342c0 165 -106 265 -282 265h-357z" />
    <glyph glyph-name="Rdotaccent" unicode="&#x1e58;" horiz-adv-x="1311" 
d="M871 1577c-58 0 -105 46 -105 104s47 105 105 105s105 -47 105 -105s-47 -104 -105 -104zM128 0l308 1443h474c260 0 422 -144 422 -374c0 -231 -159 -412 -403 -457l219 -612h-149l-206 591h-12h-387l-127 -591h-139zM549 1321l-129 -607h375c233 0 393 139 393 342
c0 165 -106 265 -282 265h-357z" />
    <glyph glyph-name="Rcommaaccent" unicode="&#x156;" horiz-adv-x="1311" 
d="M128 0l308 1443h474c260 0 422 -144 422 -374c0 -231 -159 -412 -403 -457l219 -612h-149l-206 591h-12h-387l-127 -591h-139zM549 1321l-129 -607h375c233 0 393 139 393 342c0 165 -106 265 -282 265h-357zM498 -506h-128l180 364h141z" />
    <glyph glyph-name="Rcommaaccent.mini" horiz-adv-x="1311" 
d="M128 0l308 1443h474c260 0 422 -144 422 -374c0 -231 -159 -412 -403 -457l219 -612h-149l-206 591h-12h-387l-127 -591h-139zM549 1321l-129 -607h375c233 0 393 139 393 342c0 165 -106 265 -282 265h-357zM512 -432h-110l144 289h136z" />
    <glyph glyph-name="S" unicode="S" horiz-adv-x="1267" 
d="M126 392h139c24 -178 187 -297 405 -297c220 0 368 115 368 288c0 122 -74 208 -263 274l-136 48c-211 74 -318 202 -318 365c0 232 210 403 494 403c269 0 476 -166 496 -398h-137c-31 166 -175 273 -368 273c-198 0 -342 -112 -342 -267c0 -113 76 -195 257 -260
l133 -47c227 -82 329 -207 329 -376c0 -253 -214 -428 -523 -428c-296 0 -506 166 -534 422z" />
    <glyph glyph-name="Scaron" unicode="&#x160;" horiz-adv-x="1267" 
d="M126 392h139c24 -178 187 -297 405 -297c220 0 368 115 368 288c0 122 -74 208 -263 274l-136 48c-211 74 -318 202 -318 365c0 232 210 403 494 403c269 0 476 -166 496 -398h-137c-31 166 -175 273 -368 273c-198 0 -342 -112 -342 -267c0 -113 76 -195 257 -260
l133 -47c227 -82 329 -207 329 -376c0 -253 -214 -428 -523 -428c-296 0 -506 166 -534 422zM823 1577l-189 297h143l126 -208h12l214 208h160l-315 -297h-151z" />
    <glyph glyph-name="Scedilla" unicode="&#x15e;" horiz-adv-x="1267" 
d="M721 821l133 -47c227 -82 329 -207 329 -376c0 -246 -202 -418 -496 -428l-70 -109c117 -12 180 -66 180 -155c0 -109 -97 -186 -233 -186c-56 0 -125 14 -171 37l18 87c36 -18 103 -32 151 -32c72 0 120 34 120 87c0 52 -49 84 -136 87l-52 1l11 72l75 115
c-254 28 -429 186 -454 418h139c24 -178 187 -297 405 -297c220 0 368 115 368 288c0 122 -74 208 -263 274l-136 48c-211 74 -318 202 -318 365c0 232 210 403 494 403c269 0 476 -166 496 -398h-137c-31 166 -175 273 -368 273c-198 0 -342 -112 -342 -267
c0 -113 76 -195 257 -260z" />
    <glyph glyph-name="Sdotaccent" unicode="&#x1e60;" horiz-adv-x="1267" 
d="M913 1577c-58 0 -105 46 -105 104s47 105 105 105s105 -47 105 -105s-47 -104 -105 -104zM126 392h139c24 -178 187 -297 405 -297c220 0 368 115 368 288c0 122 -74 208 -263 274l-136 48c-211 74 -318 202 -318 365c0 232 210 403 494 403c269 0 476 -166 496 -398
h-137c-31 166 -175 273 -368 273c-198 0 -342 -112 -342 -267c0 -113 76 -195 257 -260l133 -47c227 -82 329 -207 329 -376c0 -253 -214 -428 -523 -428c-296 0 -506 166 -534 422z" />
    <glyph glyph-name="Sdotbelow" unicode="&#x1e62;" horiz-adv-x="1267" 
d="M594 -364c-58 0 -105 47 -105 105c0 57 47 104 105 104c57 0 104 -47 104 -104c0 -58 -47 -105 -104 -105zM126 392h139c24 -178 187 -297 405 -297c220 0 368 115 368 288c0 122 -74 208 -263 274l-136 48c-211 74 -318 202 -318 365c0 232 210 403 494 403
c269 0 476 -166 496 -398h-137c-31 166 -175 273 -368 273c-198 0 -342 -112 -342 -267c0 -113 76 -195 257 -260l133 -47c227 -82 329 -207 329 -376c0 -253 -214 -428 -523 -428c-296 0 -506 166 -534 422z" />
    <glyph glyph-name="Scommaaccent" unicode="&#x218;" horiz-adv-x="1267" 
d="M126 392h139c24 -178 187 -297 405 -297c220 0 368 115 368 288c0 122 -74 208 -263 274l-136 48c-211 74 -318 202 -318 365c0 232 210 403 494 403c269 0 476 -166 496 -398h-137c-31 166 -175 273 -368 273c-198 0 -342 -112 -342 -267c0 -113 76 -195 257 -260
l133 -47c227 -82 329 -207 329 -376c0 -253 -214 -428 -523 -428c-296 0 -506 166 -534 422zM523 -506h-128l180 364h141z" />
    <glyph glyph-name="Sdotbelowdotaccent" unicode="&#x1e68;" horiz-adv-x="1267" 
d="M594 -364c-58 0 -105 47 -105 105c0 57 47 104 105 104c57 0 104 -47 104 -104c0 -58 -47 -105 -104 -105zM126 392h139c24 -178 187 -297 405 -297c220 0 368 115 368 288c0 122 -74 208 -263 274l-136 48c-211 74 -318 202 -318 365c0 232 210 403 494 403
c269 0 476 -166 496 -398h-137c-31 166 -175 273 -368 273c-198 0 -342 -112 -342 -267c0 -113 76 -195 257 -260l133 -47c227 -82 329 -207 329 -376c0 -253 -214 -428 -523 -428c-296 0 -506 166 -534 422zM913 1577c-58 0 -105 46 -105 104s47 105 105 105
s105 -47 105 -105s-47 -104 -105 -104z" />
    <glyph glyph-name="Scarondotaccent" unicode="&#x1e66;" horiz-adv-x="1267" 
d="M971 1850c-57 0 -103 46 -103 103s46 103 103 103s103 -46 103 -103s-46 -103 -103 -103zM823 1577l-237 224h164l151 -147h11l212 147h181l-331 -224h-151zM126 392h139c24 -178 187 -297 405 -297c220 0 368 115 368 288c0 122 -74 208 -263 274l-136 48
c-211 74 -318 202 -318 365c0 232 210 403 494 403c269 0 476 -166 496 -398h-137c-31 166 -175 273 -368 273c-198 0 -342 -112 -342 -267c0 -113 76 -195 257 -260l133 -47c227 -82 329 -207 329 -376c0 -253 -214 -428 -523 -428c-296 0 -506 166 -534 422z" />
    <glyph glyph-name="Scircumflex" unicode="&#x15c;" horiz-adv-x="1267" 
d="M126 392h139c24 -178 187 -297 405 -297c220 0 368 115 368 288c0 122 -74 208 -263 274l-136 48c-211 74 -318 202 -318 365c0 232 210 403 494 403c269 0 476 -166 496 -398h-137c-31 166 -175 273 -368 273c-198 0 -342 -112 -342 -267c0 -113 76 -195 257 -260
l133 -47c227 -82 329 -207 329 -376c0 -253 -214 -428 -523 -428c-296 0 -506 166 -534 422zM1021 1874l189 -297h-143l-126 208h-12l-214 -208h-160l315 297h151z" />
    <glyph glyph-name="Sacutedotaccent" unicode="&#x1e64;" horiz-adv-x="1267" 
d="M910 1577l373 297h175l-389 -297h-159zM766 1654c-58 0 -105 46 -105 104s47 105 105 105s105 -47 105 -105s-47 -104 -105 -104zM126 392h139c24 -178 187 -297 405 -297c220 0 368 115 368 288c0 122 -74 208 -263 274l-136 48c-211 74 -318 202 -318 365
c0 232 210 403 494 403c269 0 476 -166 496 -398h-137c-31 166 -175 273 -368 273c-198 0 -342 -112 -342 -267c0 -113 76 -195 257 -260l133 -47c227 -82 329 -207 329 -376c0 -253 -214 -428 -523 -428c-296 0 -506 166 -534 422z" />
    <glyph glyph-name="Sacute" unicode="&#x15a;" horiz-adv-x="1267" 
d="M814 1577l373 297h175l-389 -297h-159zM126 392h139c24 -178 187 -297 405 -297c220 0 368 115 368 288c0 122 -74 208 -263 274l-136 48c-211 74 -318 202 -318 365c0 232 210 403 494 403c269 0 476 -166 496 -398h-137c-31 166 -175 273 -368 273
c-198 0 -342 -112 -342 -267c0 -113 76 -195 257 -260l133 -47c227 -82 329 -207 329 -376c0 -253 -214 -428 -523 -428c-296 0 -506 166 -534 422z" />
    <glyph glyph-name="Scommaaccent.mini" horiz-adv-x="1267" 
d="M126 392h139c24 -178 187 -297 405 -297c220 0 368 115 368 288c0 122 -74 208 -263 274l-136 48c-211 74 -318 202 -318 365c0 232 210 403 494 403c269 0 476 -166 496 -398h-137c-31 166 -175 273 -368 273c-198 0 -342 -112 -342 -267c0 -113 76 -195 257 -260
l133 -47c227 -82 329 -207 329 -376c0 -253 -214 -428 -523 -428c-296 0 -506 166 -534 422zM537 -432h-110l144 289h136z" />
    <glyph glyph-name="Scedilla.mini" horiz-adv-x="1267" 
d="M721 821l133 -47c227 -82 329 -207 329 -376c0 -249 -207 -422 -508 -428l-59 -91c119 -7 180 -59 180 -150c0 -99 -90 -161 -225 -161c-38 0 -104 12 -138 28l17 80c32 -14 78 -23 117 -23c72 0 118 26 118 73s-42 75 -129 78l-61 2l10 56l70 113
c-251 29 -424 186 -449 417h139c24 -178 187 -297 405 -297c220 0 368 115 368 288c0 122 -74 208 -263 274l-136 48c-211 74 -318 202 -318 365c0 232 210 403 494 403c269 0 476 -166 496 -398h-137c-31 166 -175 273 -368 273c-198 0 -342 -112 -342 -267
c0 -113 76 -195 257 -260z" />
    <glyph glyph-name="S.mini" horiz-adv-x="1284" 
d="M58 375h138c21 -165 192 -280 412 -280c227 0 363 97 363 252c0 116 -71 189 -242 246l-164 54c-209 69 -320 176 -320 346c0 222 193 371 490 371c271 0 482 -159 499 -383h-137c-24 157 -170 259 -366 259c-211 0 -346 -91 -346 -238c0 -105 81 -178 244 -233l150 -50
c218 -74 332 -185 332 -358c0 -242 -193 -391 -515 -391c-298 0 -519 165 -538 405z" />
    <glyph glyph-name="Scarondotaccent.mini" horiz-adv-x="1284" 
d="M58 375h138c21 -165 192 -280 412 -280c227 0 363 97 363 252c0 116 -71 189 -242 246l-164 54c-209 69 -320 176 -320 346c0 222 193 371 490 371c271 0 482 -159 499 -383h-137c-24 157 -170 259 -366 259c-211 0 -346 -91 -346 -238c0 -105 81 -178 244 -233l150 -50
c218 -74 332 -185 332 -358c0 -242 -193 -391 -515 -391c-298 0 -519 165 -538 405zM717 1469l-237 224h164l151 -147h11l212 147h181l-331 -224h-151zM862 1732c-57 0 -103 46 -103 103s46 103 103 103s104 -46 104 -103s-47 -103 -104 -103z" />
    <glyph glyph-name="T" unicode="T" horiz-adv-x="1275" 
d="M651 0h-140l281 1319h-482l25 124h1104l-26 -124h-482z" />
    <glyph glyph-name="Tcircumflexbelow" unicode="&#x1e70;" horiz-adv-x="1280" 
d="M651 0h-140l281 1319h-482l25 124h1104l-26 -124h-482zM615 -143l227 -289h-154l-148 197h-11l-232 -197h-157l351 289h124z" />
    <glyph glyph-name="Tdotbelow" unicode="&#x1e6c;" horiz-adv-x="1280" 
d="M528 -364c-58 0 -105 47 -105 105c0 57 47 104 105 104c57 0 104 -47 104 -104c0 -58 -47 -105 -104 -105zM651 0h-140l281 1319h-482l25 124h1104l-26 -124h-482z" />
    <glyph glyph-name="Tcommaaccent" unicode="&#x21a;" horiz-adv-x="1280" 
d="M457 -506h-128l180 364h141zM651 0h-140l281 1319h-482l25 124h1104l-26 -124h-482z" />
    <glyph glyph-name="Tdotaccent" unicode="&#x1e6a;" horiz-adv-x="1280" 
d="M944 1577c-58 0 -105 46 -105 104s47 105 105 105s105 -47 105 -105s-47 -104 -105 -104zM651 0h-140l281 1319h-482l25 124h1104l-26 -124h-482z" />
    <glyph glyph-name="Tcedilla" unicode="&#x162;" horiz-adv-x="1280" 
d="M335 1443h1104l-26 -124h-482l-280 -1319h-18l-89 -139c117 -12 180 -66 180 -155c0 -109 -97 -186 -233 -186c-56 0 -125 14 -171 37l18 87c36 -18 103 -32 151 -32c72 0 120 34 120 87c0 52 -49 84 -136 87l-52 1l11 72l91 141h-12l281 1319h-482z" />
    <glyph glyph-name="Tlinebelow" unicode="&#x1e6e;" horiz-adv-x="1280" 
d="M840 -309h-644l22 105h645zM651 0h-140l281 1319h-482l25 124h1104l-26 -124h-482z" />
    <glyph glyph-name="Tcaron" unicode="&#x164;" horiz-adv-x="1280" 
d="M854 1577l-189 297h143l126 -208h12l214 208h160l-315 -297h-151zM651 0h-140l281 1319h-482l25 124h1104l-26 -124h-482z" />
    <glyph glyph-name="Tbar" unicode="&#x166;" horiz-adv-x="1280" 
d="M1413 1319h-482l-113 -531h305l-23 -110h-305l-144 -678h-140l144 678h-299l23 110h300l113 531h-482l25 124h1104z" />
    <glyph glyph-name="Tcommaaccent.mini" horiz-adv-x="1280" 
d="M471 -432h-110l144 289h136zM651 0h-140l281 1319h-482l25 124h1104l-26 -124h-482z" />
    <glyph glyph-name="Tcedilla.mini" horiz-adv-x="1275" 
d="M335 1443h1104l-26 -124h-482l-280 -1319h-26l-78 -121c119 -7 180 -59 180 -150c0 -99 -90 -161 -225 -161c-38 0 -104 12 -138 28l17 80c32 -14 78 -23 117 -23c72 0 118 26 118 73s-42 75 -129 78l-61 2l10 56l86 138h-11l281 1319h-482z" />
    <glyph glyph-name="U" unicode="U" horiz-adv-x="1499" 
d="M731 -26c-317 0 -494 187 -496 440c0 45 4 87 13 132l190 897h139l-188 -890c-9 -45 -14 -92 -13 -132c5 -201 139 -321 378 -321c230 0 413 144 464 387l205 956h139l-209 -981c-66 -307 -283 -488 -622 -488z" />
    <glyph glyph-name="Ugrave" unicode="&#xd9;" horiz-adv-x="1499" 
d="M904 1874l184 -297h-141l-200 297h157zM731 -26c-317 0 -494 187 -496 440c0 45 4 87 13 132l190 897h139l-188 -890c-9 -45 -14 -92 -13 -132c5 -201 139 -321 378 -321c230 0 413 144 464 387l205 956h139l-209 -981c-66 -307 -283 -488 -622 -488z" />
    <glyph glyph-name="Udblgrave" unicode="&#x214;" horiz-adv-x="1499" 
d="M928 1577h-155l-200 297h171zM1291 1577h-155l-200 297h171zM731 -26c-317 0 -494 187 -496 440c0 45 4 87 13 132l190 897h139l-188 -890c-9 -45 -14 -92 -13 -132c5 -201 139 -321 378 -321c230 0 413 144 464 387l205 956h139l-209 -981c-66 -307 -283 -488 -622 -488
z" />
    <glyph glyph-name="Uacute" unicode="&#xda;" horiz-adv-x="1499" 
d="M952 1577l373 297h175l-389 -297h-159zM731 -26c-317 0 -494 187 -496 440c0 45 4 87 13 132l190 897h139l-188 -890c-9 -45 -14 -92 -13 -132c5 -201 139 -321 378 -321c230 0 413 144 464 387l205 956h139l-209 -981c-66 -307 -283 -488 -622 -488z" />
    <glyph glyph-name="Uhungarumlaut" unicode="&#x170;" horiz-adv-x="1499" 
d="M731 -26c-317 0 -494 187 -496 440c0 45 4 87 13 132l190 897h139l-188 -890c-9 -45 -14 -92 -13 -132c5 -201 139 -321 378 -321c230 0 413 144 464 387l205 956h139l-209 -981c-66 -307 -283 -488 -622 -488zM1120 1577l373 297h175l-389 -297h-159zM757 1577l373 297
h175l-389 -297h-159z" />
    <glyph glyph-name="Ucircumflex" unicode="&#xdb;" horiz-adv-x="1499" 
d="M1168 1874l189 -297h-143l-126 208h-12l-214 -208h-160l315 297h151zM731 -26c-317 0 -494 187 -496 440c0 45 4 87 13 132l190 897h139l-188 -890c-9 -45 -14 -92 -13 -132c5 -201 139 -321 378 -321c230 0 413 144 464 387l205 956h139l-209 -981
c-66 -307 -283 -488 -622 -488z" />
    <glyph glyph-name="Ucaron" unicode="&#x1d3;" horiz-adv-x="1499" 
d="M961 1577l-189 297h143l126 -208h12l214 208h160l-315 -297h-151zM731 -26c-317 0 -494 187 -496 440c0 45 4 87 13 132l190 897h139l-188 -890c-9 -45 -14 -92 -13 -132c5 -201 139 -321 378 -321c230 0 413 144 464 387l205 956h139l-209 -981
c-66 -307 -283 -488 -622 -488z" />
    <glyph glyph-name="Ucircumflexbelow" unicode="&#x1e76;" horiz-adv-x="1499" 
d="M731 -26c-317 0 -494 187 -496 440c0 45 4 87 13 132l190 897h139l-188 -890c-9 -45 -14 -92 -13 -132c5 -201 139 -321 378 -321c230 0 413 144 464 387l205 956h139l-209 -981c-66 -307 -283 -488 -622 -488zM737 -143l227 -289h-154l-148 197h-11l-232 -197h-157
l351 289h124z" />
    <glyph glyph-name="Udieresis" unicode="&#xdc;" horiz-adv-x="1499" 
d="M866 1568c-57 0 -102 45 -102 102s45 102 102 102c56 0 102 -45 102 -102s-46 -102 -102 -102zM1229 1568c-56 0 -102 45 -102 102s46 102 102 102c57 0 102 -45 102 -102s-45 -102 -102 -102zM731 -26c-317 0 -494 187 -496 440c0 45 4 87 13 132l190 897h139l-188 -890
c-9 -45 -14 -92 -13 -132c5 -201 139 -321 378 -321c230 0 413 144 464 387l205 956h139l-209 -981c-66 -307 -283 -488 -622 -488z" />
    <glyph glyph-name="Udieresisgrave" unicode="&#x1db;" horiz-adv-x="1499" 
d="M1137 1839h-136l-221 217h173zM875 1568c-57 0 -102 45 -102 102s45 102 102 102c56 0 102 -45 102 -102s-46 -102 -102 -102zM1238 1568c-56 0 -102 45 -102 102s46 102 102 102c57 0 102 -45 102 -102s-45 -102 -102 -102zM731 -26c-317 0 -494 187 -496 440
c0 45 4 87 13 132l190 897h139l-188 -890c-9 -45 -14 -92 -13 -132c5 -201 139 -321 378 -321c230 0 413 144 464 387l205 956h139l-209 -981c-66 -307 -283 -488 -622 -488z" />
    <glyph glyph-name="Udieresisacute" unicode="&#x1d7;" horiz-adv-x="1499" 
d="M979 1839l272 217h175l-307 -217h-140zM859 1568c-57 0 -102 45 -102 102s45 102 102 102c56 0 102 -45 102 -102s-46 -102 -102 -102zM1222 1568c-56 0 -102 45 -102 102s46 102 102 102c57 0 102 -45 102 -102s-45 -102 -102 -102zM731 -26c-317 0 -494 187 -496 440
c0 45 4 87 13 132l190 897h139l-188 -890c-9 -45 -14 -92 -13 -132c5 -201 139 -321 378 -321c230 0 413 144 464 387l205 956h139l-209 -981c-66 -307 -283 -488 -622 -488z" />
    <glyph glyph-name="Udieresismacron" unicode="&#x1d5;" horiz-adv-x="1499" 
d="M731 -26c-317 0 -494 187 -496 440c0 45 4 87 13 132l190 897h139l-188 -890c-9 -45 -14 -92 -13 -132c5 -201 139 -321 378 -321c230 0 413 144 464 387l205 956h139l-209 -981c-66 -307 -283 -488 -622 -488zM778 1915l21 101h645l-22 -101h-644zM871 1580
c-55 0 -99 44 -99 99s44 99 99 99s99 -44 99 -99s-44 -99 -99 -99zM1235 1580c-55 0 -99 44 -99 99s44 99 99 99s99 -44 99 -99s-44 -99 -99 -99z" />
    <glyph glyph-name="Udieresiscaron" unicode="&#x1d9;" horiz-adv-x="1499" 
d="M868 1580c-55 0 -99 44 -99 99s44 99 99 99c56 0 100 -44 100 -99s-44 -99 -100 -99zM1232 1580c-55 0 -99 44 -99 99s44 99 99 99s99 -44 99 -99s-44 -99 -99 -99zM1015 1832l-236 224h163l151 -146h11l213 146h180l-331 -224h-151zM731 -26c-317 0 -494 187 -496 440
c0 45 4 87 13 132l190 897h139l-188 -890c-9 -45 -14 -92 -13 -132c5 -201 139 -321 378 -321c230 0 413 144 464 387l205 956h139l-209 -981c-66 -307 -283 -488 -622 -488z" />
    <glyph glyph-name="Udieresisbelow" unicode="&#x1e72;" horiz-adv-x="1499" 
d="M731 -26c-317 0 -494 187 -496 440c0 45 4 87 13 132l190 897h139l-188 -890c-9 -45 -14 -92 -13 -132c5 -201 139 -321 378 -321c230 0 413 144 464 387l205 956h139l-209 -981c-66 -307 -283 -488 -622 -488zM462 -392c-57 0 -102 46 -102 102c0 57 45 102 102 102
c56 0 102 -45 102 -102c0 -56 -46 -102 -102 -102zM825 -392c-56 0 -102 46 -102 102c0 57 46 102 102 102c57 0 102 -45 102 -102c0 -56 -45 -102 -102 -102z" />
    <glyph glyph-name="Utildebelow" unicode="&#x1e74;" horiz-adv-x="1499" 
d="M793 -403c-161 0 -187 167 -290 167c-55 0 -103 -42 -115 -136h-111c20 157 114 241 228 241c160 0 187 -167 290 -167c55 0 103 42 115 136h111c-20 -158 -114 -241 -228 -241zM731 -26c-317 0 -494 187 -496 440c0 45 4 87 13 132l190 897h139l-188 -890
c-9 -45 -14 -92 -13 -132c5 -201 139 -321 378 -321c230 0 413 144 464 387l205 956h139l-209 -981c-66 -307 -283 -488 -622 -488z" />
    <glyph glyph-name="Uhookabove" unicode="&#x1ee6;" horiz-adv-x="1499" 
d="M731 -26c-317 0 -494 187 -496 440c0 45 4 87 13 132l190 897h139l-188 -890c-9 -45 -14 -92 -13 -132c5 -201 139 -321 378 -321c230 0 413 144 464 387l205 956h139l-209 -981c-66 -307 -283 -488 -622 -488zM921 1788l19 92c21 9 62 17 99 17c120 0 199 -59 199 -149
c0 -94 -79 -178 -195 -209l-42 83c76 19 120 60 120 112c0 43 -36 68 -103 68c-37 0 -74 -6 -97 -14z" />
    <glyph glyph-name="Ubreve" unicode="&#x16c;" horiz-adv-x="1499" 
d="M731 -26c-317 0 -494 187 -496 440c0 45 4 87 13 132l190 897h139l-188 -890c-9 -45 -14 -92 -13 -132c5 -201 139 -321 378 -321c230 0 413 144 464 387l205 956h139l-209 -981c-66 -307 -283 -488 -622 -488zM728 1837v14h116v-15c0 -92 83 -159 198 -159
s199 68 220 174h118c-26 -167 -164 -274 -342 -274c-185 0 -310 106 -310 260z" />
    <glyph glyph-name="Uinvertedbreve" unicode="&#x216;" horiz-adv-x="1499" 
d="M731 -26c-317 0 -494 187 -496 440c0 45 4 87 13 132l190 897h139l-188 -890c-9 -45 -14 -92 -13 -132c5 -201 139 -321 378 -321c230 0 413 144 464 387l205 956h139l-209 -981c-66 -307 -283 -488 -622 -488zM1387 1590c0 -5 -1 -10 -1 -13h-116c0 4 1 10 1 14
c0 93 -84 159 -199 159s-199 -68 -220 -173h-118c26 166 164 274 342 274c186 0 311 -107 311 -261z" />
    <glyph glyph-name="Utildeacute" unicode="&#x1e78;" horiz-adv-x="1499" 
d="M731 -26c-317 0 -494 187 -496 440c0 45 4 87 13 132l190 897h139l-188 -890c-9 -45 -14 -92 -13 -132c5 -201 139 -321 378 -321c230 0 413 144 464 387l205 956h139l-209 -981c-66 -307 -283 -488 -622 -488zM1014 1845l256 211h169l-276 -211h-149zM1182 1577
c-130 0 -171 128 -256 128c-61 0 -102 -41 -120 -106h-110c23 133 124 211 230 211c129 0 170 -128 255 -128c61 0 102 42 121 106h110c-24 -133 -125 -211 -230 -211z" />
    <glyph glyph-name="Udotbelow" unicode="&#x1ee4;" horiz-adv-x="1499" 
d="M650 -364c-58 0 -105 47 -105 105c0 57 47 104 105 104c57 0 104 -47 104 -104c0 -58 -47 -105 -104 -105zM731 -26c-317 0 -494 187 -496 440c0 45 4 87 13 132l190 897h139l-188 -890c-9 -45 -14 -92 -13 -132c5 -201 139 -321 378 -321c230 0 413 144 464 387l205 956
h139l-209 -981c-66 -307 -283 -488 -622 -488z" />
    <glyph glyph-name="Utilde" unicode="&#x168;" horiz-adv-x="1499" 
d="M731 -26c-317 0 -494 187 -496 440c0 45 4 87 13 132l190 897h139l-188 -890c-9 -45 -14 -92 -13 -132c5 -201 139 -321 378 -321c230 0 413 144 464 387l205 956h139l-209 -981c-66 -307 -283 -488 -622 -488zM1199 1578c-155 0 -192 162 -285 162
c-61 0 -106 -46 -123 -127h-110c25 145 122 231 236 231c153 0 192 -161 284 -161c62 0 105 44 123 126h110c-27 -147 -122 -231 -235 -231z" />
    <glyph glyph-name="Umacron" unicode="&#x16a;" horiz-adv-x="1499" 
d="M731 -26c-317 0 -494 187 -496 440c0 45 4 87 13 132l190 897h139l-188 -890c-9 -45 -14 -92 -13 -132c5 -201 139 -321 378 -321c230 0 413 144 464 387l205 956h139l-209 -981c-66 -307 -283 -488 -622 -488zM1359 1619h-644l22 105h645z" />
    <glyph glyph-name="Umacrondieresis" unicode="&#x1e7a;" horiz-adv-x="1499" 
d="M715 1619l22 101h644l-22 -101h-644zM924 1853c-56 0 -100 44 -100 100c0 55 44 99 100 99c55 0 99 -44 99 -99c0 -56 -44 -100 -99 -100zM1287 1853c-55 0 -99 44 -99 100c0 55 44 99 99 99s100 -44 100 -99c0 -56 -45 -100 -100 -100zM731 -26
c-317 0 -494 187 -496 440c0 45 4 87 13 132l190 897h139l-188 -890c-9 -45 -14 -92 -13 -132c5 -201 139 -321 378 -321c230 0 413 144 464 387l205 956h139l-209 -981c-66 -307 -283 -488 -622 -488z" />
    <glyph glyph-name="Uring" unicode="&#x16e;" horiz-adv-x="1499" 
d="M1066 1563c-101 0 -183 80 -183 182c0 101 82 181 183 181c102 0 183 -80 183 -181c0 -102 -81 -182 -183 -182zM1066 1635c63 0 110 48 110 110s-47 109 -110 109c-62 0 -109 -47 -109 -109s47 -110 109 -110zM731 -26c-317 0 -494 187 -496 440c0 45 4 87 13 132
l190 897h139l-188 -890c-9 -45 -14 -92 -13 -132c5 -201 139 -321 378 -321c230 0 413 144 464 387l205 956h139l-209 -981c-66 -307 -283 -488 -622 -488z" />
    <glyph glyph-name="Uogonek" unicode="&#x172;" horiz-adv-x="1499" 
d="M883 -416c-130 0 -222 75 -222 179c0 84 69 165 168 211l3 16c-19 -7 -71 -16 -101 -16c-317 0 -496 187 -496 441c0 44 4 85 13 131l190 897h139l-188 -890c-8 -41 -13 -85 -13 -124c0 -205 130 -329 378 -329c232 0 413 147 464 387l205 956h139l-209 -981
c-43 -200 -156 -345 -314 -425c-157 -79 -243 -168 -243 -245c0 -61 53 -99 136 -99c17 0 29 1 39 3l-22 -103c-19 -5 -43 -9 -66 -9z" />
    <glyph glyph-name="Uhorn" unicode="&#x1af;" horiz-adv-x="1642" 
d="M731 -26c-317 0 -496 187 -496 439c0 46 4 89 13 133l190 897h139l-188 -890c-9 -45 -13 -92 -13 -132c0 -201 139 -321 378 -321c230 0 413 144 464 387l205 956h153c90 0 125 35 139 98l27 132h123l-33 -156c-23 -112 -105 -170 -218 -170h-73l-188 -885
c-65 -307 -283 -488 -622 -488z" />
    <glyph glyph-name="Uhorngrave" unicode="&#x1eea;" horiz-adv-x="1642" 
d="M904 1874l184 -297h-141l-200 297h157zM731 -26c-317 0 -496 187 -496 439c0 46 4 89 13 133l190 897h139l-188 -890c-9 -45 -13 -92 -13 -132c0 -201 139 -321 378 -321c230 0 413 144 464 387l205 956h153c90 0 125 35 139 98l27 132h123l-33 -156
c-23 -112 -105 -170 -218 -170h-73l-188 -885c-65 -307 -283 -488 -622 -488z" />
    <glyph glyph-name="Uhornacute" unicode="&#x1ee8;" horiz-adv-x="1642" 
d="M952 1577l373 297h175l-389 -297h-159zM731 -26c-317 0 -496 187 -496 439c0 46 4 89 13 133l190 897h139l-188 -890c-9 -45 -13 -92 -13 -132c0 -201 139 -321 378 -321c230 0 413 144 464 387l205 956h153c90 0 125 35 139 98l27 132h123l-33 -156
c-23 -112 -105 -170 -218 -170h-73l-188 -885c-65 -307 -283 -488 -622 -488z" />
    <glyph glyph-name="Uhorndotbelow" unicode="&#x1ef0;" horiz-adv-x="1642" 
d="M650 -364c-58 0 -105 47 -105 105c0 57 47 104 105 104c57 0 104 -47 104 -104c0 -58 -47 -105 -104 -105zM731 -26c-317 0 -496 187 -496 439c0 46 4 89 13 133l190 897h139l-188 -890c-9 -45 -13 -92 -13 -132c0 -201 139 -321 378 -321c230 0 413 144 464 387l205 956
h153c90 0 125 35 139 98l27 132h123l-33 -156c-23 -112 -105 -170 -218 -170h-73l-188 -885c-65 -307 -283 -488 -622 -488z" />
    <glyph glyph-name="Uhornhookabove" unicode="&#x1eec;" horiz-adv-x="1642" 
d="M921 1788l19 92c21 9 62 17 99 17c120 0 199 -59 199 -149c0 -94 -79 -178 -195 -209l-42 83c76 19 120 60 120 112c0 43 -36 68 -103 68c-37 0 -74 -6 -97 -14zM731 -26c-317 0 -496 187 -496 439c0 46 4 89 13 133l190 897h139l-188 -890c-9 -45 -13 -92 -13 -132
c0 -201 139 -321 378 -321c230 0 413 144 464 387l205 956h153c90 0 125 35 139 98l27 132h123l-33 -156c-23 -112 -105 -170 -218 -170h-73l-188 -885c-65 -307 -283 -488 -622 -488z" />
    <glyph glyph-name="Uhorntilde" unicode="&#x1eee;" horiz-adv-x="1642" 
d="M1199 1578c-155 0 -192 162 -285 162c-61 0 -106 -46 -123 -127h-110c25 145 122 231 236 231c153 0 192 -161 284 -161c62 0 105 44 123 126h110c-27 -147 -122 -231 -235 -231zM731 -26c-317 0 -496 187 -496 439c0 46 4 89 13 133l190 897h139l-188 -890
c-9 -45 -13 -92 -13 -132c0 -201 139 -321 378 -321c230 0 413 144 464 387l205 956h153c90 0 125 35 139 98l27 132h123l-33 -156c-23 -112 -105 -170 -218 -170h-73l-188 -885c-65 -307 -283 -488 -622 -488z" />
    <glyph glyph-name="Uogonek.mini" horiz-adv-x="1499" 
d="M883 -416c-130 0 -222 75 -222 179c0 84 69 165 168 211l3 16c-19 -7 -71 -16 -101 -16c-317 0 -496 187 -496 441c0 44 4 85 13 131l190 897h139l-188 -890c-8 -41 -13 -85 -13 -124c0 -205 130 -329 378 -329c232 0 413 147 464 387l205 956h139l-209 -981
c-43 -200 -156 -345 -314 -425c-157 -79 -243 -168 -243 -245c0 -61 53 -99 136 -99c17 0 29 1 39 3l-22 -103c-19 -5 -43 -9 -66 -9z" />
    <glyph glyph-name="U.mini" horiz-adv-x="1494" 
d="M414 1335h139l-169 -792c-7 -35 -11 -72 -11 -105c0 -207 150 -339 393 -339c237 0 413 149 461 376l183 860h139l-188 -880c-62 -293 -293 -483 -604 -483c-325 0 -525 182 -525 445c0 44 5 86 14 130z" />
    <glyph glyph-name="Udieresismacron.mini" horiz-adv-x="1494" 
d="M414 1335h139l-169 -792c-7 -35 -11 -72 -11 -105c0 -207 150 -339 393 -339c237 0 413 149 461 376l183 860h139l-188 -880c-62 -293 -293 -483 -604 -483c-325 0 -525 182 -525 445c0 44 5 86 14 130zM761 1807l21 101h645l-22 -101h-644zM851 1469
c-57 0 -102 45 -102 102c0 56 45 102 102 102c56 0 102 -46 102 -102c0 -57 -46 -102 -102 -102zM1215 1469c-57 0 -103 45 -103 102c0 56 46 102 103 102c56 0 102 -46 102 -102c0 -57 -46 -102 -102 -102z" />
    <glyph glyph-name="Udieresiscaron.mini" horiz-adv-x="1494" 
d="M414 1335h139l-169 -792c-7 -35 -11 -72 -11 -105c0 -207 150 -339 393 -339c237 0 413 149 461 376l183 860h139l-188 -880c-62 -293 -293 -483 -604 -483c-325 0 -525 182 -525 445c0 44 5 86 14 130zM851 1469c-57 0 -102 45 -102 102c0 56 45 102 102 102
c56 0 102 -46 102 -102c0 -57 -46 -102 -102 -102zM1215 1469c-57 0 -103 45 -103 102c0 56 46 102 103 102c56 0 102 -46 102 -102c0 -57 -46 -102 -102 -102zM999 1724l-237 224h164l150 -146h12l212 146h180l-331 -224h-150z" />
    <glyph glyph-name="Udieresisacute.mini" horiz-adv-x="1494" 
d="M961 1731l271 217h176l-308 -217h-139zM851 1469c-57 0 -102 45 -102 102c0 56 45 102 102 102c56 0 102 -46 102 -102c0 -57 -46 -102 -102 -102zM1215 1469c-57 0 -103 45 -103 102c0 56 46 102 103 102c56 0 102 -46 102 -102c0 -57 -46 -102 -102 -102zM414 1335h139
l-169 -792c-7 -35 -11 -72 -11 -105c0 -207 150 -339 393 -339c237 0 413 149 461 376l183 860h139l-188 -880c-62 -293 -293 -483 -604 -483c-325 0 -525 182 -525 445c0 44 5 86 14 130z" />
    <glyph glyph-name="Udieresisgrave.mini" horiz-adv-x="1494" 
d="M414 1335h139l-169 -792c-7 -35 -11 -72 -11 -105c0 -207 150 -339 393 -339c237 0 413 149 461 376l183 860h139l-188 -880c-62 -293 -293 -483 -604 -483c-325 0 -525 182 -525 445c0 44 5 86 14 130zM1118 1731h-137l-221 217h174zM851 1469c-57 0 -102 45 -102 102
c0 56 45 102 102 102c56 0 102 -46 102 -102c0 -57 -46 -102 -102 -102zM1215 1469c-57 0 -103 45 -103 102c0 56 46 102 103 102c56 0 102 -46 102 -102c0 -57 -46 -102 -102 -102z" />
    <glyph glyph-name="Utildeacute.mini" horiz-adv-x="1494" 
d="M414 1335h139l-169 -792c-7 -35 -11 -72 -11 -105c0 -207 150 -339 393 -339c237 0 413 149 461 376l183 860h139l-188 -880c-62 -293 -293 -483 -604 -483c-325 0 -525 182 -525 445c0 44 5 86 14 130zM999 1737l250 201h169l-271 -201h-148zM1165 1469
c-130 0 -171 128 -256 128c-61 0 -102 -41 -120 -106h-110c23 133 124 211 230 211c129 0 170 -128 255 -128c61 0 102 42 121 106h110c-24 -133 -125 -211 -230 -211z" />
    <glyph glyph-name="Umacrondieresis.mini" horiz-adv-x="1494" 
d="M698 1511l22 101h644l-22 -101h-644zM906 1735c-55 0 -99 44 -99 99c0 56 44 100 99 100s99 -44 99 -100c0 -55 -44 -99 -99 -99zM1270 1735c-55 0 -100 44 -100 99c0 56 45 100 100 100s99 -44 99 -100c0 -55 -44 -99 -99 -99zM414 1335h139l-169 -792
c-7 -35 -11 -72 -11 -105c0 -207 150 -339 393 -339c237 0 413 149 461 376l183 860h139l-188 -880c-62 -293 -293 -483 -604 -483c-325 0 -525 182 -525 445c0 44 5 86 14 130z" />
    <glyph glyph-name="V" unicode="V" horiz-adv-x="1363" 
d="M693 0h-135l-234 1443h130l202 -1259h12l720 1259h151z" />
    <glyph glyph-name="Vtilde" unicode="&#x1e7c;" horiz-adv-x="1363" 
d="M1127 1578c-155 0 -192 162 -285 162c-61 0 -106 -46 -123 -127h-110c25 145 122 231 236 231c153 0 192 -161 284 -161c62 0 105 44 123 126h110c-27 -147 -122 -231 -235 -231zM693 0h-135l-234 1443h130l202 -1259h12l720 1259h151z" />
    <glyph glyph-name="Vdotbelow" unicode="&#x1e7e;" horiz-adv-x="1363" 
d="M572 -364c-58 0 -105 47 -105 105c0 57 47 104 105 104c57 0 104 -47 104 -104c0 -58 -47 -105 -104 -105zM693 0h-135l-234 1443h130l202 -1259h12l720 1259h151z" />
    <glyph glyph-name="W" unicode="W" horiz-adv-x="1958" 
d="M1169 1206l-600 -1206h-133l-91 1443h127l68 -1230h10l608 1230h123l100 -1230h9l581 1230h142l-699 -1443h-133l-102 1206h-10z" />
    <glyph glyph-name="Wgrave" unicode="&#x1e80;" horiz-adv-x="1958" 
d="M1132 1874l184 -297h-141l-200 297h157zM1169 1206l-600 -1206h-133l-91 1443h127l68 -1230h10l608 1230h123l100 -1230h9l581 1230h142l-699 -1443h-133l-102 1206h-10z" />
    <glyph glyph-name="Wacute" unicode="&#x1e82;" horiz-adv-x="1958" 
d="M1180 1577l373 297h175l-389 -297h-159zM1169 1206l-600 -1206h-133l-91 1443h127l68 -1230h10l608 1230h123l100 -1230h9l581 1230h142l-699 -1443h-133l-102 1206h-10z" />
    <glyph glyph-name="Wdotaccent" unicode="&#x1e86;" horiz-adv-x="1958" 
d="M1279 1577c-58 0 -105 46 -105 104s47 105 105 105s105 -47 105 -105s-47 -104 -105 -104zM1169 1206l-600 -1206h-133l-91 1443h127l68 -1230h10l608 1230h123l100 -1230h9l581 1230h142l-699 -1443h-133l-102 1206h-10z" />
    <glyph glyph-name="Wdotbelow" unicode="&#x1e88;" horiz-adv-x="1958" 
d="M862 -364c-58 0 -105 47 -105 105c0 57 47 104 105 104c57 0 104 -47 104 -104c0 -58 -47 -105 -104 -105zM1169 1206l-600 -1206h-133l-91 1443h127l68 -1230h10l608 1230h123l100 -1230h9l581 1230h142l-699 -1443h-133l-102 1206h-10z" />
    <glyph glyph-name="Wdieresis" unicode="&#x1e84;" horiz-adv-x="1958" 
d="M1094 1568c-57 0 -102 45 -102 102s45 102 102 102c56 0 102 -45 102 -102s-46 -102 -102 -102zM1457 1568c-56 0 -102 45 -102 102s46 102 102 102c57 0 102 -45 102 -102s-45 -102 -102 -102zM1169 1206l-600 -1206h-133l-91 1443h127l68 -1230h10l608 1230h123
l100 -1230h9l581 1230h142l-699 -1443h-133l-102 1206h-10z" />
    <glyph glyph-name="Wcircumflex" unicode="&#x174;" horiz-adv-x="1958" 
d="M1396 1874l189 -297h-143l-126 208h-12l-214 -208h-160l315 297h151zM1169 1206l-600 -1206h-133l-91 1443h127l68 -1230h10l608 1230h123l100 -1230h9l581 1230h142l-699 -1443h-133l-102 1206h-10z" />
    <glyph glyph-name="X" unicode="X" horiz-adv-x="1367" 
d="M39 0l663 744l-337 699h156l282 -609h11l551 609h158l-659 -726l344 -717h-148l-295 618h-11l-558 -618h-157z" />
    <glyph glyph-name="Xdotaccent" unicode="&#x1e8a;" horiz-adv-x="1367" 
d="M39 0l663 744l-337 699h156l282 -609h11l551 609h158l-659 -726l344 -717h-148l-295 618h-11l-558 -618h-157zM985 1577c-58 0 -105 46 -105 104s47 105 105 105s105 -47 105 -105s-47 -104 -105 -104z" />
    <glyph glyph-name="Xdieresis" unicode="&#x1e8c;" horiz-adv-x="1367" 
d="M39 0l663 744l-337 699h156l282 -609h11l551 609h158l-659 -726l344 -717h-148l-295 618h-11l-558 -618h-157zM800 1568c-57 0 -102 45 -102 102s45 102 102 102c56 0 102 -45 102 -102s-46 -102 -102 -102zM1163 1568c-56 0 -102 45 -102 102s46 102 102 102
c57 0 102 -45 102 -102s-45 -102 -102 -102z" />
    <glyph glyph-name="Y" unicode="Y" horiz-adv-x="1321" 
d="M674 0h-139l133 624l-343 819h143l289 -685h12l568 685h159l-695 -837z" />
    <glyph glyph-name="Ygrave" unicode="&#x1ef2;" horiz-adv-x="1321" 
d="M674 0h-139l133 624l-343 819h143l289 -685h12l568 685h159l-695 -837zM814 1874l184 -297h-141l-200 297h157z" />
    <glyph glyph-name="Yacute" unicode="&#xdd;" horiz-adv-x="1321" 
d="M674 0h-139l133 624l-343 819h143l289 -685h12l568 685h159l-695 -837zM862 1577l373 297h175l-389 -297h-159z" />
    <glyph glyph-name="Ydotaccent" unicode="&#x1e8e;" horiz-adv-x="1321" 
d="M674 0h-139l133 624l-343 819h143l289 -685h12l568 685h159l-695 -837zM961 1577c-58 0 -105 46 -105 104s47 105 105 105s105 -47 105 -105s-47 -104 -105 -104z" />
    <glyph glyph-name="Ydotbelow" unicode="&#x1ef4;" horiz-adv-x="1321" 
d="M674 0h-139l133 624l-343 819h143l289 -685h12l568 685h159l-695 -837zM549 -364c-58 0 -105 47 -105 105c0 57 47 104 105 104c57 0 104 -47 104 -104c0 -58 -47 -105 -104 -105z" />
    <glyph glyph-name="Ydieresis" unicode="&#x178;" horiz-adv-x="1321" 
d="M674 0h-139l133 624l-343 819h143l289 -685h12l568 685h159l-695 -837zM776 1568c-57 0 -102 45 -102 102s45 102 102 102c56 0 102 -45 102 -102s-46 -102 -102 -102zM1139 1568c-56 0 -102 45 -102 102s46 102 102 102c57 0 102 -45 102 -102s-45 -102 -102 -102z" />
    <glyph glyph-name="Ytilde" unicode="&#x1ef8;" horiz-adv-x="1321" 
d="M674 0h-139l133 624l-343 819h143l289 -685h12l568 685h159l-695 -837zM1109 1578c-155 0 -192 162 -285 162c-61 0 -106 -46 -123 -127h-110c25 145 122 231 236 231c153 0 192 -161 284 -161c62 0 105 44 123 126h110c-27 -147 -122 -231 -235 -231z" />
    <glyph glyph-name="Ycircumflex" unicode="&#x176;" horiz-adv-x="1321" 
d="M674 0h-139l133 624l-343 819h143l289 -685h12l568 685h159l-695 -837zM1078 1874l189 -297h-143l-126 208h-12l-214 -208h-160l315 297h151z" />
    <glyph glyph-name="Ymacron" unicode="&#x232;" horiz-adv-x="1321" 
d="M674 0h-139l133 624l-343 819h143l289 -685h12l568 685h159l-695 -837zM1270 1619h-644l22 105h645z" />
    <glyph glyph-name="Yhookabove" unicode="&#x1ef6;" horiz-adv-x="1321" 
d="M674 0h-139l133 624l-343 819h143l289 -685h12l568 685h159l-695 -837zM832 1788l19 92c21 9 62 17 99 17c120 0 199 -59 199 -149c0 -94 -79 -178 -195 -209l-42 83c76 19 120 60 120 112c0 43 -36 68 -103 68c-37 0 -74 -6 -97 -14z" />
    <glyph glyph-name="Z" unicode="Z" horiz-adv-x="1328" 
d="M82 0l21 99l1110 1208l3 13h-826l26 123h1011l-21 -100l-1108 -1207l-2 -13h863l-26 -123h-1051z" />
    <glyph glyph-name="Zacute" unicode="&#x179;" horiz-adv-x="1328" 
d="M862 1577l373 297h175l-389 -297h-159zM82 0l21 99l1110 1208l3 13h-826l26 123h1011l-21 -100l-1108 -1207l-2 -13h863l-26 -123h-1051z" />
    <glyph glyph-name="Zcaron" unicode="&#x17d;" horiz-adv-x="1328" 
d="M82 0l21 99l1110 1208l3 13h-826l26 123h1011l-21 -100l-1108 -1207l-2 -13h863l-26 -123h-1051zM871 1577l-189 297h143l126 -208h12l214 208h160l-315 -297h-151z" />
    <glyph glyph-name="Zcircumflex" unicode="&#x1e90;" horiz-adv-x="1328" 
d="M82 0l21 99l1110 1208l3 13h-826l26 123h1011l-21 -100l-1108 -1207l-2 -13h863l-26 -123h-1051zM1078 1874l189 -297h-143l-126 208h-12l-214 -208h-160l315 297h151z" />
    <glyph glyph-name="Zlinebelow" unicode="&#x1e94;" horiz-adv-x="1328" 
d="M82 0l21 99l1110 1208l3 13h-826l26 123h1011l-21 -100l-1108 -1207l-2 -13h863l-26 -123h-1051zM858 -309h-644l22 105h645z" />
    <glyph glyph-name="Zdotbelow" unicode="&#x1e92;" horiz-adv-x="1328" 
d="M546 -364c-58 0 -105 47 -105 105c0 57 47 104 105 104c57 0 104 -47 104 -104c0 -58 -47 -105 -104 -105zM82 0l21 99l1110 1208l3 13h-826l26 123h1011l-21 -100l-1108 -1207l-2 -13h863l-26 -123h-1051z" />
    <glyph glyph-name="Zdotaccent" unicode="&#x17b;" horiz-adv-x="1328" 
d="M961 1577c-58 0 -105 46 -105 104s47 105 105 105s105 -47 105 -105s-47 -104 -105 -104zM82 0l21 99l1110 1208l3 13h-826l26 123h1011l-21 -100l-1108 -1207l-2 -13h863l-26 -123h-1051z" />
    <glyph glyph-name="AE" unicode="&#xc6;" horiz-adv-x="1955" 
d="M1233 1327h-162l-528 -766h527zM951 0l94 443h-580l-303 -443h-145l985 1443h1067l-26 -124h-675l-112 -526h638l-26 -122h-638l-117 -547h675l-26 -124h-811z" />
    <glyph glyph-name="AEmacron" unicode="&#x1e2;" horiz-adv-x="1955" 
d="M1233 1327h-162l-528 -766h527zM951 0l94 443h-580l-303 -443h-145l985 1443h1067l-26 -124h-675l-112 -526h638l-26 -122h-638l-117 -547h675l-26 -124h-811zM1788 1619h-644l22 105h645z" />
    <glyph glyph-name="AEacute" unicode="&#x1fc;" horiz-adv-x="1955" 
d="M1381 1577l373 297h175l-389 -297h-159zM1233 1327h-162l-528 -766h527zM951 0l94 443h-580l-303 -443h-145l985 1443h1067l-26 -124h-675l-112 -526h638l-26 -122h-638l-117 -547h675l-26 -124h-811z" />
    <glyph glyph-name="OE" unicode="&#x152;" horiz-adv-x="2323" 
d="M1403 858c0 293 -175 488 -438 488c-346 0 -613 -330 -613 -761c0 -294 176 -488 442 -488c348 0 609 326 609 761zM1250 0l44 209l-12 -1c-112 -142 -287 -238 -498 -238c-337 0 -575 249 -575 604c0 514 329 899 766 899c251 0 434 -149 498 -362h13l71 332h872
l-26 -124h-733l-112 -519h697l-26 -122h-696l-118 -554h733l-26 -124h-872z" />
    <glyph glyph-name="Eth" unicode="&#xd0;" horiz-adv-x="1476" 
d="M294 122h389c363 0 632 301 632 707c0 307 -179 492 -478 492h-288l-110 -516h251l-27 -124h-250zM435 1443h413c383 0 608 -232 608 -607c0 -480 -336 -836 -778 -836h-549l144 681h-181l26 124h182z" />
    <glyph glyph-name="Thorn" unicode="&#xde;" horiz-adv-x="1270" 
d="M127 0l307 1443h137l-59 -274h355c233 0 387 -149 387 -349c0 -279 -214 -469 -547 -469h-368l-75 -351h-137zM487 1046l-122 -573h338c257 0 409 131 409 334c0 139 -98 239 -289 239h-336z" />
    <glyph glyph-name="Alphagreek" unicode="&#x391;" horiz-adv-x="1363" 
d="M1097 0l-67 443h-609l-254 -443h-148l850 1443h129l233 -1443h-134zM892 1262l-404 -702h526l-110 702h-12z" />
    <glyph glyph-name="Betagreek" unicode="&#x392;" horiz-adv-x="1323" 
d="M700 0h-572l307 1443h480c244 0 399 -127 399 -311c0 -193 -133 -341 -332 -376l-3 -13c164 -26 267 -137 267 -292c0 -257 -222 -451 -546 -451zM547 1322l-109 -515h347c225 0 388 121 388 297c0 137 -104 218 -306 218h-320zM292 121h405c236 0 404 141 404 319
c0 157 -114 248 -331 248h-357z" />
    <glyph glyph-name="Gammagreek" unicode="&#x393;" horiz-adv-x="1133" 
d="M268 0h-140l307 1443h837l-26 -124h-698z" />
    <glyph glyph-name="Deltagreek" unicode="&#x394;" horiz-adv-x="1371" 
d="M1215 0h-1173l21 96l810 1347h128l235 -1346zM901 1272l-670 -1136l-3 -12h867l3 10l-192 1138h-5z" />
    <glyph glyph-name="Deltagreek" unicode="&#x2206;" horiz-adv-x="1371" 
d="M1215 0h-1173l21 96l810 1347h128l235 -1346zM901 1272l-670 -1136l-3 -12h867l3 10l-192 1138h-5z" />
    <glyph glyph-name="Epsilongreek" unicode="&#x395;" horiz-adv-x="1197" 
d="M1026 124l-26 -124h-872l307 1443h872l-26 -124h-733l-111 -519h696l-26 -122h-696l-118 -554h733z" />
    <glyph glyph-name="Zetagreek" unicode="&#x396;" horiz-adv-x="1328" 
d="M82 0l21 99l1110 1208l3 13h-826l26 123h1011l-21 -100l-1108 -1207l-2 -13h863l-26 -123h-1051z" />
    <glyph glyph-name="Etagreek" unicode="&#x397;" horiz-adv-x="1489" 
d="M1248 0h-140l144 677h-841l-145 -677h-138l307 1443h139l-137 -642h842l136 642h140z" />
    <glyph glyph-name="Thetagreek" unicode="&#x398;" horiz-adv-x="1572" 
d="M1189 661h-639l27 124h639zM766 -30c-353 0 -559 223 -559 588c0 529 322 915 783 915c363 0 567 -219 567 -595c0 -531 -333 -908 -791 -908zM1417 860c0 310 -160 486 -443 486c-364 0 -626 -329 -626 -769c0 -301 163 -480 440 -480c356 0 629 322 629 763z" />
    <glyph glyph-name="Iotagreek" unicode="&#x399;" horiz-adv-x="508" 
d="M267 0h-139l307 1443h139z" />
    <glyph glyph-name="Iotagreek.1" horiz-adv-x="989" 
d="M1075 1325h-286l-257 -1207h287l-26 -118h-286h-139h-286l25 118h286l257 1207h-286l25 118h286h139h286z" />
    <glyph glyph-name="Kappagreek" unicode="&#x39a;" horiz-adv-x="1311" 
d="M264 0h-136l307 1443h136l-158 -743h12l832 743h180l-706 -631l459 -812h-159l-407 728l-251 -221z" />
    <glyph glyph-name="Lambdagreek" unicode="&#x39b;" horiz-adv-x="1349" 
d="M884 1262l-708 -1262h-148l834 1443h128l217 -1443h-135l-176 1262h-12z" />
    <glyph glyph-name="Mugreek" unicode="&#x39c;" horiz-adv-x="1762" 
d="M259 0h-131l307 1443h150l266 -1256h13l796 1256h168l-307 -1443h-131l250 1177h-10l-745 -1170h-118l-249 1170h-9z" />
    <glyph glyph-name="Nugreek" unicode="&#x39d;" horiz-adv-x="1492" 
d="M266 0h-138l307 1443h134l579 -1218h13l259 1218h138l-307 -1443h-133l-581 1220h-12z" />
    <glyph glyph-name="Xigreek" unicode="&#x39e;" horiz-adv-x="1323" 
d="M390 1443h1042l-27 -128h-1042zM1191 675h-887l28 127h887zM111 128h1042l-27 -128h-1042z" />
    <glyph glyph-name="Omicrongreek" unicode="&#x39f;" horiz-adv-x="1564" 
d="M784 -30c-337 0 -575 250 -575 604c0 513 328 899 766 899c336 0 572 -249 572 -604c0 -516 -326 -899 -763 -899zM1403 858c0 293 -175 488 -438 488c-347 0 -613 -331 -613 -761c0 -293 176 -488 442 -488c348 0 609 326 609 761z" />
    <glyph glyph-name="Pigreek" unicode="&#x3a0;" horiz-adv-x="1469" 
d="M1228 0h-140l281 1319h-822l-281 -1319h-138l307 1443h1100z" />
    <glyph glyph-name="Rhogreek" unicode="&#x3a1;" horiz-adv-x="1277" 
d="M437 1443h477c240 0 414 -151 414 -377c0 -321 -240 -522 -563 -522h-383l-115 -544h-139zM550 1321l-142 -655h349c256 0 429 146 429 388c0 163 -120 267 -317 267h-319z" />
    <glyph glyph-name="Sigmagreek" unicode="&#x3a3;" horiz-adv-x="1322" 
d="M287 130l-2 -6h867l-25 -124h-1045l20 99l565 653l-277 587l22 104h1008l-26 -124h-839l-2 -6l260 -554l-6 -24z" />
    <glyph glyph-name="Taugreek" unicode="&#x3a4;" horiz-adv-x="1280" 
d="M651 0h-140l281 1319h-482l25 124h1104l-26 -124h-482z" />
    <glyph glyph-name="Upsilongreek" unicode="&#x3a5;" horiz-adv-x="1321" 
d="M674 0h-139l133 624l-343 819h143l289 -685h12l568 685h159l-695 -837z" />
    <glyph glyph-name="Phigreek" unicode="&#x3a6;" horiz-adv-x="1719" 
d="M721 -58l29 137c-352 27 -550 226 -550 534c0 426 322 740 822 748l29 134h139l-29 -134c353 -27 550 -226 550 -535c0 -425 -322 -739 -821 -747l-30 -137h-139zM776 202l219 1035c-403 -3 -653 -259 -653 -610c0 -249 146 -410 434 -425zM916 203
c404 3 654 256 654 611c0 248 -148 409 -435 424z" />
    <glyph glyph-name="Chigreek" unicode="&#x3a7;" horiz-adv-x="1367" 
d="M39 0l663 744l-337 699h156l282 -609h11l551 609h158l-659 -726l344 -717h-148l-295 618h-11l-558 -618h-157z" />
    <glyph glyph-name="Psigreek" unicode="&#x3a8;" horiz-adv-x="1633" 
d="M830 0h-140l73 345c-308 23 -470 171 -470 426c0 42 5 86 14 133l114 539h139l-113 -535c-11 -50 -16 -95 -16 -136c0 -193 129 -291 360 -301l206 972h139l-206 -972c319 3 472 163 533 451l111 521h139l-111 -526c-81 -381 -273 -557 -698 -572z" />
    <glyph glyph-name="Omegagreek" unicode="&#x3a9;" horiz-adv-x="1607" 
d="M898 0l35 161c306 147 484 404 484 730c0 274 -172 455 -450 455c-363 0 -599 -286 -599 -671c0 -231 97 -401 305 -514l-35 -161h-518l26 124h358l3 13c-185 118 -281 293 -281 535c0 455 301 801 759 801c352 0 574 -227 574 -569c0 -329 -181 -623 -470 -767l-3 -13
h371l-26 -124h-533z" />
    <glyph glyph-name="Omegagreek" unicode="&#x2126;" horiz-adv-x="1607" 
d="M898 0l35 161c306 147 484 404 484 730c0 274 -172 455 -450 455c-363 0 -599 -286 -599 -671c0 -231 97 -401 305 -514l-35 -161h-518l26 124h358l3 13c-185 118 -281 293 -281 535c0 455 301 801 759 801c352 0 574 -227 574 -569c0 -329 -181 -623 -470 -767l-3 -13
h371l-26 -124h-533z" />
    <glyph glyph-name="Alphatonosgreek" unicode="&#x386;" horiz-adv-x="1365" 
d="M1098 0l-67 443h-609l-254 -443h-148l850 1443h129l233 -1443h-134zM893 1262l-404 -702h526l-110 702h-12zM380 1116h-121l157 327h159z" />
    <glyph glyph-name="Epsilontonosgreek" unicode="&#x388;" horiz-adv-x="1513" 
d="M376 1116h-121l157 327h159zM1342 124l-26 -124h-872l307 1443h872l-26 -124h-733l-111 -519h696l-26 -122h-696l-118 -554h733z" />
    <glyph glyph-name="Etatonosgreek" unicode="&#x389;" horiz-adv-x="1804" 
d="M376 1116h-121l157 327h159zM1564 0h-140l144 677h-841l-145 -677h-138l307 1443h139l-137 -642h842l136 642h140z" />
    <glyph glyph-name="Iotatonosgreek" unicode="&#x38a;" horiz-adv-x="823" 
d="M583 0h-139l307 1443h139zM376 1116h-121l157 327h159z" />
    <glyph glyph-name="Iotadieresisgreek" unicode="&#x3aa;" horiz-adv-x="507" 
d="M267 0h-139l307 1443h139zM371 1568c-57 0 -102 45 -102 102s45 102 102 102c56 0 102 -45 102 -102s-46 -102 -102 -102zM734 1568c-56 0 -102 45 -102 102s46 102 102 102c57 0 102 -45 102 -102s-45 -102 -102 -102z" />
    <glyph glyph-name="Iotatonosgreek.1" horiz-adv-x="1303" 
d="M412 1443h159l-195 -327h-121zM1389 1325h-286l-257 -1207h287l-26 -118h-286h-139h-286l25 118h286l257 1207h-286l25 118h286h139h286z" />
    <glyph glyph-name="Iotadieresisgreek.1" horiz-adv-x="989" 
d="M943 1568c-56 0 -102 45 -102 102s46 102 102 102c57 0 102 -45 102 -102s-45 -102 -102 -102zM580 1568c-57 0 -102 45 -102 102s45 102 102 102c56 0 102 -45 102 -102s-46 -102 -102 -102zM1075 1325h-286l-257 -1207h287l-26 -118h-286h-139h-286l25 118h286
l257 1207h-286l25 118h286h139h286z" />
    <glyph glyph-name="Omicrontonosgreek" unicode="&#x38c;" horiz-adv-x="1798" 
d="M1019 -30c-337 0 -575 250 -575 604c0 513 328 899 766 899c336 0 572 -249 572 -604c0 -516 -326 -899 -763 -899zM1638 858c0 293 -175 488 -438 488c-347 0 -613 -331 -613 -761c0 -293 176 -488 442 -488c348 0 609 326 609 761zM383 1116h-121l157 327h159z" />
    <glyph glyph-name="Upsilontonosgreek" unicode="&#x38e;" horiz-adv-x="1636" 
d="M376 1116h-121l157 327h159zM989 0h-139l133 624l-343 819h143l289 -685h12l568 685h159l-695 -837z" />
    <glyph glyph-name="Upsilondieresisgreek" unicode="&#x3ab;" horiz-adv-x="1321" 
d="M674 0h-139l133 624l-343 819h143l289 -685h12l568 685h159l-695 -837zM776 1568c-57 0 -102 45 -102 102s45 102 102 102c56 0 102 -45 102 -102s-46 -102 -102 -102zM1139 1568c-56 0 -102 45 -102 102s46 102 102 102c57 0 102 -45 102 -102s-45 -102 -102 -102z" />
    <glyph glyph-name="Omegatonosgreek" unicode="&#x38f;" horiz-adv-x="1852" 
d="M1143 0l35 161c306 147 484 404 484 730c0 274 -172 455 -450 455c-363 0 -599 -286 -599 -671c0 -231 97 -401 305 -514l-35 -161h-518l26 124h358l3 13c-185 118 -281 293 -281 535c0 455 301 801 759 801c352 0 574 -227 574 -569c0 -329 -181 -623 -470 -767l-3 -13
h371l-26 -124h-533zM376 1116h-121l157 327h159z" />
    <glyph glyph-name="Acyrillic" unicode="&#x410;" horiz-adv-x="1369" 
d="M1100 0l-67 443h-609l-254 -443h-148l850 1443h129l233 -1443h-134zM895 1262l-404 -702h526l-110 702h-12z" />
    <glyph glyph-name="uni04D0" unicode="&#x4d0;" horiz-adv-x="1369" 
d="M1100 0l-67 443h-609l-254 -443h-148l850 1443h129l233 -1443h-134zM895 1262l-404 -702h526l-110 702h-12zM702 1851h120c-23 -112 44 -182 156 -182c113 0 212 70 235 182h120c-36 -173 -178 -274 -364 -274c-188 0 -304 101 -267 274z" />
    <glyph glyph-name="uni04D2" unicode="&#x4d2;" horiz-adv-x="1369" 
d="M1100 0l-67 443h-609l-254 -443h-148l850 1443h129l233 -1443h-134zM895 1262l-404 -702h526l-110 702h-12zM802 1568c-57 0 -102 45 -102 102s45 102 102 102c56 0 102 -45 102 -102s-46 -102 -102 -102zM1165 1568c-56 0 -102 45 -102 102s46 102 102 102
c57 0 102 -45 102 -102s-45 -102 -102 -102z" />
    <glyph glyph-name="uniF50E" horiz-adv-x="1369" 
d="M1100 0l-67 443h-609l-254 -443h-148l850 1443h129l233 -1443h-134zM895 1262l-404 -702h526l-110 702h-12zM1296 1619h-644l22 105h645z" />
    <glyph glyph-name="uniF460" horiz-adv-x="1369" 
d="M1100 0l-67 443h-609l-254 -443h-148l850 1443h129l233 -1443h-134zM895 1262l-404 -702h526l-110 702h-12zM888 1577l373 297h175l-389 -297h-159z" />
    <glyph glyph-name="Becyrillic" unicode="&#x411;" horiz-adv-x="1295" 
d="M676 0h-538l307 1443h837l-26 -124h-698l-100 -467h317c268 0 447 -148 447 -368c0 -256 -219 -484 -546 -484zM303 122h360c239 0 417 148 417 342c0 172 -130 265 -332 265h-316z" />
    <glyph glyph-name="Vecyrillic" unicode="&#x412;" horiz-adv-x="1343" 
d="M710 0h-572l307 1443h480c244 0 399 -127 399 -311c0 -193 -133 -341 -332 -376l-3 -13c164 -26 267 -137 267 -292c0 -257 -222 -451 -546 -451zM557 1322l-109 -515h347c225 0 388 121 388 297c0 137 -104 218 -306 218h-320zM302 121h405c236 0 404 141 404 319
c0 157 -114 248 -331 248h-357z" />
    <glyph glyph-name="Gecyrillic" unicode="&#x413;" horiz-adv-x="1158" 
d="M278 0h-140l307 1443h850l-26 -124h-711z" />
    <glyph glyph-name="Gjecyrillic" unicode="&#x403;" horiz-adv-x="1158" 
d="M764 1577l373 297h175l-389 -297h-159zM278 0h-140l307 1443h850l-26 -124h-711z" />
    <glyph glyph-name="Geupturncyrillic" unicode="&#x490;" horiz-adv-x="1158" 
d="M558 1319l-280 -1319h-140l307 1443h723l57 273h128l-84 -397h-711z" />
    <glyph glyph-name="uni04F6" unicode="&#x4f6;" horiz-adv-x="1153" 
d="M445 1443h850l-26 -124h-711l-254 -1195h183l-99 -409h-128l69 285h-51h-140l26 124v0z" />
    <glyph glyph-name="uni0492" unicode="&#x492;" horiz-adv-x="1202" 
d="M1319 1319h-711l-117 -549h530l-23 -108h-529l-141 -662h-140l141 662h-168l24 108h167l143 673h850z" />
    <glyph glyph-name="uniF53C" horiz-adv-x="1163" 
d="M275 0h-140l307 1443h857l-26 -124h-718l-116 -542h660l-27 -122h-659z" />
    <glyph glyph-name="uni04FA" unicode="&#x4fa;" horiz-adv-x="1206" 
d="M1323 1319h-711l-117 -549h536l-23 -108h-535l-141 -662h-1l-8 -38c-51 -237 -150 -329 -340 -329c-27 0 -61 2 -73 5l27 117c9 -3 25 -5 43 -5c112 0 170 59 201 203l73 342h1l78 367h-167l23 108h167l143 673h850z" />
    <glyph glyph-name="Decyrillic" unicode="&#x414;" horiz-adv-x="1485" 
d="M480 503c-45 -166 -94 -287 -187 -369l-3 -10h769l254 1195h-609zM110 0l-61 -285h-127l87 409h102c112 54 188 198 241 392l253 927h874l-281 -1319h183l-87 -409h-127l61 285h-1118z" />
    <glyph glyph-name="uni0414.BUL" horiz-adv-x="1485" 
d="M948 1255l-650 -1131h843l-181 1131h-12zM1272 124h128l-87 -409h-127l61 285h-1124l-61 -285h-126l87 409h128l769 1319h136z" />
    <glyph glyph-name="Iecyrillic" unicode="&#x415;" horiz-adv-x="1216" 
d="M1036 124l-26 -124h-872l307 1443h872l-26 -124h-733l-111 -519h696l-26 -122h-696l-118 -554h733z" />
    <glyph glyph-name="Iocyrillic" unicode="&#x401;" horiz-adv-x="1216" 
d="M747 1568c-57 0 -102 45 -102 102s45 102 102 102c56 0 102 -45 102 -102s-46 -102 -102 -102zM1110 1568c-56 0 -102 45 -102 102s46 102 102 102c57 0 102 -45 102 -102s-45 -102 -102 -102zM1036 124l-26 -124h-872l307 1443h872l-26 -124h-733l-111 -519h696
l-26 -122h-696l-118 -554h733z" />
    <glyph glyph-name="uni04D6" unicode="&#x4d6;" horiz-adv-x="1216" 
d="M643 1851h120c-23 -112 44 -182 156 -182c113 0 212 70 235 182h120c-36 -173 -178 -274 -364 -274c-188 0 -304 101 -267 274zM1036 124l-26 -124h-872l307 1443h872l-26 -124h-733l-111 -519h696l-26 -122h-696l-118 -554h733z" />
    <glyph glyph-name="uniF510" horiz-adv-x="1216" 
d="M1036 124l-26 -124h-872l307 1443h872l-26 -124h-733l-111 -519h696l-26 -122h-696l-118 -554h733zM1240 1619h-644l22 105h645z" />
    <glyph glyph-name="uniF512" horiz-adv-x="1216" 
d="M1036 124l-26 -124h-872l307 1443h872l-26 -124h-733l-111 -519h696l-26 -122h-696l-118 -554h733zM1414 1999l-22 -101h-644l22 101h644zM1205 1765c56 0 100 -44 100 -100c0 -55 -44 -99 -100 -99c-55 0 -99 44 -99 99c0 56 44 100 99 100zM842 1765
c55 0 99 -44 99 -100c0 -55 -44 -99 -99 -99s-100 44 -100 99c0 56 45 100 100 100z" />
    <glyph glyph-name="uni0400" unicode="&#x400;" horiz-adv-x="1216" 
d="M785 1874l184 -297h-141l-200 297h157zM1036 124l-26 -124h-872l307 1443h872l-26 -124h-733l-111 -519h696l-26 -122h-696l-118 -554h733z" />
    <glyph glyph-name="uniF461" horiz-adv-x="1216" 
d="M833 1577l373 297h175l-389 -297h-159zM1036 124l-26 -124h-872l307 1443h872l-26 -124h-733l-111 -519h696l-26 -122h-696l-118 -554h733z" />
    <glyph glyph-name="uniF469" horiz-adv-x="1216" 
d="M1036 124l-26 -124h-872l307 1443h872l-26 -124h-733l-111 -519h696l-26 -122h-696l-118 -554h733zM905 1570h-115l111 328h151zM616 1570c-53 0 -91 39 -91 91c0 60 47 113 114 113c52 0 91 -39 91 -89c0 -61 -47 -115 -114 -115zM1150 1570c-52 0 -91 39 -91 91
c0 60 47 113 115 113c52 0 91 -39 91 -89c0 -61 -47 -115 -115 -115z" />
    <glyph glyph-name="uniF514" horiz-adv-x="1216" 
d="M690 2156c0 5 1 11 1 14h116c0 -5 -1 -11 -1 -15c0 -92 84 -159 199 -159s199 68 220 174h118c-26 -167 -164 -275 -342 -275c-185 0 -311 107 -311 261zM1232 1590v-13h-116c0 4 1 10 1 14c0 93 -84 159 -199 159s-199 -68 -220 -173h-118c26 166 164 274 342 274
c185 0 310 -107 310 -261zM1036 124l-26 -124h-872l307 1443h872l-26 -124h-733l-111 -519h696l-26 -122h-696l-118 -554h733z" />
    <glyph glyph-name="Zhecyrillic" unicode="&#x416;" horiz-adv-x="2004" 
d="M991 685l-796 -685h-188l879 760l-491 683h158l460 -652h40l139 652h137l-139 -652h40l738 652h181l-816 -708l539 -735h-160l-505 685h-39l-146 -685h-137l146 685h-40z" />
    <glyph glyph-name="uni04C1" unicode="&#x4c1;" horiz-adv-x="2004" 
d="M991 685l-796 -685h-188l879 760l-491 683h158l460 -652h40l139 652h137l-139 -652h40l738 652h181l-816 -708l539 -735h-160l-505 685h-39l-146 -685h-137l146 685h-40zM980 1837v14h116v-15c0 -92 83 -159 198 -159s199 68 220 174h118c-26 -167 -164 -274 -342 -274
c-185 0 -310 106 -310 260z" />
    <glyph glyph-name="uni04DC" unicode="&#x4dc;" horiz-adv-x="2004" 
d="M991 685l-796 -685h-188l879 760l-491 683h158l460 -652h40l139 652h137l-139 -652h40l738 652h181l-816 -708l539 -735h-160l-505 685h-39l-146 -685h-137l146 685h-40zM1110 1568c-57 0 -102 45 -102 102s45 102 102 102c56 0 102 -45 102 -102s-46 -102 -102 -102z
M1473 1568c-56 0 -102 45 -102 102s46 102 102 102c57 0 102 -45 102 -102s-45 -102 -102 -102z" />
    <glyph glyph-name="uni0496" unicode="&#x496;" horiz-adv-x="2055" 
d="M1333 735l448 -611h203l-100 -409h-123l69 285h-117h-1l-505 685h-39l-146 -685h-137l146 685h-40l-796 -685h-188l879 760l-491 683h158l460 -652h40l139 652h137l-139 -652h40l738 652h181z" />
    <glyph glyph-name="uni0416.BUL" horiz-adv-x="2087" 
d="M7 0l803 826l-423 617h156l499 -730h17l155 730h136l-156 -730h12l818 730h179l-706 -630l459 -813h-160l-406 728l-236 -208l-110 -520h-137l112 527l-134 195l-703 -722h-175z" />
    <glyph glyph-name="Zecyrillic" unicode="&#x417;" horiz-adv-x="1262" 
d="M503 681l26 124h202c215 0 375 127 375 297c0 156 -103 249 -290 249c-176 0 -321 -103 -375 -268h-133c72 246 275 390 525 390c264 0 416 -151 416 -357c0 -192 -137 -336 -350 -369l-3 -12c164 -31 270 -139 270 -315c0 -258 -226 -450 -526 -450
c-333 0 -495 196 -502 402h132c3 -140 126 -281 366 -281c224 0 388 133 388 322c0 169 -123 268 -335 268h-186z" />
    <glyph glyph-name="uni04DE" unicode="&#x4de;" horiz-adv-x="1262" 
d="M743 1568c-57 0 -102 45 -102 102s45 102 102 102c56 0 102 -45 102 -102s-46 -102 -102 -102zM1106 1568c-56 0 -102 45 -102 102s46 102 102 102c57 0 102 -45 102 -102s-45 -102 -102 -102zM503 681l26 124h202c215 0 375 127 375 297c0 156 -103 249 -290 249
c-176 0 -321 -103 -375 -268h-133c72 246 275 390 525 390c264 0 416 -151 416 -357c0 -192 -137 -336 -350 -369l-3 -12c164 -31 270 -139 270 -315c0 -258 -226 -450 -526 -450c-333 0 -495 196 -502 402h132c3 -140 126 -281 366 -281c224 0 388 133 388 322
c0 169 -123 268 -335 268h-186z" />
    <glyph glyph-name="uni0498" unicode="&#x498;" horiz-adv-x="1262" 
d="M899 747l-3 -12c164 -31 270 -139 270 -315c0 -248 -209 -436 -493 -449l-60 -256h-127l61 261c-270 33 -403 210 -409 396h132c3 -140 126 -281 366 -281c224 0 388 133 388 322c0 169 -123 268 -335 268h-186l26 124h202c215 0 375 127 375 297
c0 156 -103 249 -290 249c-176 0 -321 -103 -375 -268h-133c72 246 275 390 525 390c264 0 416 -151 416 -357c0 -192 -137 -336 -350 -369z" />
    <glyph glyph-name="uniF50A" horiz-adv-x="1262" 
d="M899 747l-3 -12c164 -31 270 -139 270 -315c0 -254 -219 -444 -512 -450l-70 -109c117 -12 180 -66 180 -155c0 -109 -97 -186 -233 -186c-56 0 -125 14 -171 37l18 87c36 -18 103 -32 151 -32c72 0 120 34 120 87c0 52 -49 84 -136 87l-52 1l11 72l75 116
c-270 33 -403 211 -409 397h132c3 -140 126 -281 366 -281c224 0 388 133 388 322c0 169 -123 268 -335 268h-186l26 124h202c215 0 375 127 375 297c0 156 -103 249 -290 249c-176 0 -321 -103 -375 -268h-133c72 246 275 390 525 390c264 0 416 -151 416 -357
c0 -192 -137 -336 -350 -369z" />
    <glyph glyph-name="uniF516" horiz-adv-x="1262" 
d="M815 1577l-189 297h143l126 -208h12l214 208h160l-315 -297h-151zM503 681l26 124h202c215 0 375 127 375 297c0 156 -103 249 -290 249c-176 0 -321 -103 -375 -268h-133c72 246 275 390 525 390c264 0 416 -151 416 -357c0 -192 -137 -336 -350 -369l-3 -12
c164 -31 270 -139 270 -315c0 -258 -226 -450 -526 -450c-333 0 -495 196 -502 402h132c3 -140 126 -281 366 -281c224 0 388 133 388 322c0 169 -123 268 -335 268h-186z" />
    <glyph glyph-name="Iicyrillic" unicode="&#x418;" horiz-adv-x="1513" 
d="M1123 0l257 1206h-12l-1092 -1206h-138l307 1443h138l-258 -1207h13l1092 1207h138l-307 -1443h-138z" />
    <glyph glyph-name="Iishortcyrillic" unicode="&#x419;" horiz-adv-x="1513" 
d="M760 1851h120c-23 -112 44 -182 156 -182c113 0 212 70 235 182h120c-36 -173 -178 -274 -364 -274c-188 0 -304 101 -267 274zM1123 0l257 1206h-12l-1092 -1206h-138l307 1443h138l-258 -1207h13l1092 1207h138l-307 -1443h-138z" />
    <glyph glyph-name="uni040D" unicode="&#x40d;" horiz-adv-x="1513" 
d="M956 1874l184 -297h-141l-200 297h157zM1123 0l257 1206h-12l-1092 -1206h-138l307 1443h138l-258 -1207h13l1092 1207h138l-307 -1443h-138z" />
    <glyph glyph-name="uni04E2" unicode="&#x4e2;" horiz-adv-x="1513" 
d="M1123 0l257 1206h-12l-1092 -1206h-138l307 1443h138l-258 -1207h13l1092 1207h138l-307 -1443h-138zM1370 1619h-644l22 105h645z" />
    <glyph glyph-name="uni04E4" unicode="&#x4e4;" horiz-adv-x="1513" 
d="M861 1568c-57 0 -102 45 -102 102s45 102 102 102c56 0 102 -45 102 -102s-46 -102 -102 -102zM1224 1568c-56 0 -102 45 -102 102s46 102 102 102c57 0 102 -45 102 -102s-45 -102 -102 -102zM1123 0l257 1206h-12l-1092 -1206h-138l307 1443h138l-258 -1207h13
l1092 1207h138l-307 -1443h-138z" />
    <glyph glyph-name="uni048A" unicode="&#x48a;" horiz-adv-x="1547" 
d="M1271 1851h120c-36 -173 -178 -274 -364 -274c-188 0 -304 101 -267 274h120c-23 -112 44 -182 156 -182c113 0 212 70 235 182zM1568 1443l-281 -1319h168v-39l-182 -370h-130l143 285h-25h-138l257 1206h-12l-1092 -1206h-138l307 1443h138l-258 -1207h13l1092 1207
h138z" />
    <glyph glyph-name="uniF462" horiz-adv-x="1513" 
d="M944 1577l373 297h175l-389 -297h-159zM1123 0l257 1206h-12l-1092 -1206h-138l307 1443h138l-258 -1207h13l1092 1207h138l-307 -1443h-138z" />
    <glyph glyph-name="uniF532" horiz-adv-x="1513" 
d="M1271 1851h120c-36 -173 -178 -274 -364 -274c-188 0 -304 101 -267 274h120c-23 -112 44 -182 156 -182c113 0 212 70 235 182zM1568 1443l-244 -1148v0l-71 -333c-51 -237 -148 -329 -338 -329c-27 0 -61 2 -73 5l27 117c9 -3 25 -5 43 -5c111 0 170 59 201 203l10 47
v0l257 1206h-12l-1092 -1206h-138l307 1443h138l-258 -1207h13l1092 1207h138z" />
    <glyph glyph-name="Kacyrillic" unicode="&#x41a;" horiz-adv-x="1321" 
d="M1452 1443l-868 -710l605 -733h-160l-567 684h-40l-145 -684h-139l307 1443h139l-138 -650h39l787 650h180z" />
    <glyph glyph-name="Kjecyrillic" unicode="&#x40c;" horiz-adv-x="1321" 
d="M1357 1874l-389 -297h-159l373 297h175zM1452 1443l-868 -710l605 -733h-160l-567 684h-40l-145 -684h-139l307 1443h139l-138 -650h39l787 650h180z" />
    <glyph glyph-name="uni049A" unicode="&#x49a;" horiz-adv-x="1370" 
d="M584 733l503 -609h214l-99 -409h-124l69 285h-117h-1l-567 684h-40l-145 -684h-139l307 1443h139l-138 -650h39l787 650h180z" />
    <glyph glyph-name="uni049C" unicode="&#x49c;" horiz-adv-x="1471" 
d="M1602 1443l-768 -718l505 -725h-161l-471 684h-58l-74 -345h-113l74 345h-114l-145 -684h-139l307 1443h139l-138 -650h113l69 325h113l-69 -325h59l690 650h181z" />
    <glyph glyph-name="uni049E" unicode="&#x49e;" horiz-adv-x="1333" 
d="M1464 1443l-868 -710l605 -733h-160l-567 684h-40l-145 -684h-139l252 1184h-182l24 116h183l30 143h139l-30 -143h261l-24 -116h-262l-83 -391h39l787 650h180z" />
    <glyph glyph-name="uni04A0" unicode="&#x4a0;" horiz-adv-x="1918" 
d="M2049 1443l-868 -710l605 -733h-160l-567 684h-40l-145 -684h-139l281 1319h-704l27 124h703h139l-138 -650h39l787 650h180z" />
    <glyph glyph-name="uni04C3" unicode="&#x4c3;" horiz-adv-x="1306" 
d="M527 -400c-25 0 -43 1 -66 4l23 121c18 -2 37 -3 56 -3c254 0 445 226 445 487c0 278 -221 457 -555 461h-11l-142 -671h-139l307 1445h140l-138 -651h40l786 651h181l-829 -677v-8c314 -59 500 -261 500 -550c0 -333 -249 -609 -598 -609z" />
    <glyph glyph-name="uni041A.BUL" horiz-adv-x="1331" 
d="M274 0h-136l307 1443h136l-158 -743h12l832 743h180l-706 -631l459 -812h-159l-407 728l-251 -221z" />
    <glyph glyph-name="Elcyrillic" unicode="&#x41b;" horiz-adv-x="1403" 
d="M1151 0h-139l280 1319h-579l-222 -809c-85 -311 -195 -519 -446 -519c-29 0 -52 6 -63 10l25 123c8 -3 32 -7 53 -7c158 0 238 171 300 400l252 926h846z" />
    <glyph glyph-name="uni04C5" unicode="&#x4c5;" horiz-adv-x="1436" 
d="M1458 1443l-281 -1319h167v-39l-182 -370h-130l143 285h-24h-139l280 1319h-579l-222 -809c-85 -311 -195 -519 -446 -519c-29 0 -52 6 -63 10l25 123c8 -3 32 -7 53 -7c158 0 238 171 300 400l252 926h846z" />
    <glyph glyph-name="uniF530" horiz-adv-x="1466" 
d="M1458 1443l-281 -1319h185l-100 -409h-123l69 285h-57h-125h-14l280 1319h-579l-222 -809c-85 -311 -195 -519 -446 -519c-29 0 -52 6 -63 10l25 123c8 -3 32 -7 53 -7c158 0 238 171 300 400l252 926h846z" />
    <glyph glyph-name="uni052E" unicode="&#x52e;" horiz-adv-x="1466" 
d="M1458 1443l-281 -1319h185l-100 -409h-123l69 285h-57h-125h-14l280 1319h-579l-222 -809c-85 -311 -195 -519 -446 -519c-29 0 -52 6 -63 10l25 123c8 -3 32 -7 53 -7c158 0 238 171 300 400l252 926h846z" />
    <glyph glyph-name="uni0512" unicode="&#x512;" horiz-adv-x="1403" 
d="M1458 1443l-244 -1148v0l-71 -333c-51 -238 -149 -329 -340 -329c-28 0 -61 2 -73 5l28 117c12 -3 28 -5 42 -5c112 0 170 59 202 203l10 47v0l280 1319h-579l-222 -809c-85 -311 -195 -519 -446 -519c-29 0 -52 6 -63 10l25 123c8 -3 32 -7 53 -7c158 0 238 171 300 400
l252 926h846z" />
    <glyph glyph-name="uni041B.BUL" horiz-adv-x="1359" 
d="M22 0l836 1443h136l229 -1443h-130l-195 1255h-12l-717 -1255h-147z" />
    <glyph glyph-name="Emcyrillic" unicode="&#x41c;" horiz-adv-x="1782" 
d="M269 0h-131l307 1443h150l266 -1256h13l796 1256h168l-307 -1443h-131l250 1177h-10l-745 -1170h-118l-249 1170h-9z" />
    <glyph glyph-name="uni04CD" unicode="&#x4cd;" horiz-adv-x="1823" 
d="M1838 1443l-281 -1319h175v-39l-182 -370h-130l143 285h-32h-131l26 124v0l224 1053h-10l-745 -1170h-118l-249 1170h-9l-250 -1177h-131l307 1443h150l266 -1256h13l796 1256h168z" />
    <glyph glyph-name="Encyrillic" unicode="&#x41d;" horiz-adv-x="1509" 
d="M1258 0h-140l144 677h-841l-145 -677h-138l307 1443h139l-137 -642h842l136 642h140z" />
    <glyph glyph-name="uni04C7" unicode="&#x4c7;" horiz-adv-x="1509" 
d="M1565 1443l-307 -1443h-7l-8 -38c-52 -237 -151 -329 -341 -329c-26 0 -61 2 -73 5l27 117c9 -3 26 -5 43 -5c112 0 170 59 202 203l73 342h7l81 382h-841l-145 -677h-138l307 1443h139l-137 -642h842l136 642h140z" />
    <glyph glyph-name="uni04A2" unicode="&#x4a2;" horiz-adv-x="1565" 
d="M1565 1443l-281 -1319h177l-99 -409h-124l69 285h-49h-132h-8l144 677h-841l-145 -677h-138l307 1443h139l-137 -642h842l136 642h140z" />
    <glyph glyph-name="uni04C9" unicode="&#x4c9;" horiz-adv-x="1541" 
d="M1565 1443l-281 -1319h166v-39l-182 -370h-132l142 285h-20h-140l26 124v0l118 553h-841l-145 -677h-138l307 1443h139l-137 -642h842l136 642h140z" />
    <glyph glyph-name="uni04A4" unicode="&#x4a4;" horiz-adv-x="2131" 
d="M2268 1443l-26 -124h-703l-281 -1319h-140l144 677h-841l-145 -677h-138l307 1443h139l-137 -642h842l136 642h1h139h703z" />
    <glyph glyph-name="Ocyrillic" unicode="&#x41e;" horiz-adv-x="1583" 
d="M794 -30c-337 0 -575 250 -575 604c0 513 328 899 766 899c336 0 572 -249 572 -604c0 -516 -326 -899 -763 -899zM1413 858c0 293 -175 488 -438 488c-347 0 -613 -331 -613 -761c0 -293 176 -488 442 -488c348 0 609 326 609 761z" />
    <glyph glyph-name="uni04E6" unicode="&#x4e6;" horiz-adv-x="1583" 
d="M845 1567c-57 0 -102 45 -102 102s45 102 102 102c56 0 102 -45 102 -102s-46 -102 -102 -102zM1208 1567c-56 0 -102 45 -102 102s46 102 102 102c57 0 102 -45 102 -102s-45 -102 -102 -102zM794 -30c-337 0 -575 250 -575 604c0 513 328 899 766 899
c336 0 572 -249 572 -604c0 -516 -326 -899 -763 -899zM1413 858c0 293 -175 488 -438 488c-347 0 -613 -331 -613 -761c0 -293 176 -488 442 -488c348 0 609 326 609 761z" />
    <glyph glyph-name="uniF518" horiz-adv-x="1583" 
d="M794 -30c-337 0 -575 250 -575 604c0 513 328 899 766 899c336 0 572 -249 572 -604c0 -516 -326 -899 -763 -899zM1413 858c0 293 -175 488 -438 488c-347 0 -613 -331 -613 -761c0 -293 176 -488 442 -488c348 0 609 326 609 761zM1339 1618h-644l22 105h645z" />
    <glyph glyph-name="uniF463" horiz-adv-x="1583" 
d="M931 1576l373 297h175l-389 -297h-159zM794 -30c-337 0 -575 250 -575 604c0 513 328 899 766 899c336 0 572 -249 572 -604c0 -516 -326 -899 -763 -899zM1413 858c0 293 -175 488 -438 488c-347 0 -613 -331 -613 -761c0 -293 176 -488 442 -488c348 0 609 326 609 761
z" />
    <glyph glyph-name="uniF4D2" horiz-adv-x="1583" 
d="M883 1873l184 -297h-141l-200 297h157zM794 -30c-337 0 -575 250 -575 604c0 513 328 899 766 899c336 0 572 -249 572 -604c0 -516 -326 -899 -763 -899zM1413 858c0 293 -175 488 -438 488c-347 0 -613 -331 -613 -761c0 -293 176 -488 442 -488c348 0 609 326 609 761
z" />
    <glyph glyph-name="uniF51A" horiz-adv-x="1583" 
d="M794 -30c-337 0 -575 250 -575 604c0 513 328 899 766 899c336 0 572 -249 572 -604c0 -516 -326 -899 -763 -899zM1413 858c0 293 -175 488 -438 488c-347 0 -613 -331 -613 -761c0 -293 176 -488 442 -488c348 0 609 326 609 761zM767 1851h120
c-23 -112 44 -182 156 -182c113 0 212 70 235 182h120c-36 -173 -178 -274 -364 -274c-188 0 -304 101 -267 274z" />
    <glyph glyph-name="uni04E8" unicode="&#x4e8;" horiz-adv-x="1583" 
d="M1398 684h-1031c-3 -32 -5 -65 -5 -99c0 -293 176 -488 442 -488c300 0 535 242 594 587zM384 795h1027c1 21 2 42 2 63c0 293 -175 488 -438 488c-288 0 -520 -228 -591 -551zM985 1473c336 0 572 -249 572 -604c0 -516 -326 -899 -763 -899c-337 0 -575 250 -575 604
c0 513 328 899 766 899z" />
    <glyph glyph-name="uniF49A" horiz-adv-x="1583" 
d="M1385 1724l-23 -105h-644l22 105h645zM1398 684h-1031c-3 -32 -5 -65 -5 -99c0 -293 176 -488 442 -488c300 0 535 242 594 587zM384 795h1027c1 21 2 42 2 63c0 293 -175 488 -438 488c-288 0 -520 -228 -591 -551zM985 1473c336 0 572 -249 572 -604
c0 -516 -326 -899 -763 -899c-337 0 -575 250 -575 604c0 513 328 899 766 899z" />
    <glyph glyph-name="uniF51C" horiz-adv-x="1583" 
d="M1258 1851h120c-36 -173 -178 -274 -364 -274c-188 0 -304 101 -267 274h120c-23 -112 44 -182 156 -182c113 0 212 70 235 182zM1398 684h-1031c-3 -32 -5 -65 -5 -99c0 -293 176 -488 442 -488c300 0 535 242 594 587zM384 795h1027c1 21 2 42 2 63
c0 293 -175 488 -438 488c-288 0 -520 -228 -591 -551zM985 1473c336 0 572 -249 572 -604c0 -516 -326 -899 -763 -899c-337 0 -575 250 -575 604c0 513 328 899 766 899z" />
    <glyph glyph-name="uniF51E" horiz-adv-x="1583" 
d="M1332 2188h119c-26 -166 -164 -274 -342 -274c-186 0 -311 107 -311 261c0 5 1 10 1 13h116c-1 -5 -1 -10 -1 -15c0 -92 83 -158 199 -158c115 0 198 68 219 173zM1342 1577h-116c1 4 1 10 1 14c0 93 -83 159 -198 159c-116 0 -199 -68 -220 -173h-119
c27 166 165 274 343 274c185 0 310 -107 310 -261c0 -5 0 -10 -1 -13zM1398 684h-1031c-3 -32 -5 -65 -5 -99c0 -293 176 -488 442 -488c300 0 535 242 594 587zM384 795h1027c1 21 2 42 2 63c0 293 -175 488 -438 488c-288 0 -520 -228 -591 -551zM985 1473
c336 0 572 -249 572 -604c0 -516 -326 -899 -763 -899c-337 0 -575 250 -575 604c0 513 328 899 766 899z" />
    <glyph glyph-name="uni04EA" unicode="&#x4ea;" horiz-adv-x="1583" 
d="M1230 1568c-56 0 -102 45 -102 102s46 102 102 102c57 0 102 -45 102 -102s-45 -102 -102 -102zM867 1568c-57 0 -102 45 -102 102s45 102 102 102c56 0 102 -45 102 -102s-46 -102 -102 -102zM1398 684h-1031c-3 -32 -5 -65 -5 -99c0 -293 176 -488 442 -488
c300 0 535 242 594 587zM384 795h1027c1 21 2 42 2 63c0 293 -175 488 -438 488c-288 0 -520 -228 -591 -551zM985 1473c336 0 572 -249 572 -604c0 -516 -326 -899 -763 -899c-337 0 -575 250 -575 604c0 513 328 899 766 899z" />
    <glyph glyph-name="uni0472" unicode="&#x472;" horiz-adv-x="1583" 
d="M804 97c300 0 535 242 595 588c-57 -48 -135 -79 -235 -79c-237 -1 -363 126 -553 126c-126 0 -201 -43 -248 -100c-1 -16 -1 -31 -1 -47c0 -293 176 -488 442 -488zM975 1346c-296 0 -533 -240 -596 -578c57 50 135 82 236 82c231 0 357 -126 553 -126
c121 0 201 42 244 95c1 13 1 26 1 39c0 293 -175 488 -438 488zM985 1473c336 0 572 -249 572 -604c0 -516 -326 -899 -763 -899c-337 0 -575 250 -575 604c0 513 328 899 766 899z" />
    <glyph glyph-name="Pecyrillic" unicode="&#x41f;" horiz-adv-x="1489" 
d="M1237 0h-136l280 1318h-824l-281 -1318h-138l307 1443h1099z" />
    <glyph glyph-name="uni0524" unicode="&#x524;" horiz-adv-x="1551" 
d="M1544 1443l-281 -1319h184l-99 -409h-124l69 285h-56h-125h-11l280 1318h-824l-281 -1318h-138l307 1443h1099z" />
    <glyph glyph-name="Ercyrillic" unicode="&#x420;" horiz-adv-x="1294" 
d="M447 1443h477c240 0 414 -151 414 -377c0 -321 -240 -522 -563 -522h-383l-115 -544h-139zM560 1321l-142 -655h349c256 0 429 146 429 388c0 163 -120 267 -317 267h-319z" />
    <glyph glyph-name="uni048E" unicode="&#x48e;" horiz-adv-x="1294" 
d="M786 975l171 -277c148 55 239 180 239 356c0 163 -120 267 -317 267h-319l-142 -655h349c24 0 47 1 69 4l-145 244zM447 1443h477c240 0 414 -151 414 -377c0 -230 -123 -398 -311 -475l148 -238l-110 -75l-164 277c-40 -7 -82 -11 -126 -11h-383l-115 -544h-139z" />
    <glyph glyph-name="uniF4D4" horiz-adv-x="1294" 
d="M447 1443h477c240 0 414 -151 414 -377c0 -321 -240 -522 -563 -522h-383l-115 -544h-139zM560 1321l-142 -655h349c256 0 429 146 429 388c0 163 -120 267 -317 267h-319zM788 1577l-189 297h143l126 -208h12l214 208h160l-315 -297h-151z" />
    <glyph glyph-name="Escyrillic" unicode="&#x421;" horiz-adv-x="1486" 
d="M773 -32c-336 0 -557 237 -557 586c0 527 328 919 760 919c298 0 529 -197 535 -469c0 -4 1 -8 1 -13h-139c-11 216 -180 355 -406 355c-342 0 -610 -341 -610 -778c0 -286 166 -473 430 -473c227 0 400 119 461 298h144c-74 -262 -304 -425 -619 -425z" />
    <glyph glyph-name="uni04AA" unicode="&#x4aa;" horiz-adv-x="1481" 
d="M1510 990h-138c1 4 1 9 1 15c-10 198 -173 341 -413 341c-336 0 -600 -335 -600 -764c0 -302 164 -485 432 -485c213 0 391 113 449 282h144c-69 -240 -282 -393 -564 -408l-70 -110c117 -12 180 -66 180 -155c0 -109 -97 -186 -233 -186c-56 0 -125 14 -171 37l18 87
c36 -18 103 -32 151 -32c72 0 120 34 120 87c0 52 -49 84 -136 87l-52 1l11 72l74 114c-302 28 -494 254 -494 594c0 519 322 906 751 906c314 0 541 -203 541 -465c0 -7 0 -13 -1 -18z" />
    <glyph glyph-name="uniF53E" horiz-adv-x="1481" 
d="M1510 990h-138c1 4 1 9 1 15c-10 198 -173 341 -413 341c-336 0 -600 -335 -600 -764c0 -302 164 -485 432 -485c213 0 391 113 449 282h144c-70 -241 -286 -395 -570 -408l-59 -256h-128l61 260c-288 38 -470 260 -470 592c0 519 322 906 751 906
c314 0 541 -203 541 -465c0 -7 0 -13 -1 -18z" />
    <glyph glyph-name="Tecyrillic" unicode="&#x422;" horiz-adv-x="1281" 
d="M654 0h-140l281 1319h-482l25 124h1104l-26 -124h-482z" />
    <glyph glyph-name="uni04AC" unicode="&#x4ac;" horiz-adv-x="1281" 
d="M338 1443h1104l-26 -124h-482l-254 -1195h184l-100 -409h-123l69 285h-56h-125h-15l281 1319h-482z" />
    <glyph glyph-name="Ucyrillic" unicode="&#x423;" horiz-adv-x="1303" 
d="M269 -10c-36 0 -63 6 -74 12l26 124c12 -4 36 -9 73 -9c112 0 198 56 303 208l-262 1118h144l215 -961h12l605 961h157l-693 -1072c-173 -267 -288 -381 -506 -381z" />
    <glyph glyph-name="Ushortcyrillic" unicode="&#x40e;" horiz-adv-x="1303" 
d="M653 1851h120c-23 -112 44 -182 156 -182c113 0 212 70 235 182h120c-36 -173 -178 -274 -364 -274c-188 0 -304 101 -267 274zM269 -10c-36 0 -63 6 -74 12l26 124c12 -4 36 -9 73 -9c112 0 198 56 303 208l-262 1118h144l215 -961h12l605 961h157l-693 -1072
c-173 -267 -288 -381 -506 -381z" />
    <glyph glyph-name="uni04EE" unicode="&#x4ee;" horiz-adv-x="1303" 
d="M269 -10c-36 0 -63 6 -74 12l26 124c12 -4 36 -9 73 -9c112 0 198 56 303 208l-262 1118h144l215 -961h12l605 961h157l-693 -1072c-173 -267 -288 -381 -506 -381zM1252 1619h-644l22 105h645z" />
    <glyph glyph-name="uni04F0" unicode="&#x4f0;" horiz-adv-x="1303" 
d="M754 1568c-57 0 -102 45 -102 102s45 102 102 102c56 0 102 -45 102 -102s-46 -102 -102 -102zM1117 1568c-56 0 -102 45 -102 102s46 102 102 102c57 0 102 -45 102 -102s-45 -102 -102 -102zM269 -10c-36 0 -63 6 -74 12l26 124c12 -4 36 -9 73 -9
c112 0 198 56 303 208l-262 1118h144l215 -961h12l605 961h157l-693 -1072c-173 -267 -288 -381 -506 -381z" />
    <glyph glyph-name="uni04F2" unicode="&#x4f2;" horiz-adv-x="1303" 
d="M269 -10c-36 0 -63 6 -74 12l26 124c12 -4 36 -9 73 -9c112 0 198 56 303 208l-262 1118h144l215 -961h12l605 961h157l-693 -1072c-173 -267 -288 -381 -506 -381zM989 1577l373 297h175l-389 -297h-159zM626 1577l373 297h175l-389 -297h-159z" />
    <glyph glyph-name="uniF4CC" horiz-adv-x="1303" 
d="M789 1577l373 297h175l-389 -297h-159zM269 -10c-36 0 -63 6 -74 12l26 124c12 -4 36 -9 73 -9c112 0 198 56 303 208l-262 1118h144l215 -961h12l605 961h157l-693 -1072c-173 -267 -288 -381 -506 -381z" />
    <glyph glyph-name="uniF464" horiz-adv-x="1303" 
d="M789 1577l373 297h175l-389 -297h-159zM269 -10c-36 0 -63 6 -74 12l26 124c12 -4 36 -9 73 -9c112 0 198 56 303 208l-262 1118h144l215 -961h12l605 961h157l-693 -1072c-173 -267 -288 -381 -506 -381z" />
    <glyph glyph-name="Efcyrillic" unicode="&#x424;" horiz-adv-x="1678" 
d="M846 -17h-135l33 154c-334 10 -534 190 -534 479c0 396 328 688 783 697l32 147h135l-31 -147c333 -10 534 -190 534 -479c0 -396 -329 -688 -784 -697zM349 619c0 -220 157 -354 421 -359l198 930c-359 -9 -619 -249 -619 -571zM1523 831c0 220 -157 354 -420 359
l-198 -930c359 9 618 249 618 571z" />
    <glyph glyph-name="Xacyrillic" unicode="&#x425;" horiz-adv-x="1374" 
d="M42 0l663 744l-337 699h156l282 -609h11l551 609h158l-659 -726l344 -717h-148l-295 618h-11l-558 -618h-157z" />
    <glyph glyph-name="uni04B2" unicode="&#x4b2;" horiz-adv-x="1418" 
d="M867 717l285 -593h188l-99 -409h-124l69 285h-117h-6l-295 618h-11l-558 -618h-157l663 744l-337 699h156l282 -609h11l551 609h158z" />
    <glyph glyph-name="uni04FE" unicode="&#x4fe;" horiz-adv-x="1374" 
d="M1526 1443l-602 -663h390l-23 -109h-402l322 -671h-148l-295 618h-11l-558 -618h-157l598 671h-386l23 109h411l-320 663h156l282 -609h11l551 609h158z" />
    <glyph glyph-name="uni04FC" unicode="&#x4fc;" horiz-adv-x="1383" 
d="M954 230l-186 388h-11l-558 -618h-157l664 744l-338 699h156l282 -609h11l551 609h158l-659 -726l211 -421c37 -78 58 -127 75 -175c34 -86 47 -147 47 -216c0 -175 -126 -285 -326 -285c-30 0 -67 4 -90 8l27 114c22 -4 37 -6 58 -6c118 0 189 62 189 165
c0 48 -10 94 -38 174c-16 42 -44 109 -66 155z" />
    <glyph glyph-name="Tsecyrillic" unicode="&#x426;" horiz-adv-x="1549" 
d="M1358 -285h-128l61 285h-1153l308 1443h137l-281 -1319h821l281 1319h139l-281 -1319h183z" />
    <glyph glyph-name="uni04B4" unicode="&#x4b4;" horiz-adv-x="1927" 
d="M1921 1443l-281 -1319h183l-87 -409h-128l61 285h-1153l282 1319h-484l25 124h485h137h457l-25 -124h-458l-255 -1195h822l280 1319h139z" />
    <glyph glyph-name="Checyrillic" unicode="&#x427;" horiz-adv-x="1380" 
d="M1128 0h-136l145 682h-12c-92 -80 -232 -129 -398 -129c-318 0 -479 217 -414 519l79 371h137l-79 -372c-49 -231 53 -391 293 -391c187 0 351 69 427 164l129 599h136z" />
    <glyph glyph-name="uni04F4" unicode="&#x4f4;" horiz-adv-x="1380" 
d="M1128 0h-136l145 682h-12c-92 -80 -232 -129 -398 -129c-318 0 -479 217 -414 519l79 371h137l-79 -372c-49 -231 53 -391 293 -391c187 0 351 69 427 164l129 599h136zM760 1568c-57 0 -102 45 -102 102s45 102 102 102c56 0 102 -45 102 -102s-46 -102 -102 -102z
M1123 1568c-56 0 -102 45 -102 102s46 102 102 102c57 0 102 -45 102 -102s-45 -102 -102 -102z" />
    <glyph glyph-name="uni04B6" unicode="&#x4b6;" horiz-adv-x="1443" 
d="M1435 1443l-281 -1319h185l-99 -409h-124l69 285h-57h-124h-12l145 682h-12c-92 -80 -232 -129 -398 -129c-318 0 -479 217 -414 519l79 371h137l-79 -372c-49 -231 53 -391 293 -391c187 0 351 69 427 164l129 599h136z" />
    <glyph glyph-name="uni04CB" unicode="&#x4cb;" horiz-adv-x="1380" 
d="M1299 1443h136l-307 -1443h-7h-129h-56l-70 -285h-127l99 409h180l119 558h-12c-92 -80 -232 -129 -398 -129c-318 0 -479 217 -414 519l79 371h137l-79 -372c-49 -231 53 -391 293 -391c187 0 351 69 427 164z" />
    <glyph glyph-name="uniF4C6" horiz-adv-x="1380" 
d="M1435 1443l-244 -1148v0l-71 -333c-51 -237 -148 -329 -337 -329c-26 0 -60 2 -73 5l28 117c8 -3 25 -5 42 -5c112 0 170 59 202 203l10 47v0l145 682h-12c-92 -80 -232 -129 -398 -129c-318 0 -479 217 -414 519l79 371h137l-79 -372c-49 -231 53 -391 293 -391
c187 0 351 69 427 164l129 599h136z" />
    <glyph glyph-name="uni04B8" unicode="&#x4b8;" horiz-adv-x="1380" 
d="M1299 1443h136l-307 -1443h-136l145 682h-12c-81 -70 -205 -116 -345 -125l-66 -307h-112l66 309c-279 27 -415 233 -355 513l79 371h137l-79 -372c-47 -220 42 -370 244 -391l76 358h112l-76 -357c160 13 297 79 364 163z" />
    <glyph glyph-name="uni04BA" unicode="&#x4ba;" horiz-adv-x="1403" 
d="M445 1443h136l-148 -695h12c95 78 231 151 421 151c302 0 460 -217 396 -519l-81 -380h-137l81 381c49 231 -53 392 -283 392c-206 0 -367 -102 -447 -206l-121 -567h-136z" />
    <glyph glyph-name="uniF49E" horiz-adv-x="1410" 
d="M440 748h12c95 78 231 151 421 151c302 0 460 -217 396 -519l-81 -380h-137l81 381c49 231 -53 392 -283 392c-206 0 -367 -102 -447 -206l-121 -567h-136l252 1184h-187l25 117h187l30 142h136l-30 -142h470l-25 -117h-470z" />
    <glyph glyph-name="uni0526" unicode="&#x526;" horiz-adv-x="1484" 
d="M1207 124h184l-100 -409h-123l69 285h-56h-126h-11l81 381c49 231 -53 392 -283 392c-206 0 -367 -102 -447 -206l-121 -567h-136l307 1443h136l-148 -695h12c95 78 231 151 421 151c302 0 460 -217 396 -519z" />
    <glyph glyph-name="Shacyrillic" unicode="&#x428;" horiz-adv-x="1937" 
d="M138 0l307 1443h139l-281 -1319h565l281 1319h139l-281 -1319h566l281 1319h139l-307 -1443h-1548z" />
    <glyph glyph-name="Shchacyrillic" unicode="&#x429;" horiz-adv-x="2000" 
d="M1809 -285h-128l61 285h-1604l307 1443h140l-281 -1319h565l281 1319h139l-281 -1319h565l281 1319h140l-281 -1319h183z" />
    <glyph glyph-name="Hardsigncyrillic" unicode="&#x42a;" horiz-adv-x="1515" 
d="M908 0h-538l281 1319h-339l27 124h478l-116 -544h307c267 0 446 -157 446 -391c0 -268 -219 -508 -546 -508zM981 777h-306l-140 -655h360c240 0 417 158 417 366c0 188 -129 289 -331 289z" />
    <glyph glyph-name="Yericyrillic" unicode="&#x42b;" horiz-adv-x="1731" 
d="M1480 0h-139l307 1443h139zM748 777h-305l-140 -655h360c239 0 417 158 417 366c0 192 -134 289 -332 289zM138 0l307 1443h139l-116 -544h307c263 0 447 -153 447 -391c0 -270 -221 -508 -546 -508h-538z" />
    <glyph glyph-name="uni04F8" unicode="&#x4f8;" horiz-adv-x="1731" 
d="M1480 0h-139l307 1443h139zM748 777h-305l-140 -655h360c239 0 417 158 417 366c0 192 -134 289 -332 289zM138 0l307 1443h139l-116 -544h307c263 0 447 -153 447 -391c0 -270 -221 -508 -546 -508h-538zM945 1568c-57 0 -102 45 -102 102s45 102 102 102
c56 0 102 -45 102 -102s-46 -102 -102 -102zM1308 1568c-56 0 -102 45 -102 102s46 102 102 102c57 0 102 -45 102 -102s-45 -102 -102 -102z" />
    <glyph glyph-name="uniF520" horiz-adv-x="1731" 
d="M1480 0h-139l307 1443h139zM748 777h-305l-140 -655h360c239 0 417 158 417 366c0 192 -134 289 -332 289zM138 0l307 1443h139l-116 -544h307c263 0 447 -153 447 -391c0 -270 -221 -508 -546 -508h-538zM1432 1619h-644l22 105h645z" />
    <glyph glyph-name="uniF536" horiz-adv-x="1731" 
d="M1480 0h-139l307 1443h139zM748 777h-305l-140 -655h360c239 0 417 158 417 366c0 192 -134 289 -332 289zM138 0l307 1443h139l-116 -544h307c263 0 447 -153 447 -391c0 -270 -221 -508 -546 -508h-538zM848 1851h120c-23 -112 44 -182 156 -182c113 0 212 70 235 182
h120c-36 -173 -178 -274 -364 -274c-188 0 -304 101 -267 274z" />
    <glyph glyph-name="uniF465" horiz-adv-x="1731" 
d="M959 1577l373 297h175l-389 -297h-159zM1480 0h-139l307 1443h139zM748 777h-305l-140 -655h360c239 0 417 158 417 366c0 192 -134 289 -332 289zM138 0l307 1443h139l-116 -544h307c263 0 447 -153 447 -391c0 -270 -221 -508 -546 -508h-538z" />
    <glyph glyph-name="Softsigncyrillic" unicode="&#x42c;" horiz-adv-x="1283" 
d="M748 777h-305l-140 -655h360c239 0 417 158 417 366c0 192 -134 289 -332 289zM138 0l307 1443h139l-116 -544h307c263 0 447 -153 447 -391c0 -270 -221 -508 -546 -508h-538z" />
    <glyph glyph-name="uni048C" unicode="&#x48c;" horiz-adv-x="1417" 
d="M437 122h360c240 0 417 158 417 366c0 192 -133 289 -331 289h-306zM602 899h308c263 0 446 -153 446 -391c0 -270 -221 -508 -546 -508h-538l250 1178h-323l24 117h324l45 210h139l-45 -210h412l-24 -117h-413z" />
    <glyph glyph-name="uni0462" unicode="&#x462;" horiz-adv-x="1417" 
d="M437 122h360c240 0 417 158 417 366c0 192 -133 289 -331 289h-306zM602 899h308c263 0 446 -153 446 -391c0 -270 -221 -508 -546 -508h-538l250 1178h-323l24 117h324l45 210h139l-45 -210h412l-24 -117h-413z" />
    <glyph glyph-name="Ereversedcyrillic" unicode="&#x42d;" horiz-adv-x="1471" 
d="M679 -30c-265 0 -497 177 -514 441h141c20 -189 182 -314 389 -314c294 0 527 238 595 580h-687l26 124h679c32 332 -129 545 -415 545c-233 0 -407 -138 -482 -344h-139c91 302 331 471 635 471c374 0 603 -281 524 -755c-58 -431 -345 -748 -752 -748z" />
    <glyph glyph-name="uni04EC" unicode="&#x4ec;" horiz-adv-x="1471" 
d="M679 -30c-265 0 -497 177 -514 441h141c20 -189 182 -314 389 -314c294 0 527 238 595 580h-687l26 124h679c32 332 -129 545 -415 545c-233 0 -407 -138 -482 -344h-139c91 302 331 471 635 471c374 0 603 -281 524 -755c-58 -431 -345 -748 -752 -748zM775 1568
c-57 0 -102 45 -102 102s45 102 102 102c56 0 102 -45 102 -102s-46 -102 -102 -102zM1138 1568c-56 0 -102 45 -102 102s46 102 102 102c57 0 102 -45 102 -102s-45 -102 -102 -102z" />
    <glyph glyph-name="uniF522" horiz-adv-x="1471" 
d="M679 -30c-265 0 -497 177 -514 441h141c20 -189 182 -314 389 -314c294 0 527 238 595 580h-687l26 124h679c32 332 -129 545 -415 545c-233 0 -407 -138 -482 -344h-139c91 302 331 471 635 471c374 0 603 -281 524 -755c-58 -431 -345 -748 -752 -748zM1258 1619h-644
l22 105h645z" />
    <glyph glyph-name="uniF466" horiz-adv-x="1471" 
d="M831 1577l373 297h175l-389 -297h-159zM679 -30c-265 0 -497 177 -514 441h141c20 -189 182 -314 389 -314c294 0 527 238 595 580h-687l26 124h679c32 332 -129 545 -415 545c-233 0 -407 -138 -482 -344h-139c91 302 331 471 635 471c374 0 603 -281 524 -755
c-58 -431 -345 -748 -752 -748z" />
    <glyph glyph-name="uniF524" horiz-adv-x="1471" 
d="M679 -30c-265 0 -497 177 -514 441h141c20 -189 182 -314 389 -314c294 0 527 238 595 580h-687l26 124h679c32 332 -129 545 -415 545c-233 0 -407 -138 -482 -344h-139c91 302 331 471 635 471c374 0 603 -281 524 -755c-58 -431 -345 -748 -752 -748zM682 1851h120
c-23 -112 44 -182 156 -182c113 0 212 70 235 182h120c-36 -173 -178 -274 -364 -274c-188 0 -304 101 -267 274z" />
    <glyph glyph-name="uniF4D6" horiz-adv-x="1471" 
d="M679 -30c-265 0 -497 177 -514 441h141c20 -189 182 -314 389 -314c294 0 527 238 595 580h-687l26 124h679c32 332 -129 545 -415 545c-233 0 -407 -138 -482 -344h-139c91 302 331 471 635 471c374 0 603 -281 524 -755c-58 -431 -345 -748 -752 -748zM969 1577
c-58 0 -105 46 -105 104s47 105 105 105s105 -47 105 -105s-47 -104 -105 -104z" />
    <glyph glyph-name="IUcyrillic" unicode="&#x42e;" horiz-adv-x="2056" 
d="M1288 97c337 0 603 344 603 768c0 299 -180 481 -430 481c-343 0 -605 -334 -605 -759c0 -308 182 -490 432 -490zM447 801h292c80 387 359 672 733 672c318 0 561 -242 561 -587c0 -498 -314 -916 -746 -916c-330 0 -572 225 -572 596c0 38 2 75 5 111h-299l-145 -677
h-138l307 1443h139z" />
    <glyph glyph-name="uniF52C" horiz-adv-x="2056" 
d="M1529 1724l-23 -105h-644l22 105h645zM1288 97c337 0 603 344 603 768c0 299 -180 481 -430 481c-343 0 -605 -334 -605 -759c0 -308 182 -490 432 -490zM447 801h292c80 387 359 672 733 672c318 0 561 -242 561 -587c0 -498 -314 -916 -746 -916
c-330 0 -572 225 -572 596c0 38 2 75 5 111h-299l-145 -677h-138l307 1443h139z" />
    <glyph glyph-name="uniF467" horiz-adv-x="2056" 
d="M1555 1874l-389 -297h-159l373 297h175zM1288 97c337 0 603 344 603 768c0 299 -180 481 -430 481c-343 0 -605 -334 -605 -759c0 -308 182 -490 432 -490zM447 801h292c80 387 359 672 733 672c318 0 561 -242 561 -587c0 -498 -314 -916 -746 -916
c-330 0 -572 225 -572 596c0 38 2 75 5 111h-299l-145 -677h-138l307 1443h139z" />
    <glyph glyph-name="uniF52E" horiz-adv-x="2056" 
d="M1441 1851h120c-36 -173 -178 -274 -364 -274c-188 0 -304 101 -267 274h120c-23 -112 44 -182 156 -182c113 0 212 70 235 182zM1288 97c337 0 603 344 603 768c0 299 -180 481 -430 481c-343 0 -605 -334 -605 -759c0 -308 182 -490 432 -490zM447 801h292
c80 387 359 672 733 672c318 0 561 -242 561 -587c0 -498 -314 -916 -746 -916c-330 0 -572 225 -572 596c0 38 2 75 5 111h-299l-145 -677h-138l307 1443h139z" />
    <glyph glyph-name="uniF498" horiz-adv-x="2056" 
d="M1339 1568c-56 0 -102 45 -102 102s46 102 102 102c57 0 102 -45 102 -102s-45 -102 -102 -102zM976 1568c-57 0 -102 45 -102 102s45 102 102 102c56 0 102 -45 102 -102s-46 -102 -102 -102zM1288 97c337 0 603 344 603 768c0 299 -180 481 -430 481
c-343 0 -605 -334 -605 -759c0 -308 182 -490 432 -490zM447 801h292c80 387 359 672 733 672c318 0 561 -242 561 -587c0 -498 -314 -916 -746 -916c-330 0 -572 225 -572 596c0 38 2 75 5 111h-299l-145 -677h-138l307 1443h139z" />
    <glyph glyph-name="IAcyrillic" unicode="&#x42f;" horiz-adv-x="1330" 
d="M775 687h311l135 634h-360c-240 0 -417 -153 -417 -353c0 -183 129 -281 331 -281zM747 566l-516 -566h-179l537 587c-178 49 -287 182 -287 361c0 261 219 495 546 495h538l-307 -1443h-139l120 565h-298c-5 0 -10 0 -15 1z" />
    <glyph glyph-name="uniF528" horiz-adv-x="1330" 
d="M775 687h311l135 634h-360c-240 0 -417 -153 -417 -353c0 -183 129 -281 331 -281zM747 566l-516 -566h-179l537 587c-178 49 -287 182 -287 361c0 261 219 495 546 495h538l-307 -1443h-139l120 565h-298c-5 0 -10 0 -15 1zM1318 1619h-644l22 105h645z" />
    <glyph glyph-name="uniF468" horiz-adv-x="1330" 
d="M865 1577l373 297h175l-389 -297h-159zM775 687h311l135 634h-360c-240 0 -417 -153 -417 -353c0 -183 129 -281 331 -281zM747 566l-516 -566h-179l537 587c-178 49 -287 182 -287 361c0 261 219 495 546 495h538l-307 -1443h-139l120 565h-298c-5 0 -10 0 -15 1z" />
    <glyph glyph-name="uniF4D9" horiz-adv-x="1330" 
d="M816 1568c-57 0 -102 45 -102 102s45 102 102 102c56 0 102 -45 102 -102s-46 -102 -102 -102zM1179 1568c-56 0 -102 45 -102 102s46 102 102 102c57 0 102 -45 102 -102s-45 -102 -102 -102zM775 687h311l135 634h-360c-240 0 -417 -153 -417 -353
c0 -183 129 -281 331 -281zM747 566l-516 -566h-179l537 587c-178 49 -287 182 -287 361c0 261 219 495 546 495h538l-307 -1443h-139l120 565h-298c-5 0 -10 0 -15 1z" />
    <glyph glyph-name="uniF52A" horiz-adv-x="1330" 
d="M719 1851h120c-23 -112 44 -182 156 -182c113 0 212 70 235 182h120c-36 -173 -178 -274 -364 -274c-188 0 -304 101 -267 274zM775 687h311l135 634h-360c-240 0 -417 -153 -417 -353c0 -183 129 -281 331 -281zM747 566l-516 -566h-179l537 587
c-178 49 -287 182 -287 361c0 261 219 495 546 495h538l-307 -1443h-139l120 565h-298c-5 0 -10 0 -15 1z" />
    <glyph glyph-name="Djecyrillic" unicode="&#x402;" horiz-adv-x="1705" 
d="M1604 476c0 -280 -214 -490 -506 -490c-94 0 -135 14 -140 15l27 123c5 -1 44 -13 115 -13c213 0 364 161 364 363c0 171 -99 292 -300 292c-155 0 -310 -99 -390 -198l-121 -568h-140l281 1320h-482l27 123h1103l-26 -123h-483l-123 -579h11c85 83 214 149 358 149
c275 0 425 -170 425 -414z" />
    <glyph glyph-name="uni0494" unicode="&#x494;" horiz-adv-x="1330" 
d="M138 0l307 1443h734l-26 -123h-595l-123 -579h11c85 83 214 149 358 149c275 0 424 -170 424 -414c0 -280 -213 -490 -505 -490c-94 0 -135 14 -140 15l27 123c5 -1 44 -13 115 -13c212 0 364 161 364 363c0 171 -99 292 -300 292c-155 0 -311 -99 -390 -198l-121 -568
h-140z" />
    <glyph glyph-name="uni04A6" unicode="&#x4a6;" horiz-adv-x="2223" 
d="M1616 -14c-94 0 -135 14 -140 15l27 123c4 -1 44 -13 115 -13c212 0 364 161 364 363c0 171 -100 292 -300 292c-156 0 -311 -99 -390 -197l-121 -569h-136l280 1318h-758l-281 -1318h-138l307 1443h1033l-149 -702h10c84 83 213 149 358 149c275 0 424 -170 424 -414
c0 -280 -213 -490 -505 -490z" />
    <glyph glyph-name="Ecyrillic" unicode="&#x404;" horiz-adv-x="1470" 
d="M1379 411c-89 -274 -322 -441 -621 -441c-375 0 -604 279 -525 755c58 431 346 748 752 748c270 0 503 -184 514 -448c1 -6 1 -19 1 -23h-139c-6 205 -173 344 -392 344c-283 0 -510 -221 -586 -545h692l-26 -124h-689c-45 -352 115 -580 411 -580c227 0 397 131 468 314
h140z" />
    <glyph glyph-name="uniF526" horiz-adv-x="1470" 
d="M827 1568c-57 0 -102 45 -102 102s45 102 102 102c56 0 102 -45 102 -102s-46 -102 -102 -102zM1190 1568c-56 0 -102 45 -102 102s46 102 102 102c57 0 102 -45 102 -102s-45 -102 -102 -102zM1379 411c-89 -274 -322 -441 -621 -441c-375 0 -604 279 -525 755
c58 431 346 748 752 748c270 0 503 -184 514 -448c1 -6 1 -19 1 -23h-139c-6 205 -173 344 -392 344c-283 0 -510 -221 -586 -545h692l-26 -124h-689c-45 -352 115 -580 411 -580c227 0 397 131 468 314h140z" />
    <glyph glyph-name="Dzecyrillic" unicode="&#x405;" horiz-adv-x="1274" 
d="M129 392h139c24 -178 187 -297 405 -297c220 0 368 115 368 288c0 122 -74 208 -263 274l-136 48c-211 74 -318 202 -318 365c0 232 210 403 494 403c269 0 476 -166 496 -398h-137c-31 166 -175 273 -368 273c-198 0 -342 -112 -342 -267c0 -113 76 -195 257 -260
l133 -47c227 -82 329 -207 329 -376c0 -253 -214 -428 -523 -428c-296 0 -506 166 -534 422z" />
    <glyph glyph-name="Icyrillic" unicode="&#x406;" horiz-adv-x="528" 
d="M277 0h-139l307 1443h139z" />
    <glyph glyph-name="Yicyrillic" unicode="&#x407;" horiz-adv-x="515" 
d="M270 0h-139l307 1443h139zM374 1568c-57 0 -102 45 -102 102s45 102 102 102c56 0 102 -45 102 -102s-46 -102 -102 -102zM737 1568c-56 0 -102 45 -102 102s46 102 102 102c57 0 102 -45 102 -102s-45 -102 -102 -102z" />
    <glyph glyph-name="uni04C0" unicode="&#x4c0;" horiz-adv-x="528" 
d="M277 0h-139l307 1443h139z" />
    <glyph glyph-name="Icyrillic.1" horiz-adv-x="1009" 
d="M1085 1325h-286l-257 -1207h287l-26 -118h-286h-139h-286l25 118h286l257 1207h-286l25 118h286h139h286z" />
    <glyph glyph-name="Yicyrillic.1" horiz-adv-x="1009" 
d="M953 1568c-56 0 -102 45 -102 102s46 102 102 102c57 0 102 -45 102 -102s-45 -102 -102 -102zM590 1568c-57 0 -102 45 -102 102s45 102 102 102c56 0 102 -45 102 -102s-46 -102 -102 -102zM1085 1325h-286l-257 -1207h287l-26 -118h-286h-139h-286l25 118h286
l257 1207h-286l25 118h286h139h286z" />
    <glyph glyph-name="uni04C0.1" horiz-adv-x="1009" 
d="M1085 1325h-286l-257 -1207h287l-26 -118h-286h-139h-286l25 118h286l257 1207h-286l25 118h286h139h286z" />
    <glyph glyph-name="Jecyrillic" unicode="&#x408;" horiz-adv-x="1097" 
d="M111 330h138v-6c2 -137 101 -226 252 -226c154 0 257 100 297 290l224 1055h136l-230 -1090c-51 -242 -208 -383 -444 -383c-224 0 -383 150 -373 353v7z" />
    <glyph glyph-name="Ljecyrillic" unicode="&#x409;" horiz-adv-x="2144" 
d="M491 510c-91 -332 -206 -519 -446 -519c-25 0 -49 4 -63 10l25 123c12 -4 36 -7 53 -7c152 0 234 157 300 400l252 926h833l-115 -544h307c263 0 446 -153 446 -391c0 -270 -221 -508 -546 -508h-538l281 1319h-567zM1610 777h-306l-140 -655h360c240 0 417 158 417 366
c0 192 -133 289 -331 289z" />
    <glyph glyph-name="Njecyrillic" unicode="&#x40a;" horiz-adv-x="2181" 
d="M1057 0l144 677h-780l-145 -677h-138l307 1443h139l-137 -642h780l137 642h139l-136 -643h320c249 0 422 -138 422 -350c0 -239 -204 -450 -522 -450h-530zM1222 122h352c242 0 393 133 393 312c0 160 -123 244 -307 244h-319z" />
    <glyph glyph-name="Tshecyrillic" unicode="&#x40b;" horiz-adv-x="1718" 
d="M1181 766c-180 0 -336 -103 -407 -198l-121 -568h-140l281 1319h-482l27 124h1103l-26 -124h-483l-123 -576h14c89 76 219 147 382 147c287 0 439 -193 373 -504l-83 -386h-139l83 392c51 241 -53 374 -259 374z" />
    <glyph glyph-name="uni04A8" unicode="&#x4a8;" horiz-adv-x="2006" 
d="M1094 663c0 -186 75 -367 209 -478c260 120 470 402 470 653c0 206 -117 335 -305 335c-225 0 -374 -226 -374 -510zM1014 1480l-28 -130c-402 -35 -613 -356 -613 -708c0 -304 188 -545 565 -545c80 0 156 12 233 36c-142 127 -219 325 -219 529c0 377 217 639 519 639
c277 0 446 -182 446 -447c0 -305 -211 -581 -489 -737c62 -23 123 -31 189 -31c105 0 196 21 294 55v-115c-90 -36 -190 -56 -292 -56c-127 0 -232 26 -327 78c-114 -52 -236 -78 -363 -78c-467 0 -701 304 -700 672c2 428 271 810 785 838z" />
    <glyph glyph-name="Dzhecyrillic" unicode="&#x40f;" horiz-adv-x="1489" 
d="M624 0h-486l307 1443h136l-280 -1318h824l281 1318h138l-307 -1443h-486l-61 -285h-127z" />
    <glyph glyph-name="uni04AE" unicode="&#x4ae;" horiz-adv-x="1321" 
d="M674 0h-139l133 624l-343 819h143l289 -685h12l568 685h159l-695 -837z" />
    <glyph glyph-name="uniF43A" horiz-adv-x="1321" 
d="M674 0h-139l133 624l-343 819h143l289 -685h12l568 685h159l-695 -837zM1266 1619h-644l22 105h645z" />
    <glyph glyph-name="uni04B0" unicode="&#x4b0;" horiz-adv-x="1321" 
d="M1496 1443l-676 -814h384l-23 -109h-398l-109 -520h-139l111 520h-398l23 109h395l-341 814h143l289 -685h12l568 685h159z" />
    <glyph glyph-name="uni04BC" unicode="&#x4bc;" horiz-adv-x="1744" 
d="M624 844h950c4 21 6 44 6 70c0 261 -161 432 -405 432c-294 0 -491 -240 -551 -502zM1708 720h-1107c-2 -16 -7 -56 -7 -110c0 -318 169 -513 443 -513c200 0 349 82 443 251h151c-115 -248 -327 -378 -600 -378c-357 0 -581 245 -581 623c0 45 3 89 7 132h-23
c-158 0 -270 83 -270 241c0 81 44 160 71 200h126c-23 -37 -67 -112 -67 -180c0 -87 50 -145 162 -145h21c85 374 360 632 697 632c342 0 552 -223 552 -569c0 -52 -7 -120 -18 -184z" />
    <glyph glyph-name="uni04BE" unicode="&#x4be;" horiz-adv-x="1744" 
d="M1421 1568c-56 0 -102 45 -102 102s46 102 102 102c57 0 102 -45 102 -102s-45 -102 -102 -102zM1058 1568c-57 0 -102 45 -102 102s45 102 102 102c56 0 102 -45 102 -102s-46 -102 -102 -102zM624 844h950c4 21 6 44 6 70c0 261 -161 432 -405 432
c-294 0 -491 -240 -551 -502zM1708 720h-1107c-2 -16 -7 -56 -7 -110c0 -318 169 -513 443 -513c200 0 349 82 443 251h151c-106 -230 -296 -358 -540 -376l-61 -257h-127l60 258c-317 29 -513 267 -513 620c0 45 3 89 7 132h-23c-158 0 -270 83 -270 241
c0 81 44 160 71 200h126c-23 -37 -67 -112 -67 -180c0 -87 50 -145 162 -145h21c85 374 360 632 697 632c342 0 552 -223 552 -569c0 -52 -7 -120 -18 -184z" />
    <glyph glyph-name="uni04D4" unicode="&#x4d4;" horiz-adv-x="1968" 
d="M1233 1327h-162l-528 -766h527zM951 0l94 443h-580l-303 -443h-145l985 1443h1067l-26 -124h-675l-112 -526h638l-26 -122h-638l-117 -547h675l-26 -124h-811z" />
    <glyph glyph-name="uni04D8" unicode="&#x4d8;" horiz-adv-x="1531" 
d="M916 1473c360 0 583 -244 583 -623c0 -512 -302 -880 -712 -880c-353 0 -573 228 -573 582c0 53 7 125 21 194h1115c3 40 4 65 4 87c0 320 -167 513 -443 513c-201 0 -352 -95 -441 -251h-152c107 239 329 378 598 378zM1327 622h-959c-4 -14 -8 -48 -8 -75
c0 -282 160 -450 429 -450c286 0 479 230 538 525z" />
    <glyph glyph-name="uni04DA" unicode="&#x4da;" horiz-adv-x="1531" 
d="M819 1568c-57 0 -102 45 -102 102s45 102 102 102c56 0 102 -45 102 -102s-46 -102 -102 -102zM1182 1568c-56 0 -102 45 -102 102s46 102 102 102c57 0 102 -45 102 -102s-45 -102 -102 -102zM916 1473c360 0 583 -244 583 -623c0 -512 -302 -880 -712 -880
c-353 0 -573 228 -573 582c0 53 7 125 21 194h1115c3 40 4 65 4 87c0 320 -167 513 -443 513c-201 0 -352 -95 -441 -251h-152c107 239 329 378 598 378zM1327 622h-959c-4 -14 -8 -48 -8 -75c0 -282 160 -450 429 -450c286 0 479 230 538 525z" />
    <glyph glyph-name="uniF49C" horiz-adv-x="1531" 
d="M916 1473c360 0 583 -244 583 -623c0 -512 -302 -880 -712 -880c-353 0 -573 228 -573 582c0 53 7 125 21 194h1115c3 40 4 65 4 87c0 320 -167 513 -443 513c-201 0 -352 -95 -441 -251h-152c107 239 329 378 598 378zM1327 622h-959c-4 -14 -8 -48 -8 -75
c0 -282 160 -450 429 -450c286 0 479 230 538 525zM1310 1619h-644l22 105h645z" />
    <glyph glyph-name="uni04E0" unicode="&#x4e0;" horiz-adv-x="1227" 
d="M600 -30c-267 0 -451 139 -468 354c-1 15 -1 30 0 45h132c-1 -167 137 -279 345 -279c223 0 380 145 380 351c0 188 -137 298 -394 298h-71l24 118l504 450v12h-665l26 124h865l-21 -100l-547 -491v-11c265 -19 420 -167 420 -392c0 -287 -214 -479 -530 -479z" />
    <glyph glyph-name="uni0510" unicode="&#x510;" horiz-adv-x="1217" 
d="M907 681h-176c-298 0 -460 -128 -460 -327c0 -163 121 -261 327 -261c190 0 355 105 417 276h139c-75 -246 -282 -399 -557 -399c-286 0 -466 136 -466 372c0 220 156 376 417 406v12c-131 37 -218 151 -218 293c0 235 191 420 492 420c287 0 466 -162 440 -390h-133
c13 160 -113 267 -316 267c-198 0 -341 -125 -341 -298c0 -157 111 -249 304 -249h157z" />
    <glyph glyph-name="uniF538" horiz-adv-x="1217" 
d="M691 1568c-57 0 -102 45 -102 102s45 102 102 102c56 0 102 -45 102 -102s-46 -102 -102 -102zM1054 1568c-56 0 -102 45 -102 102s46 102 102 102c57 0 102 -45 102 -102s-45 -102 -102 -102zM907 681h-176c-298 0 -460 -128 -460 -327c0 -163 121 -261 327 -261
c190 0 355 105 417 276h139c-75 -246 -282 -399 -557 -399c-286 0 -466 136 -466 372c0 220 156 376 417 406v12c-131 37 -218 151 -218 293c0 235 191 420 492 420c287 0 466 -162 440 -390h-133c13 160 -113 267 -316 267c-198 0 -341 -125 -341 -298
c0 -157 111 -249 304 -249h157z" />
    <glyph glyph-name="uni0474" unicode="&#x474;" horiz-adv-x="1499" 
d="M568 0l-234 1443h130l202 -1259h12l579 1012c65 115 102 166 149 205c42 36 96 55 155 55c52 0 112 -13 160 -37l-59 -113c-35 13 -69 20 -98 20c-35 0 -65 -11 -90 -33c-28 -24 -57 -64 -102 -141l-669 -1152h-135z" />
    <glyph glyph-name="uni051C" unicode="&#x51c;" horiz-adv-x="1951" 
d="M1166 1206l-600 -1206h-133l-91 1443h127l68 -1230h10l608 1230h123l100 -1230h9l581 1230h142l-699 -1443h-133l-102 1206h-10z" />
    <glyph glyph-name="a" unicode="a" horiz-adv-x="1126" 
d="M485 97c180 0 337 121 373 283l32 149l-321 -17c-203 -11 -319 -94 -319 -226c0 -111 96 -189 235 -189zM447 -18c-191 0 -331 125 -331 291c0 207 165 333 459 347l337 16l18 81c5 26 7 44 7 64c0 123 -95 196 -254 196c-142 0 -249 -64 -282 -167h-138
c43 173 214 285 430 285c229 0 377 -116 377 -297c0 -28 -3 -59 -9 -89l-151 -709h-127l35 165h-13c-75 -111 -213 -183 -358 -183z" />
    <glyph glyph-name="agrave" unicode="&#xe0;" horiz-adv-x="1126" 
d="M485 97c180 0 337 121 373 283l32 149l-321 -17c-203 -11 -319 -94 -319 -226c0 -111 96 -189 235 -189zM447 -18c-191 0 -331 125 -331 291c0 207 165 333 459 347l337 16l18 81c5 26 7 44 7 64c0 123 -95 196 -254 196c-142 0 -249 -64 -282 -167h-138
c43 173 214 285 430 285c229 0 377 -116 377 -297c0 -28 -3 -59 -9 -89l-151 -709h-127l35 165h-13c-75 -111 -213 -183 -358 -183zM800 1267h-143l-200 327h162z" />
    <glyph glyph-name="aacute" unicode="&#xe1;" horiz-adv-x="1126" 
d="M485 97c180 0 337 121 373 283l32 149l-321 -17c-203 -11 -319 -94 -319 -226c0 -111 96 -189 235 -189zM447 -18c-191 0 -331 125 -331 291c0 207 165 333 459 347l337 16l18 81c5 26 7 44 7 64c0 123 -95 196 -254 196c-142 0 -249 -64 -282 -167h-138
c43 173 214 285 430 285c229 0 377 -116 377 -297c0 -28 -3 -59 -9 -89l-151 -709h-127l35 165h-13c-75 -111 -213 -183 -358 -183zM662 1267l320 327h169l-339 -327h-150z" />
    <glyph glyph-name="adieresis" unicode="&#xe4;" horiz-adv-x="1126" 
d="M485 97c180 0 337 121 373 283l32 149l-321 -17c-203 -11 -319 -94 -319 -226c0 -111 96 -189 235 -189zM447 -18c-191 0 -331 125 -331 291c0 207 165 333 459 347l337 16l18 81c5 26 7 44 7 64c0 123 -95 196 -254 196c-142 0 -249 -64 -282 -167h-138
c43 173 214 285 430 285c229 0 377 -116 377 -297c0 -28 -3 -59 -9 -89l-151 -709h-127l35 165h-13c-75 -111 -213 -183 -358 -183zM576 1228c-57 0 -102 45 -102 102s45 102 102 102c56 0 102 -45 102 -102s-46 -102 -102 -102zM939 1228c-56 0 -102 45 -102 102
s46 102 102 102c57 0 102 -45 102 -102s-45 -102 -102 -102z" />
    <glyph glyph-name="adieresismacron" unicode="&#x1df;" horiz-adv-x="1126" 
d="M485 97c180 0 337 121 373 283l32 149l-321 -17c-203 -11 -319 -94 -319 -226c0 -111 96 -189 235 -189zM447 -18c-191 0 -331 125 -331 291c0 207 165 333 459 347l337 16l18 81c5 26 7 44 7 64c0 123 -95 196 -254 196c-142 0 -249 -64 -282 -167h-138
c43 173 214 285 430 285c229 0 377 -116 377 -297c0 -28 -3 -59 -9 -89l-151 -709h-127l35 165h-13c-75 -111 -213 -183 -358 -183zM577 1240c-55 0 -99 44 -99 99c0 56 44 99 99 99s100 -43 100 -99c0 -55 -45 -99 -100 -99zM941 1240c-55 0 -99 44 -99 99
c0 56 44 99 99 99s99 -43 99 -99c0 -55 -44 -99 -99 -99zM1149 1614h-663l23 106h662z" />
    <glyph glyph-name="aring" unicode="&#xe5;" horiz-adv-x="1126" 
d="M485 97c180 0 337 121 373 283l32 149l-321 -17c-203 -11 -319 -94 -319 -226c0 -111 96 -189 235 -189zM447 -18c-191 0 -331 125 -331 291c0 207 165 333 459 347l337 16l18 81c5 26 7 44 7 64c0 123 -95 196 -254 196c-142 0 -249 -64 -282 -167h-138
c43 173 214 285 430 285c229 0 377 -116 377 -297c0 -28 -3 -59 -9 -89l-151 -709h-127l35 165h-13c-75 -111 -213 -183 -358 -183zM781 1228c-118 0 -213 92 -213 211c0 118 95 210 213 210s213 -92 213 -210c0 -119 -95 -211 -213 -211zM781 1313c71 0 125 55 125 126
s-54 125 -125 125s-125 -54 -125 -125s54 -126 125 -126z" />
    <glyph glyph-name="aringacute" unicode="&#x1fb;" horiz-adv-x="1126" 
d="M485 97c180 0 337 121 373 283l32 149l-321 -17c-203 -11 -319 -94 -319 -226c0 -111 96 -189 235 -189zM447 -18c-191 0 -331 125 -331 291c0 207 165 333 459 347l337 16l18 81c5 26 7 44 7 64c0 123 -95 196 -254 196c-142 0 -249 -64 -282 -167h-138
c43 173 214 285 430 285c229 0 377 -116 377 -297c0 -28 -3 -59 -9 -89l-151 -709h-127l35 165h-13c-75 -111 -213 -183 -358 -183zM770 1209c-106 0 -191 83 -191 188s85 188 191 188s191 -83 191 -188s-85 -188 -191 -188zM662 1396c0 -62 47 -109 108 -109
s109 47 109 109s-48 110 -109 110s-108 -48 -108 -110zM712 1669l208 206h155l-229 -206h-134z" />
    <glyph glyph-name="atilde" unicode="&#xe3;" horiz-adv-x="1126" 
d="M485 97c180 0 337 121 373 283l32 149l-321 -17c-203 -11 -319 -94 -319 -226c0 -111 96 -189 235 -189zM447 -18c-191 0 -331 125 -331 291c0 207 165 333 459 347l337 16l18 81c5 26 7 44 7 64c0 123 -95 196 -254 196c-142 0 -249 -64 -282 -167h-138
c43 173 214 285 430 285c229 0 377 -116 377 -297c0 -28 -3 -59 -9 -89l-151 -709h-127l35 165h-13c-75 -111 -213 -183 -358 -183zM918 1216c-166 0 -183 186 -286 186c-61 0 -103 -48 -121 -142h-110c20 157 117 247 236 247c165 0 182 -187 286 -187c61 0 102 47 121 142
h110c-23 -159 -117 -246 -236 -246z" />
    <glyph glyph-name="abrevegrave" unicode="&#x1eb1;" horiz-adv-x="1126" 
d="M485 97c180 0 337 121 373 283l32 149l-321 -17c-203 -11 -319 -94 -319 -226c0 -111 96 -189 235 -189zM447 -18c-191 0 -331 125 -331 291c0 207 165 333 459 347l337 16l18 81c5 26 7 44 7 64c0 123 -95 196 -254 196c-142 0 -249 -64 -282 -167h-138
c43 173 214 285 430 285c229 0 377 -116 377 -297c0 -28 -3 -59 -9 -89l-151 -709h-127l35 165h-13c-75 -111 -213 -183 -358 -183zM441 1526h117c-1 -9 -2 -17 -2 -30c0 -103 77 -167 200 -167c130 0 216 72 231 197h120c-15 -177 -155 -298 -357 -298
c-198 0 -312 110 -312 259c0 12 1 25 3 39zM854 1542h-131l-166 297h152z" />
    <glyph glyph-name="adotmacron" unicode="&#x1e1;" horiz-adv-x="1126" 
d="M485 97c180 0 337 121 373 283l32 149l-321 -17c-203 -11 -319 -94 -319 -226c0 -111 96 -189 235 -189zM447 -18c-191 0 -331 125 -331 291c0 207 165 333 459 347l337 16l18 81c5 26 7 44 7 64c0 123 -95 196 -254 196c-142 0 -249 -64 -282 -167h-138
c43 173 214 285 430 285c229 0 377 -116 377 -297c0 -28 -3 -59 -9 -89l-151 -709h-127l35 165h-13c-75 -111 -213 -183 -358 -183zM755 1228c-58 0 -103 45 -103 103s45 103 103 103s103 -45 103 -103s-45 -103 -103 -103zM1143 1585h-663l23 106h662z" />
    <glyph glyph-name="aringbelow" unicode="&#x1e01;" horiz-adv-x="1126" 
d="M485 97c180 0 337 121 373 283l32 149l-321 -17c-203 -11 -319 -94 -319 -226c0 -111 96 -189 235 -189zM447 -18c-191 0 -331 125 -331 291c0 207 165 333 459 347l337 16l18 81c5 26 7 44 7 64c0 123 -95 196 -254 196c-142 0 -249 -64 -282 -167h-138
c43 173 214 285 430 285c229 0 377 -116 377 -297c0 -28 -3 -59 -9 -89l-151 -709h-127l35 165h-13c-75 -111 -213 -183 -358 -183zM465 -549c-118 0 -213 92 -213 211c0 118 95 210 213 210s213 -92 213 -210c0 -119 -95 -211 -213 -211zM465 -464c71 0 125 55 125 126
s-54 125 -125 125s-125 -54 -125 -125s54 -126 125 -126z" />
    <glyph glyph-name="acircumflex" unicode="&#xe2;" horiz-adv-x="1126" 
d="M485 97c180 0 337 121 373 283l32 149l-321 -17c-203 -11 -319 -94 -319 -226c0 -111 96 -189 235 -189zM447 -18c-191 0 -331 125 -331 291c0 207 165 333 459 347l337 16l18 81c5 26 7 44 7 64c0 123 -95 196 -254 196c-142 0 -249 -64 -282 -167h-138
c43 173 214 285 430 285c229 0 377 -116 377 -297c0 -28 -3 -59 -9 -89l-151 -709h-127l35 165h-13c-75 -111 -213 -183 -358 -183zM874 1560l205 -332h-144l-142 243h-11l-245 -243h-162l346 332h153z" />
    <glyph glyph-name="acircumflexdotbelow" unicode="&#x1ead;" horiz-adv-x="1126" 
d="M485 97c180 0 337 121 373 283l32 149l-321 -17c-203 -11 -319 -94 -319 -226c0 -111 96 -189 235 -189zM447 -18c-191 0 -331 125 -331 291c0 207 165 333 459 347l337 16l18 81c5 26 7 44 7 64c0 123 -95 196 -254 196c-142 0 -249 -64 -282 -167h-138
c43 173 214 285 430 285c229 0 377 -116 377 -297c0 -28 -3 -59 -9 -89l-151 -709h-127l35 165h-13c-75 -111 -213 -183 -358 -183zM874 1560l205 -332h-144l-142 243h-11l-245 -243h-162l346 332h153zM482 -364c-58 0 -105 47 -105 105c0 57 47 104 105 104
c57 0 104 -47 104 -104c0 -58 -47 -105 -104 -105z" />
    <glyph glyph-name="acircumflexacute" unicode="&#x1ea5;" horiz-adv-x="1126" 
d="M485 97c180 0 337 121 373 283l32 149l-321 -17c-203 -11 -319 -94 -319 -226c0 -111 96 -189 235 -189zM447 -18c-191 0 -331 125 -331 291c0 207 165 333 459 347l337 16l18 81c5 26 7 44 7 64c0 123 -95 196 -254 196c-142 0 -249 -64 -282 -167h-138
c43 173 214 285 430 285c229 0 377 -116 377 -297c0 -28 -3 -59 -9 -89l-151 -709h-127l35 165h-13c-75 -111 -213 -183 -358 -183zM877 1534l210 -306h-153l-146 217h-12l-237 -217h-157l340 306h155zM1003 1539l270 296h155l-292 -296h-133z" />
    <glyph glyph-name="acircumflextilde" unicode="&#x1eab;" horiz-adv-x="1126" 
d="M485 97c180 0 337 121 373 283l32 149l-321 -17c-203 -11 -319 -94 -319 -226c0 -111 96 -189 235 -189zM447 -18c-191 0 -331 125 -331 291c0 207 165 333 459 347l337 16l18 81c5 26 7 44 7 64c0 123 -95 196 -254 196c-142 0 -249 -64 -282 -167h-138
c43 173 214 285 430 285c229 0 377 -116 377 -297c0 -28 -3 -59 -9 -89l-151 -709h-127l35 165h-13c-75 -111 -213 -183 -358 -183zM876 1531l211 -303h-153l-147 214h-11l-237 -214h-157l340 303h154zM991 1596c-162 0 -184 184 -286 184c-54 0 -103 -46 -121 -139h-110
c25 157 124 243 236 243c161 0 183 -183 285 -183c54 0 102 44 121 138h110c-28 -158 -123 -243 -235 -243z" />
    <glyph glyph-name="acircumflexgrave" unicode="&#x1ea7;" horiz-adv-x="1126" 
d="M485 97c180 0 337 121 373 283l32 149l-321 -17c-203 -11 -319 -94 -319 -226c0 -111 96 -189 235 -189zM447 -18c-191 0 -331 125 -331 291c0 207 165 333 459 347l337 16l18 81c5 26 7 44 7 64c0 123 -95 196 -254 196c-142 0 -249 -64 -282 -167h-138
c43 173 214 285 430 285c229 0 377 -116 377 -297c0 -28 -3 -59 -9 -89l-151 -709h-127l35 165h-13c-75 -111 -213 -183 -358 -183zM877 1534l211 -306h-154l-145 217h-12l-238 -217h-156l340 306h154zM1212 1539h-130l-165 300h152z" />
    <glyph glyph-name="acircumflexhookabove" unicode="&#x1ea9;" horiz-adv-x="1126" 
d="M485 97c180 0 337 121 373 283l32 149l-321 -17c-203 -11 -319 -94 -319 -226c0 -111 96 -189 235 -189zM447 -18c-191 0 -331 125 -331 291c0 207 165 333 459 347l337 16l18 81c5 26 7 44 7 64c0 123 -95 196 -254 196c-142 0 -249 -64 -282 -167h-138
c43 173 214 285 430 285c229 0 377 -116 377 -297c0 -28 -3 -59 -9 -89l-151 -709h-127l35 165h-13c-75 -111 -213 -183 -358 -183zM876 1534l210 -306h-153l-146 217h-12l-237 -217h-157l340 306h155zM918 1724l19 93c20 8 60 16 98 16c119 0 199 -57 199 -152
c0 -97 -79 -180 -198 -212l-42 83c79 19 123 64 123 115c0 47 -39 71 -102 71c-36 0 -72 -6 -97 -14z" />
    <glyph glyph-name="abreve" unicode="&#x103;" horiz-adv-x="1126" 
d="M485 97c180 0 337 121 373 283l32 149l-321 -17c-203 -11 -319 -94 -319 -226c0 -111 96 -189 235 -189zM447 -18c-191 0 -331 125 -331 291c0 207 165 333 459 347l337 16l18 81c5 26 7 44 7 64c0 123 -95 196 -254 196c-142 0 -249 -64 -282 -167h-138
c43 173 214 285 430 285c229 0 377 -116 377 -297c0 -28 -3 -59 -9 -89l-151 -709h-127l35 165h-13c-75 -111 -213 -183 -358 -183zM449 1538h116c-1 -9 -2 -17 -2 -31c0 -102 77 -166 200 -166c131 0 216 72 231 197h120c-15 -178 -154 -298 -357 -298
c-197 0 -311 110 -311 259c0 12 1 25 3 39z" />
    <glyph glyph-name="abreveacute" unicode="&#x1eaf;" horiz-adv-x="1126" 
d="M485 97c180 0 337 121 373 283l32 149l-321 -17c-203 -11 -319 -94 -319 -226c0 -111 96 -189 235 -189zM447 -18c-191 0 -331 125 -331 291c0 207 165 333 459 347l337 16l18 81c5 26 7 44 7 64c0 123 -95 196 -254 196c-142 0 -249 -64 -282 -167h-138
c43 173 214 285 430 285c229 0 377 -116 377 -297c0 -28 -3 -59 -9 -89l-151 -709h-127l35 165h-13c-75 -111 -213 -183 -358 -183zM441 1526h117c-1 -9 -2 -17 -2 -30c0 -103 77 -167 200 -167c130 0 215 72 231 197h120c-16 -177 -155 -298 -357 -298
c-198 0 -312 110 -312 259c0 12 1 25 3 39zM698 1542l270 297h155l-291 -297h-134z" />
    <glyph glyph-name="abrevetilde" unicode="&#x1eb5;" horiz-adv-x="1126" 
d="M485 97c180 0 337 121 373 283l32 149l-321 -17c-203 -11 -319 -94 -319 -226c0 -111 96 -189 235 -189zM447 -18c-191 0 -331 125 -331 291c0 207 165 333 459 347l337 16l18 81c5 26 7 44 7 64c0 123 -95 196 -254 196c-142 0 -249 -64 -282 -167h-138
c43 173 214 285 430 285c229 0 377 -116 377 -297c0 -28 -3 -59 -9 -89l-151 -709h-127l35 165h-13c-75 -111 -213 -183 -358 -183zM443 1506h117v-9c3 -102 80 -168 197 -168c115 0 199 69 219 177h119c-26 -169 -159 -277 -342 -277c-185 0 -310 105 -310 260v17z
M963 1594c-163 0 -185 183 -287 183c-54 0 -103 -45 -121 -138h-110c26 157 124 243 236 243c161 0 184 -183 286 -183c54 0 102 44 121 138h110c-28 -158 -124 -243 -235 -243z" />
    <glyph glyph-name="abrevehookabove" unicode="&#x1eb3;" horiz-adv-x="1126" 
d="M485 97c180 0 337 121 373 283l32 149l-321 -17c-203 -11 -319 -94 -319 -226c0 -111 96 -189 235 -189zM447 -18c-191 0 -331 125 -331 291c0 207 165 333 459 347l337 16l18 81c5 26 7 44 7 64c0 123 -95 196 -254 196c-142 0 -249 -64 -282 -167h-138
c43 173 214 285 430 285c229 0 377 -116 377 -297c0 -28 -3 -59 -9 -89l-151 -709h-127l35 165h-13c-75 -111 -213 -183 -358 -183zM441 1526h117c-1 -11 -2 -20 -2 -30c0 -103 77 -167 200 -167c130 0 216 72 231 197h120c-15 -180 -157 -298 -357 -298
c-189 0 -312 102 -312 259c0 12 1 25 3 39zM643 1741l20 93c20 8 60 16 98 16c119 0 199 -57 199 -152c0 -97 -80 -181 -198 -213l-42 83c79 20 123 64 123 116c0 47 -40 71 -103 71c-36 0 -71 -6 -97 -14z" />
    <glyph glyph-name="abrevedotbelow" unicode="&#x1eb7;" horiz-adv-x="1126" 
d="M485 97c180 0 337 121 373 283l32 149l-321 -17c-203 -11 -319 -94 -319 -226c0 -111 96 -189 235 -189zM447 -18c-191 0 -331 125 -331 291c0 207 165 333 459 347l337 16l18 81c5 26 7 44 7 64c0 123 -95 196 -254 196c-142 0 -249 -64 -282 -167h-138
c43 173 214 285 430 285c229 0 377 -116 377 -297c0 -28 -3 -59 -9 -89l-151 -709h-127l35 165h-13c-75 -111 -213 -183 -358 -183zM460 -364c-58 0 -105 47 -105 105c0 57 47 104 105 104c57 0 104 -47 104 -104c0 -58 -47 -105 -104 -105zM449 1538h116
c-1 -9 -2 -17 -2 -31c0 -102 77 -166 200 -166c131 0 216 72 231 197h120c-15 -178 -154 -298 -357 -298c-197 0 -311 110 -311 259c0 12 1 25 3 39z" />
    <glyph glyph-name="ainvertedbreve" unicode="&#x203;" horiz-adv-x="1126" 
d="M485 97c180 0 337 121 373 283l32 149l-321 -17c-203 -11 -319 -94 -319 -226c0 -111 96 -189 235 -189zM447 -18c-191 0 -331 125 -331 291c0 207 165 333 459 347l337 16l18 81c5 26 7 44 7 64c0 123 -95 196 -254 196c-142 0 -249 -64 -282 -167h-138
c43 173 214 285 430 285c229 0 377 -116 377 -297c0 -28 -3 -59 -9 -89l-151 -709h-127l35 165h-13c-75 -111 -213 -183 -358 -183zM1088 1228h-117c1 6 2 14 2 27c0 102 -77 170 -199 170c-131 0 -215 -74 -232 -197h-120c17 176 155 298 358 298c187 0 311 -114 311 -263
c0 -12 -1 -24 -3 -35z" />
    <glyph glyph-name="acaron" unicode="&#x1ce;" horiz-adv-x="1126" 
d="M485 97c180 0 337 121 373 283l32 149l-321 -17c-203 -11 -319 -94 -319 -226c0 -111 96 -189 235 -189zM447 -18c-191 0 -331 125 -331 291c0 207 165 333 459 347l337 16l18 81c5 26 7 44 7 64c0 123 -95 196 -254 196c-142 0 -249 -64 -282 -167h-138
c43 173 214 285 430 285c229 0 377 -116 377 -297c0 -28 -3 -59 -9 -89l-151 -709h-127l35 165h-13c-75 -111 -213 -183 -358 -183zM823 1228h-154l-205 332h144l141 -243h12l244 243h163z" />
    <glyph glyph-name="adotaccent" unicode="&#x227;" horiz-adv-x="1126" 
d="M485 97c180 0 337 121 373 283l32 149l-321 -17c-203 -11 -319 -94 -319 -226c0 -111 96 -189 235 -189zM447 -18c-191 0 -331 125 -331 291c0 207 165 333 459 347l337 16l18 81c5 26 7 44 7 64c0 123 -95 196 -254 196c-142 0 -249 -64 -282 -167h-138
c43 173 214 285 430 285c229 0 377 -116 377 -297c0 -28 -3 -59 -9 -89l-151 -709h-127l35 165h-13c-75 -111 -213 -183 -358 -183zM771 1280c-60 0 -110 50 -110 110s50 109 110 109c59 0 109 -49 109 -109s-50 -110 -109 -110z" />
    <glyph glyph-name="adotbelow" unicode="&#x1ea1;" horiz-adv-x="1126" 
d="M485 97c180 0 337 121 373 283l32 149l-321 -17c-203 -11 -319 -94 -319 -226c0 -111 96 -189 235 -189zM447 -18c-191 0 -331 125 -331 291c0 207 165 333 459 347l337 16l18 81c5 26 7 44 7 64c0 123 -95 196 -254 196c-142 0 -249 -64 -282 -167h-138
c43 173 214 285 430 285c229 0 377 -116 377 -297c0 -28 -3 -59 -9 -89l-151 -709h-127l35 165h-13c-75 -111 -213 -183 -358 -183zM449 -364c-58 0 -105 47 -105 105c0 57 47 104 105 104c57 0 104 -47 104 -104c0 -58 -47 -105 -104 -105z" />
    <glyph glyph-name="ahookabove" unicode="&#x1ea3;" horiz-adv-x="1126" 
d="M485 97c180 0 337 121 373 283l32 149l-321 -17c-203 -11 -319 -94 -319 -226c0 -111 96 -189 235 -189zM447 -18c-191 0 -331 125 -331 291c0 207 165 333 459 347l337 16l18 81c5 26 7 44 7 64c0 123 -95 196 -254 196c-142 0 -249 -64 -282 -167h-138
c43 173 214 285 430 285c229 0 377 -116 377 -297c0 -28 -3 -59 -9 -89l-151 -709h-127l35 165h-13c-75 -111 -213 -183 -358 -183zM635 1454l20 93c20 8 59 16 97 16c119 0 200 -57 200 -152c0 -97 -80 -181 -199 -213l-42 83c79 20 124 64 124 116c0 47 -40 71 -103 71
c-36 0 -72 -6 -97 -14z" />
    <glyph glyph-name="adblgrave" unicode="&#x201;" horiz-adv-x="1126" 
d="M485 97c180 0 337 121 373 283l32 149l-321 -17c-203 -11 -319 -94 -319 -226c0 -111 96 -189 235 -189zM447 -18c-191 0 -331 125 -331 291c0 207 165 333 459 347l337 16l18 81c5 26 7 44 7 64c0 123 -95 196 -254 196c-142 0 -249 -64 -282 -167h-138
c43 173 214 285 430 285c229 0 377 -116 377 -297c0 -28 -3 -59 -9 -89l-151 -709h-127l35 165h-13c-75 -111 -213 -183 -358 -183zM621 1267h-136l-201 327h157zM963 1267h-135l-201 327h156z" />
    <glyph glyph-name="amacron" unicode="&#x101;" horiz-adv-x="1126" 
d="M485 97c180 0 337 121 373 283l32 149l-321 -17c-203 -11 -319 -94 -319 -226c0 -111 96 -189 235 -189zM447 -18c-191 0 -331 125 -331 291c0 207 165 333 459 347l337 16l18 81c5 26 7 44 7 64c0 123 -95 196 -254 196c-142 0 -249 -64 -282 -167h-138
c43 173 214 285 430 285c229 0 377 -116 377 -297c0 -28 -3 -59 -9 -89l-151 -709h-127l35 165h-13c-75 -111 -213 -183 -358 -183zM1081 1292h-663l23 106h662z" />
    <glyph glyph-name="aogonek" unicode="&#x105;" horiz-adv-x="1126" 
d="M485 97c180 0 337 121 373 283l32 149l-321 -17c-203 -11 -319 -94 -319 -226c0 -111 96 -189 235 -189zM786 14l32 151h-13c-75 -111 -213 -183 -358 -183c-191 0 -331 125 -331 291c0 207 165 333 459 347l337 16l18 81c5 26 7 44 7 64c0 123 -95 196 -254 196
c-142 0 -249 -64 -282 -167h-138c43 173 214 285 430 285c229 0 377 -116 377 -297c0 -28 -3 -59 -9 -89l-152 -716l-6 -2c-135 -44 -235 -111 -235 -200c0 -61 53 -98 136 -98c16 0 29 1 39 3l-23 -103c-19 -5 -44 -9 -65 -9c-129 0 -222 73 -222 179c0 114 94 201 253 251
z" />
    <glyph glyph-name="aringbelow.mini" horiz-adv-x="1126" 
d="M485 97c180 0 337 121 373 283l32 149l-321 -17c-203 -11 -319 -94 -319 -226c0 -111 96 -189 235 -189zM447 -18c-191 0 -331 125 -331 291c0 207 165 333 459 347l337 16l18 81c5 26 7 44 7 64c0 123 -95 196 -254 196c-142 0 -249 -64 -282 -167h-138
c43 173 214 285 430 285c229 0 377 -116 377 -297c0 -28 -3 -59 -9 -89l-151 -709h-127l35 165h-13c-75 -111 -213 -183 -358 -183zM376 -285c0 -57 44 -102 102 -102c57 0 101 45 101 102c0 58 -44 103 -101 103c-58 0 -102 -45 -102 -103zM478 -451
c-94 0 -169 72 -169 166s75 167 169 167c93 0 168 -73 168 -167s-75 -166 -168 -166z" />
    <glyph glyph-name="aogonek.mini" horiz-adv-x="1126" 
d="M485 97c180 0 337 121 373 283l32 149l-321 -17c-203 -11 -319 -94 -319 -226c0 -111 96 -189 235 -189zM820 -407c-19 -5 -44 -9 -65 -9c-129 0 -222 73 -222 179c0 114 94 201 253 251l32 151h-13c-75 -111 -213 -183 -358 -183c-191 0 -331 125 -331 291
c0 207 165 333 459 347l337 16l18 81c5 26 7 44 7 64c0 123 -95 196 -254 196c-142 0 -249 -64 -282 -167h-138c43 173 214 285 430 285c229 0 377 -116 377 -297c0 -28 -3 -59 -9 -89l-152 -716l-6 -2c-135 -44 -235 -111 -235 -200c0 -61 53 -98 136 -98c16 0 29 1 39 3z
" />
    <glyph glyph-name="a.1" horiz-adv-x="1257" 
d="M589 101c215 0 384 203 415 442c42 268 -94 434 -291 434c-246 0 -420 -251 -420 -537c0 -210 122 -339 296 -339zM1026 0h-128l42 202h-12c-91 -137 -230 -220 -372 -220c-229 0 -400 163 -400 443c0 392 254 670 546 670c190 0 322 -114 353 -265h12l54 247h134z" />
    <glyph glyph-name="agrave.1" horiz-adv-x="1255" 
d="M892 1266h-143l-200 327h162zM589 100c215 0 384 203 415 442c42 268 -94 434 -291 434c-246 0 -420 -251 -420 -537c0 -210 122 -339 296 -339zM1026 -1h-128l42 202h-12c-91 -137 -230 -220 -372 -220c-229 0 -400 163 -400 443c0 392 254 670 546 670
c190 0 322 -114 353 -265h12l54 247h134z" />
    <glyph glyph-name="aacute.1" horiz-adv-x="1255" 
d="M694 1267l320 327h169l-339 -327h-150zM589 101c215 0 384 203 415 442c42 268 -94 434 -291 434c-246 0 -420 -251 -420 -537c0 -210 122 -339 296 -339zM1026 0h-128l42 202h-12c-91 -137 -230 -220 -372 -220c-229 0 -400 163 -400 443c0 392 254 670 546 670
c190 0 322 -114 353 -265h12l54 247h134z" />
    <glyph glyph-name="adieresis.1" horiz-adv-x="1255" 
d="M589 101c215 0 384 203 415 442c42 268 -94 434 -291 434c-246 0 -420 -251 -420 -537c0 -210 122 -339 296 -339zM1026 0h-128l42 202h-12c-91 -137 -230 -220 -372 -220c-229 0 -400 163 -400 443c0 392 254 670 546 670c190 0 322 -114 353 -265h12l54 247h134z
M658 1228c-57 0 -102 45 -102 102s45 102 102 102c56 0 102 -45 102 -102s-46 -102 -102 -102zM1021 1228c-56 0 -102 45 -102 102s46 102 102 102c57 0 102 -45 102 -102s-45 -102 -102 -102z" />
    <glyph glyph-name="adieresismacron.1" horiz-adv-x="1255" 
d="M589 101c215 0 384 203 415 442c42 268 -94 434 -291 434c-246 0 -420 -251 -420 -537c0 -210 122 -339 296 -339zM1026 0h-128l42 202h-12c-91 -137 -230 -220 -372 -220c-229 0 -400 163 -400 443c0 392 254 670 546 670c190 0 322 -114 353 -265h12l54 247h134z
M659 1240c-55 0 -99 44 -99 99c0 56 44 99 99 99s100 -43 100 -99c0 -55 -45 -99 -100 -99zM1023 1240c-55 0 -99 44 -99 99c0 56 44 99 99 99s99 -43 99 -99c0 -55 -44 -99 -99 -99zM1231 1614h-663l23 106h662z" />
    <glyph glyph-name="aring.1" horiz-adv-x="1255" 
d="M589 101c215 0 384 203 415 442c42 268 -94 434 -291 434c-246 0 -420 -251 -420 -537c0 -210 122 -339 296 -339zM1026 0h-128l42 202h-12c-91 -137 -230 -220 -372 -220c-229 0 -400 163 -400 443c0 392 254 670 546 670c190 0 322 -114 353 -265h12l54 247h134z
M863 1228c-118 0 -213 92 -213 211c0 118 95 210 213 210s213 -92 213 -210c0 -119 -95 -211 -213 -211zM863 1313c71 0 125 55 125 126s-54 125 -125 125s-125 -54 -125 -125s54 -126 125 -126z" />
    <glyph glyph-name="aringacute.1" horiz-adv-x="1255" 
d="M852 1209c-106 0 -191 83 -191 188s85 188 191 188s191 -83 191 -188s-85 -188 -191 -188zM744 1396c0 -62 47 -109 108 -109s109 47 109 109s-48 110 -109 110s-108 -48 -108 -110zM794 1669l208 206h155l-229 -206h-134zM589 101c215 0 384 203 415 442
c42 268 -94 434 -291 434c-246 0 -420 -251 -420 -537c0 -210 122 -339 296 -339zM1026 0h-128l42 202h-12c-91 -137 -230 -220 -372 -220c-229 0 -400 163 -400 443c0 392 254 670 546 670c190 0 322 -114 353 -265h12l54 247h134z" />
    <glyph glyph-name="atilde.1" horiz-adv-x="1255" 
d="M1000 1216c-166 0 -183 186 -286 186c-61 0 -103 -48 -121 -142h-110c20 157 117 247 236 247c165 0 182 -187 286 -187c61 0 102 47 121 142h110c-23 -159 -117 -246 -236 -246zM589 101c215 0 384 203 415 442c42 268 -94 434 -291 434c-246 0 -420 -251 -420 -537
c0 -210 122 -339 296 -339zM1026 0h-128l42 202h-12c-91 -137 -230 -220 -372 -220c-229 0 -400 163 -400 443c0 392 254 670 546 670c190 0 322 -114 353 -265h12l54 247h134z" />
    </font>
</defs>
</svg>
